<svg width="26" height="28" viewBox="0 0 26 28" fill="none" xmlns="http://www.w3.org/2000/svg">
<path d="M12.5749 13.5829C16.5438 13.5829 19.7605 10.5427 19.7605 6.79147C19.7605 3.04024 16.5438 0 12.5749 0C8.60591 0 5.38922 3.04024 5.38922 6.79147C5.38922 10.5427 8.60591 13.5829 12.5749 13.5829ZM17.9528 15.3126L15.2695 25.468L13.4731 18.2521L15.2695 15.2808H9.88024L11.6766 18.2521L9.88024 25.468L7.19686 15.3126C3.19424 15.493 0 18.5863 0 22.4118V24.6191C0 26.0251 1.20696 27.1659 2.69461 27.1659H22.4551C23.9427 27.1659 25.1497 26.0251 25.1497 24.6191V22.4118C25.1497 18.5863 21.9555 15.493 17.9528 15.3126Z" fill="#424242"/>
</svg>
