<svg width="10" height="10" viewBox="0 0 10 10" fill="none" xmlns="http://www.w3.org/2000/svg">
<path d="M5 0C2.23884 0 0 2.23884 0 5C0 7.76116 2.23884 10 5 10C7.76116 10 10 7.76116 10 5C10 2.23884 7.76116 0 5 0ZM7.1596 3.36719L4.80915 6.62612C4.7763 6.67197 4.73299 6.70933 4.68282 6.7351C4.63265 6.76088 4.57705 6.77432 4.52065 6.77432C4.46424 6.77432 4.40865 6.76088 4.35847 6.7351C4.3083 6.70933 4.26499 6.67197 4.23214 6.62612L2.8404 4.69754C2.79799 4.63839 2.8404 4.5558 2.91295 4.5558H3.43638C3.55022 4.5558 3.65848 4.61049 3.72545 4.70424L4.52009 5.80692L6.27455 3.37388C6.34152 3.28125 6.44866 3.22545 6.56362 3.22545H7.08705C7.1596 3.22545 7.20201 3.30804 7.1596 3.36719V3.36719Z" fill="#0C9FED"/>
</svg>
