<svg width="268" height="268" viewBox="0 0 268 268" fill="none" xmlns="http://www.w3.org/2000/svg">
<path d="M131.88 5.11018C132.523 5.25865 132.984 5.56001 133.262 6.01425C133.547 6.46999 133.606 7.05838 133.44 7.77941L132.754 10.7512L132.062 10.5915L132.732 7.6879C132.855 7.15525 132.819 6.71927 132.624 6.37996C132.435 6.04215 132.107 5.81926 131.639 5.71129C131.106 5.58831 130.649 5.65723 130.267 5.91803C129.887 6.17233 129.63 6.58855 129.497 7.16667L128.876 9.85594L128.184 9.69622L128.854 6.7926C128.977 6.25994 128.941 5.82396 128.746 5.48466C128.557 5.14685 128.225 4.92321 127.751 4.81373C127.225 4.69226 126.768 4.76117 126.379 5.02047C125.999 5.27478 125.742 5.69099 125.609 6.26912L124.988 8.95838L124.296 8.79867L125.479 3.67348L126.142 3.82645L125.926 4.76184C126.18 4.49203 126.489 4.31018 126.853 4.21627C127.216 4.12236 127.609 4.12415 128.032 4.22163C128.46 4.32061 128.81 4.49703 129.079 4.75089C129.356 5.00626 129.53 5.33057 129.604 5.72384C129.87 5.42955 130.201 5.2287 130.595 5.12131C130.997 5.00891 131.426 5.00521 131.88 5.11018ZM137.323 6.36664C137.992 6.52111 138.466 6.80847 138.745 7.22874C139.026 7.6425 139.091 8.17743 138.939 8.8335L138.206 12.0099L137.543 11.857L137.728 11.058C137.51 11.2883 137.232 11.443 136.892 11.5219C136.559 11.6023 136.184 11.5945 135.768 11.4985C135.197 11.3666 134.773 11.1252 134.499 10.7744C134.224 10.4236 134.138 10.0241 134.242 9.57585C134.342 9.14063 134.579 8.82585 134.952 8.6315C135.332 8.43866 135.866 8.42172 136.555 8.58069L138.182 8.95635L138.254 8.64455C138.356 8.20284 138.31 7.83981 138.115 7.55547C137.923 7.26464 137.589 7.06448 137.115 6.955C136.79 6.88002 136.466 6.86325 136.141 6.90469C135.818 6.93964 135.528 7.02656 135.27 7.16545L135.078 6.57705C135.389 6.41618 135.739 6.31927 136.13 6.28633C136.522 6.24689 136.92 6.27366 137.323 6.36664ZM136.001 10.9776C136.391 11.0676 136.746 11.0572 137.066 10.9463C137.387 10.8289 137.655 10.617 137.869 10.3107L138.063 9.47277L136.455 9.1016C135.578 8.89914 135.069 9.10322 134.928 9.71382C134.859 10.0126 134.918 10.276 135.105 10.5038C135.293 10.7252 135.592 10.8832 136.001 10.9776ZM142.563 12.6876C142.407 12.7745 142.223 12.828 142.013 12.8479C141.811 12.8629 141.607 12.8464 141.399 12.7984C140.918 12.6874 140.578 12.472 140.378 12.1522C140.178 11.8324 140.133 11.4354 140.242 10.9612L140.958 7.8627L140.042 7.65124L140.177 7.06662L141.093 7.27807L141.351 6.15755L142.043 6.31726L141.784 7.43779L143.343 7.79771L143.208 8.38233L141.649 8.02241L140.943 11.0819C140.873 11.3872 140.893 11.6383 141.005 11.8352C141.125 12.0271 141.328 12.156 141.614 12.222C141.757 12.255 141.898 12.2638 142.039 12.2483C142.186 12.2343 142.318 12.1964 142.435 12.1344L142.563 12.6876ZM148.282 11.863L143.995 10.8732C143.911 11.4148 144.016 11.894 144.31 12.3108C144.605 12.7211 145.035 12.9914 145.601 13.1219C145.919 13.1954 146.224 13.2077 146.516 13.1587C146.809 13.1033 147.079 12.9876 147.324 12.8118L147.611 13.35C147.32 13.5703 146.987 13.7122 146.609 13.7756C146.239 13.8405 145.849 13.8257 145.439 13.7313C144.913 13.6098 144.471 13.3914 144.113 13.0761C143.762 12.7557 143.519 12.3712 143.384 11.9225C143.248 11.4737 143.237 10.9993 143.353 10.4991C143.468 9.99891 143.679 9.57545 143.985 9.22869C144.297 8.88344 144.667 8.64387 145.095 8.51C145.529 8.37762 145.984 8.36617 146.458 8.47564C146.932 8.58512 147.332 8.79378 147.658 9.10162C147.983 9.40945 148.208 9.78624 148.331 10.232C148.455 10.6712 148.459 11.1442 148.342 11.6508L148.282 11.863ZM146.32 9.07001C145.827 8.95604 145.374 9.0192 144.963 9.25951C144.56 9.49483 144.277 9.86057 144.114 10.3567L147.749 11.1958C147.82 10.6786 147.723 10.2252 147.457 9.83539C147.2 9.44061 146.821 9.18549 146.32 9.07001ZM156.45 10.7826C157.093 10.931 157.554 11.2324 157.832 11.6866C158.117 12.1424 158.176 12.7307 158.01 13.4518L157.323 16.4236L156.632 16.2639L157.302 13.3603C157.425 12.8276 157.389 12.3916 157.193 12.0523C157.005 11.7145 156.676 11.4916 156.209 11.3837C155.676 11.2607 155.219 11.3296 154.837 11.5904C154.457 11.8447 154.2 12.2609 154.066 12.839L153.445 15.5283L152.754 15.3686L153.424 12.465C153.547 11.9323 153.511 11.4963 153.315 11.157C153.127 10.8192 152.795 10.5956 152.321 10.4861C151.795 10.3646 151.337 10.4335 150.949 10.6928C150.569 10.9471 150.312 11.3634 150.179 11.9415L149.558 14.6308L148.866 14.471L150.049 9.34585L150.712 9.49882L150.496 10.4342C150.75 10.1644 151.058 9.98255 151.422 9.88864C151.786 9.79473 152.179 9.79652 152.601 9.894C153.03 9.99297 153.379 10.1694 153.649 10.4233C153.925 10.6786 154.1 11.0029 154.174 11.3962C154.44 11.1019 154.77 10.9011 155.165 10.7937C155.567 10.6813 155.995 10.6776 156.45 10.7826ZM161.892 12.039C162.561 12.1935 163.036 12.4808 163.315 12.9011C163.596 13.3149 163.66 13.8498 163.509 14.5059L162.775 17.6823L162.113 17.5294L162.297 16.7304C162.08 16.9607 161.801 17.1153 161.462 17.1942C161.128 17.2747 160.754 17.2669 160.338 17.1709C159.766 17.0389 159.343 16.7975 159.068 16.4467C158.794 16.0959 158.708 15.6964 158.811 15.2482C158.912 14.813 159.149 14.4982 159.522 14.3039C159.902 14.111 160.436 14.0941 161.125 14.2531L162.752 14.6287L162.824 14.3169C162.926 13.8752 162.88 13.5122 162.685 13.2278C162.492 12.937 162.159 12.7368 161.685 12.6274C161.36 12.5524 161.035 12.5356 160.711 12.5771C160.388 12.612 160.098 12.6989 159.84 12.8378L159.647 12.2494C159.958 12.0885 160.309 11.9916 160.7 11.9587C161.092 11.9193 161.49 11.946 161.892 12.039ZM160.571 16.65C160.961 16.74 161.316 16.7295 161.636 16.6186C161.957 16.5012 162.225 16.2894 162.439 15.9831L162.633 15.1451L161.025 14.774C160.148 14.5715 159.639 14.7756 159.498 15.3862C159.429 15.685 159.488 15.9483 159.675 16.1762C159.863 16.3976 160.162 16.5555 160.571 16.65ZM167.133 18.36C166.976 18.4469 166.793 18.5003 166.583 18.5203C166.381 18.5353 166.176 18.5188 165.968 18.4708C165.488 18.3598 165.147 18.1444 164.948 17.8246C164.748 17.5048 164.703 17.1078 164.812 16.6336L165.527 13.5351L164.611 13.3236L164.746 12.739L165.662 12.9504L165.921 11.8299L166.613 11.9896L166.354 13.1102L167.913 13.4701L167.778 14.0547L166.219 13.6948L165.513 16.7543C165.442 17.0596 165.463 17.3107 165.575 17.5076C165.695 17.6995 165.898 17.8284 166.184 17.8944C166.326 17.9274 166.468 17.9362 166.609 17.9207C166.755 17.9067 166.887 17.8687 167.004 17.8068L167.133 18.36ZM173.423 14.7421L169.536 19.8896C169.217 20.3223 168.898 20.6078 168.578 20.7462C168.259 20.8846 167.908 20.9095 167.524 20.821C167.278 20.7641 167.056 20.6718 166.86 20.5444C166.663 20.417 166.505 20.2573 166.385 20.0654L166.826 19.6232C167.026 19.943 167.308 20.1449 167.671 20.2289C167.905 20.2829 168.118 20.2637 168.311 20.1713C168.51 20.0803 168.717 19.8955 168.931 19.6167L169.27 19.1715L168.161 13.5274L168.883 13.6939L169.806 18.4947L172.741 14.5847L173.423 14.7421ZM174.892 20.5309C174.385 20.414 173.956 20.1986 173.604 19.8847C173.259 19.5724 173.018 19.1918 172.883 18.7431C172.748 18.2879 172.739 17.8102 172.854 17.31C172.97 16.8098 173.187 16.3879 173.506 16.0441C173.825 15.7004 174.208 15.4638 174.655 15.3344C175.109 15.2065 175.589 15.2011 176.095 15.3181C176.537 15.42 176.91 15.5985 177.214 15.8533C177.525 16.1032 177.744 16.417 177.869 16.7948L177.271 17.0264C177.161 16.734 176.99 16.4962 176.759 16.3127C176.529 16.1228 176.261 15.9927 175.956 15.9222C175.586 15.8367 175.232 15.8439 174.894 15.9438C174.564 16.0387 174.279 16.2193 174.04 16.4856C173.807 16.7534 173.646 17.0822 173.556 17.472C173.464 17.8682 173.465 18.2377 173.556 18.5805C173.656 18.9183 173.833 19.2054 174.086 19.4418C174.348 19.6732 174.663 19.8316 175.034 19.9171C175.339 19.9876 175.636 19.9911 175.924 19.9277C176.212 19.8642 176.47 19.7253 176.698 19.511L177.133 19.981C176.855 20.2658 176.521 20.4554 176.129 20.5498C175.74 20.6377 175.327 20.6314 174.892 20.5309ZM181.649 21.434L181.516 22.0089L177.346 21.0461L177.451 20.5881L181.619 17.2501L178.452 16.519L178.587 15.9344L182.641 16.8702L182.535 17.3282L178.365 20.6759L181.649 21.434ZM186.389 17.6945C187.032 17.8429 187.498 18.149 187.788 18.6128C188.086 19.0715 188.152 19.6581 187.987 20.3727L187.301 23.3445L186.609 23.1848L187.28 20.2812C187.403 19.7485 187.363 19.3118 187.161 18.971C186.96 18.6302 186.612 18.4028 186.118 18.2888C185.566 18.1613 185.089 18.2258 184.688 18.4821C184.295 18.7334 184.031 19.1481 183.898 19.7262L183.277 22.4155L182.585 22.2557L183.768 17.1306L184.431 17.2835L184.213 18.2287C184.473 17.9604 184.788 17.78 185.159 17.6876C185.537 17.5902 185.947 17.5925 186.389 17.6945ZM190.99 24.2474C190.496 24.1334 190.077 23.9203 189.731 23.6079C189.388 23.2891 189.148 22.9053 189.012 22.4566C188.876 22.0078 188.866 21.5334 188.981 21.0332C189.097 20.533 189.314 20.1111 189.633 19.7673C189.952 19.4236 190.335 19.187 190.782 19.0576C191.229 18.9282 191.699 18.9205 192.193 19.0345C192.687 19.1485 193.106 19.3616 193.452 19.674C193.797 19.9863 194.034 20.3661 194.164 20.8133C194.299 21.2621 194.31 21.7365 194.194 22.2367C194.079 22.7369 193.861 23.1588 193.543 23.5026C193.23 23.8479 192.85 24.0884 192.401 24.2243C191.954 24.3537 191.483 24.3614 190.99 24.2474ZM191.131 23.6335C191.495 23.7175 191.839 23.7113 192.162 23.6149C192.493 23.5135 192.775 23.3289 193.008 23.0611C193.241 22.7933 193.403 22.4645 193.493 22.0747C193.583 21.685 193.582 21.3187 193.49 20.9759C193.398 20.6331 193.224 20.3468 192.97 20.1169C192.723 19.882 192.417 19.7226 192.054 19.6386C191.69 19.5546 191.342 19.5634 191.011 19.6648C190.688 19.7612 190.406 19.9425 190.167 20.2088C189.934 20.4766 189.773 20.8054 189.683 21.1952C189.593 21.5849 189.594 21.9512 189.686 22.294C189.784 22.6383 189.957 22.9279 190.204 23.1627C190.458 23.3926 190.768 23.5496 191.131 23.6335ZM195.117 22.0495L197.67 22.6389L197.53 23.243L194.978 22.6536L195.117 22.0495ZM138.624 18.2438L141.177 18.8332L141.037 19.4373L138.484 18.8479L138.624 18.2438ZM143.422 14.8357L144.114 14.9955L142.445 22.2253L141.753 22.0656L143.422 14.8357ZM146.161 23.1346C145.667 23.0206 145.248 22.8074 144.902 22.4951C144.559 22.1763 144.319 21.7925 144.183 21.3437C144.047 20.895 144.037 20.4206 144.152 19.9204C144.268 19.4202 144.485 18.9982 144.804 18.6545C145.123 18.3107 145.506 18.0742 145.953 17.9448C146.4 17.8154 146.871 17.8077 147.364 17.9217C147.858 18.0357 148.277 18.2488 148.623 18.5612C148.968 18.8735 149.205 19.2533 149.335 19.7005C149.471 20.1492 149.481 20.6237 149.365 21.1239C149.25 21.624 149.033 22.046 148.714 22.3898C148.401 22.735 148.021 22.9756 147.572 23.1115C147.125 23.2408 146.654 23.2485 146.161 23.1346ZM146.303 22.5207C146.666 22.6047 147.01 22.5985 147.333 22.5021C147.664 22.4007 147.947 22.2161 148.179 21.9482C148.412 21.6804 148.574 21.3517 148.664 20.9619C148.754 20.5722 148.753 20.2059 148.661 19.8631C148.569 19.5203 148.396 19.234 148.141 19.0041C147.894 18.7692 147.589 18.6098 147.225 18.5258C146.861 18.4418 146.514 18.4505 146.182 18.5519C145.859 18.6483 145.578 18.8297 145.338 19.096C145.105 19.3638 144.944 19.6926 144.854 20.0823C144.764 20.4721 144.765 20.8384 144.857 21.1812C144.955 21.5255 145.128 21.815 145.375 22.0499C145.629 22.2798 145.939 22.4367 146.303 22.5207ZM155.822 19.9154L154.783 24.417C154.582 25.2874 154.219 25.881 153.694 26.1978C153.175 26.5225 152.486 26.5859 151.629 26.3879C151.154 26.2785 150.719 26.1028 150.324 25.8609C149.933 25.627 149.633 25.3559 149.424 25.0476L149.896 24.6024C150.092 24.8802 150.351 25.1214 150.673 25.3258C151.002 25.5317 151.361 25.6796 151.751 25.7696C152.4 25.9196 152.913 25.8771 153.289 25.6423C153.663 25.414 153.924 24.9815 154.071 24.3449L154.221 23.6921C153.932 23.9674 153.593 24.149 153.203 24.2369C152.82 24.3263 152.417 24.3223 151.995 24.2248C151.514 24.1138 151.099 23.9087 150.751 23.6093C150.411 23.305 150.171 22.9382 150.03 22.509C149.898 22.0747 149.887 21.6173 149.998 21.1366C150.109 20.6559 150.319 20.2526 150.626 19.9269C150.941 19.6026 151.317 19.3815 151.754 19.2637C152.192 19.1458 152.655 19.1431 153.142 19.2555C153.577 19.356 153.95 19.5344 154.26 19.7908C154.57 20.0472 154.794 20.3657 154.932 20.7465L155.16 19.7624L155.822 19.9154ZM152.205 23.6267C152.575 23.7122 152.927 23.7115 153.262 23.6246C153.598 23.5312 153.881 23.3603 154.109 23.112C154.344 22.8651 154.503 22.5599 154.587 22.1961C154.671 21.8323 154.661 21.4913 154.557 21.173C154.46 20.8497 154.281 20.5756 154.018 20.3507C153.763 20.1208 153.447 19.9624 153.071 19.8754C152.7 19.7899 152.348 19.7906 152.013 19.8775C151.685 19.966 151.403 20.1336 151.168 20.3804C150.94 20.6287 150.784 20.9348 150.7 21.2985C150.616 21.6623 150.622 22.0058 150.718 22.3291C150.821 22.6539 151 22.9313 151.255 23.1612C151.518 23.3861 151.834 23.5412 152.205 23.6267ZM157.464 20.2945L158.156 20.4542L156.973 25.5794L156.281 25.4197L157.464 20.2945ZM158.074 19.255C157.931 19.222 157.822 19.1455 157.747 19.0256C157.672 18.9057 157.65 18.7775 157.682 18.6411C157.712 18.5112 157.787 18.4087 157.907 18.3338C158.027 18.2588 158.158 18.2379 158.301 18.2709C158.444 18.3039 158.553 18.3803 158.628 18.5003C158.704 18.6137 158.727 18.7354 158.697 18.8653C158.664 19.0082 158.588 19.1171 158.468 19.1921C158.348 19.267 158.217 19.288 158.074 19.255ZM160.718 26.4955C160.212 26.3785 159.783 26.1631 159.431 25.8492C159.086 25.5369 158.845 25.1564 158.709 24.7076C158.575 24.2524 158.565 23.7747 158.681 23.2745C158.796 22.7743 159.013 22.3524 159.332 22.0086C159.651 21.6649 160.034 21.4283 160.481 21.2989C160.935 21.1711 161.415 21.1656 161.922 21.2826C162.364 21.3846 162.736 21.563 163.04 21.8178C163.352 22.0677 163.57 22.3815 163.695 22.7593L163.098 22.9909C162.987 22.6985 162.816 22.4607 162.585 22.2773C162.355 22.0874 162.088 21.9572 161.782 21.8867C161.412 21.8012 161.058 21.8084 160.72 21.9083C160.391 22.0032 160.106 22.1838 159.867 22.4502C159.634 22.718 159.472 23.0467 159.382 23.4365C159.291 23.8327 159.291 24.2023 159.383 24.545C159.483 24.8828 159.659 25.1699 159.913 25.4063C160.174 25.6377 160.49 25.7961 160.86 25.8816C161.165 25.9521 161.462 25.9556 161.751 25.8922C162.039 25.8287 162.297 25.6899 162.524 25.4755L162.96 25.9455C162.682 26.2303 162.347 26.4199 161.956 26.5143C161.566 26.6022 161.154 26.5959 160.718 26.4955ZM167.475 27.3985L167.342 27.9734L163.172 27.0106L163.278 26.5527L167.445 23.2146L164.279 22.4835L164.414 21.8989L168.467 22.8347L168.361 23.2927L164.191 26.6404L167.475 27.3985ZM172.215 23.659C172.858 23.8074 173.325 24.1135 173.614 24.5773C173.912 25.036 173.979 25.6227 173.814 26.3372L173.128 29.309L172.436 29.1493L173.106 26.2457C173.229 25.713 173.19 25.2763 172.988 24.9355C172.786 24.5947 172.438 24.3673 171.945 24.2533C171.392 24.1259 170.916 24.1903 170.514 24.4466C170.121 24.6979 169.858 25.1126 169.724 25.6907L169.103 28.38L168.412 28.2203L169.595 23.0951L170.257 23.248L170.039 24.1932C170.3 23.9249 170.615 23.7445 170.985 23.6521C171.363 23.5547 171.773 23.557 172.215 23.659ZM177.699 24.9249C178.368 25.0794 178.842 25.3667 179.121 25.787C179.402 26.2008 179.467 26.7357 179.315 27.3918L178.582 30.5682L177.919 30.4152L178.104 29.6163C177.886 29.8466 177.608 30.0012 177.268 30.0801C176.935 30.1606 176.56 30.1528 176.144 30.0568C175.573 29.9248 175.149 29.6834 174.875 29.3326C174.6 28.9818 174.514 28.5823 174.618 28.1341C174.718 27.6989 174.955 27.3841 175.328 27.1898C175.708 26.9969 176.242 26.98 176.931 27.1389L178.558 27.5146L178.63 27.2028C178.732 26.7611 178.686 26.3981 178.491 26.1137C178.299 25.8229 177.965 25.6227 177.491 25.5133C177.166 25.4383 176.842 25.4215 176.517 25.463C176.194 25.4979 175.904 25.5848 175.646 25.7237L175.454 25.1353C175.765 24.9744 176.115 24.8775 176.506 24.8446C176.898 24.8052 177.296 24.8319 177.699 24.9249ZM176.377 29.5359C176.767 29.6259 177.122 29.6154 177.442 29.5045C177.763 29.3871 178.031 29.1753 178.245 28.869L178.439 28.031L176.831 27.6599C175.954 27.4574 175.445 27.6615 175.304 28.2721C175.235 28.5709 175.294 28.8342 175.481 29.0621C175.669 29.2835 175.968 29.4414 176.377 29.5359Z" fill="#212121"/>
<path d="M240.663 67.0903L235.059 67.5664L234.77 66.9621L237.941 63.6039L233.337 63.9675L233.047 63.3632L236.937 59.3061L237.23 59.9195L233.911 63.3378L238.673 62.9321L238.936 63.4823L235.629 66.9277L240.382 66.504L240.663 67.0903ZM240.995 67.7839L241.302 68.4244L236.557 70.6955L236.251 70.0551L240.995 67.7839ZM242.188 67.6121C242.124 67.4798 242.116 67.347 242.163 67.2136C242.21 67.0802 242.297 66.9833 242.423 66.9229C242.544 66.8653 242.67 66.86 242.804 66.9071C242.937 66.9541 243.035 67.0437 243.099 67.176C243.162 67.3083 243.17 67.4412 243.123 67.5745C243.082 67.705 243.002 67.7991 242.881 67.8566C242.749 67.92 242.616 67.9281 242.483 67.8811C242.349 67.8341 242.251 67.7444 242.188 67.6121ZM239.415 75.2984L238.883 75.5531L237.035 71.6927L237.458 71.4897L242.667 72.6662L241.264 69.7347L241.805 69.4757L243.601 73.2279L243.177 73.4308L237.96 72.2587L239.415 75.2984ZM246.147 78.5473L241.403 80.8184L241.109 80.2051L241.975 79.7906C241.606 79.7603 241.27 79.6368 240.966 79.4199C240.669 79.2 240.43 78.9007 240.248 78.5219C239.952 77.9025 239.889 77.3304 240.059 76.8055C240.238 76.2838 240.661 75.8632 241.328 75.5437L244.079 74.2268L244.386 74.8672L241.698 76.1539C241.199 76.3928 240.879 76.6974 240.738 77.0677C240.598 77.438 240.637 77.8517 240.856 78.3087C241.095 78.8078 241.433 79.1297 241.872 79.2744C242.317 79.4162 242.81 79.3576 243.351 79.0986L245.841 77.9069L246.147 78.5473ZM247.707 81.7127C248.003 82.332 248.075 82.8819 247.92 83.3623C247.772 83.8399 247.394 84.224 246.787 84.5147L243.846 85.9223L243.553 85.3089L244.292 84.9549C243.977 84.9286 243.682 84.8072 243.408 84.5908C243.138 84.3804 242.91 84.0828 242.726 83.6979C242.473 83.1688 242.397 82.6874 242.5 82.2538C242.603 81.8202 242.862 81.5041 243.277 81.3055C243.68 81.1127 244.074 81.1015 244.458 81.2722C244.846 81.4488 245.192 81.8558 245.497 82.4932L246.218 83.9995L246.507 83.8614C246.916 83.6656 247.171 83.4031 247.272 83.0739C247.379 82.7417 247.328 82.3562 247.118 81.9172C246.974 81.6166 246.784 81.3524 246.55 81.1247C246.321 80.8942 246.072 80.7214 245.803 80.6065L246.143 80.089C246.462 80.2316 246.757 80.4454 247.026 80.7304C247.302 81.0124 247.529 81.3399 247.707 81.7127ZM243.279 83.5554C243.451 83.9162 243.681 84.187 243.967 84.3678C244.259 84.5458 244.592 84.6231 244.965 84.5997L245.74 84.2284L245.028 82.7401C244.639 81.9283 244.162 81.6577 243.597 81.9283C243.321 82.0607 243.152 82.271 243.09 82.5592C243.034 82.8445 243.097 83.1765 243.279 83.5554ZM251.242 84.1874L251.549 84.8278L244.856 88.0315L244.549 87.3911L251.242 84.1874ZM251.517 89.6718C251.802 90.2671 251.853 90.8226 251.672 91.3383C251.499 91.8572 251.082 92.2749 250.42 92.5915L247.669 93.9084L247.362 93.268L250.05 91.9813C250.543 91.7453 250.86 91.4421 251.001 91.0718C251.141 90.7015 251.102 90.2878 250.884 89.8308C250.639 89.3197 250.291 88.9872 249.841 88.8334C249.399 88.6826 248.91 88.7354 248.375 88.9916L245.886 90.1832L245.579 89.5428L250.324 87.2717L250.617 87.8851L249.742 88.3039C250.114 88.3401 250.452 88.4741 250.755 88.706C251.067 88.9409 251.321 89.2629 251.517 89.6718ZM249.263 97.355C249.045 96.8979 248.95 96.4371 248.979 95.9724C249.013 95.5049 249.164 95.0781 249.43 94.692C249.696 94.306 250.061 94.0021 250.524 93.7805C250.987 93.5588 251.452 93.4655 251.919 93.5003C252.387 93.5352 252.811 93.6871 253.191 93.9561C253.571 94.225 253.87 94.588 254.089 95.045C254.308 95.502 254.403 95.9628 254.374 96.4275C254.345 96.8922 254.196 97.3145 253.927 97.6946C253.661 98.0806 253.297 98.3845 252.834 98.6061C252.371 98.8277 251.905 98.9211 251.438 98.8862C250.973 98.8574 250.548 98.7099 250.162 98.4439C249.782 98.1749 249.482 97.812 249.263 97.355ZM249.832 97.0829C249.993 97.4197 250.212 97.6844 250.489 97.877C250.775 98.0727 251.095 98.1781 251.45 98.1932C251.804 98.2082 252.162 98.1294 252.523 97.9567C252.883 97.784 253.169 97.5548 253.38 97.2692C253.591 96.9836 253.706 96.6695 253.727 96.3269C253.757 95.9875 253.691 95.6494 253.53 95.3127C253.369 94.9759 253.145 94.7097 252.859 94.5139C252.582 94.3213 252.265 94.2145 251.908 94.1934C251.553 94.1784 251.195 94.2572 250.834 94.4299C250.474 94.6026 250.188 94.8318 249.977 95.1174C249.77 95.409 249.651 95.7246 249.621 96.064C249.6 96.4065 249.67 96.7462 249.832 97.0829ZM253.555 99.2109L254.687 101.574L254.127 101.842L252.996 99.4786L253.555 99.2109ZM222.91 56.0351L224.041 58.3983L223.482 58.666L222.35 56.3028L222.91 56.0351ZM227.824 61.0203C228.037 61.4653 228.127 61.9171 228.096 62.3758C228.07 62.8316 227.923 63.2495 227.654 63.6295C227.385 64.0096 227.016 64.3118 226.547 64.5364C226.072 64.7638 225.602 64.863 225.137 64.8342C224.672 64.8053 224.252 64.6594 223.874 64.3965C223.506 64.1367 223.214 63.7813 222.998 63.3303C222.814 62.9455 222.725 62.5593 222.732 62.1718C222.747 61.7874 222.861 61.4225 223.073 61.0773L220.43 62.3424L220.123 61.702L226.618 58.5932L226.911 59.2066L225.973 59.6556C226.378 59.6984 226.739 59.8358 227.057 60.0679C227.378 60.306 227.634 60.6235 227.824 61.0203ZM223.545 63.0132C223.703 63.3439 223.922 63.6086 224.202 63.8072C224.488 64.003 224.808 64.1084 225.163 64.1234C225.52 64.1445 225.879 64.0687 226.24 63.896C226.601 63.7232 226.882 63.4925 227.084 63.2038C227.295 62.9181 227.413 62.6026 227.44 62.2572C227.467 61.9117 227.401 61.5737 227.243 61.2429C227.082 60.9062 226.858 60.64 226.572 60.4442C226.289 60.2545 225.969 60.1491 225.612 60.128C225.263 60.1101 224.908 60.1875 224.548 60.3602C224.187 60.5329 223.901 60.7621 223.69 61.0477C223.483 61.3393 223.364 61.6548 223.334 61.9943C223.313 62.3368 223.384 62.6765 223.545 63.0132ZM228.779 65.4938C229.17 65.4915 229.517 65.5989 229.82 65.8158C230.126 66.0388 230.384 66.3697 230.595 66.8087L229.972 67.1066L229.908 66.9489C229.669 66.4498 229.328 66.1324 228.887 65.9966C228.445 65.8608 227.947 65.9253 227.394 66.1901L224.976 67.3472L224.67 66.7068L229.414 64.4357L229.708 65.049L228.779 65.4938ZM228.407 73.1481L227.875 73.4028L226.027 69.5423L226.451 69.3394L231.66 70.5159L230.256 67.5844L230.798 67.3254L232.594 71.0776L232.17 71.2805L226.952 70.1084L228.407 73.1481ZM232.462 77.4039L230.563 73.4352C230.087 73.7073 229.778 74.0882 229.635 74.5777C229.498 75.0644 229.555 75.5693 229.806 76.0925C229.947 76.3871 230.127 76.6332 230.348 76.8308C230.574 77.0256 230.832 77.1642 231.123 77.2467L230.881 77.8061C230.528 77.7166 230.209 77.5441 229.924 77.2887C229.642 77.0394 229.41 76.7253 229.229 76.3464C228.996 75.8594 228.891 75.3775 228.914 74.9008C228.946 74.4272 229.095 73.9974 229.361 73.6113C229.627 73.2253 229.991 72.9215 230.454 72.6998C230.917 72.4782 231.38 72.3788 231.842 72.4016C232.306 72.4305 232.724 72.5704 233.096 72.8213C233.47 73.0782 233.762 73.4261 233.972 73.8651C234.183 74.304 234.269 74.7468 234.231 75.1935C234.194 75.6401 234.039 76.0504 233.767 76.4245C233.502 76.7956 233.134 77.0934 232.665 77.318L232.462 77.4039ZM233.422 74.1285C233.203 73.6715 232.872 73.3571 232.428 73.1855C231.992 73.017 231.53 73.0239 231.041 73.2064L232.651 76.5708C233.1 76.3042 233.394 75.9454 233.533 75.4946C233.681 75.0468 233.644 74.5915 233.422 74.1285ZM231.351 80.7798C231.167 80.395 231.044 79.9993 230.982 79.5927C230.93 79.1892 230.94 78.848 231.013 78.5689L231.657 78.6158C231.595 78.889 231.585 79.2005 231.627 79.5501C231.675 79.8968 231.776 80.2325 231.932 80.5572C232.139 80.9902 232.358 81.2772 232.588 81.4183C232.827 81.5626 233.07 81.5757 233.316 81.4577C233.491 81.3742 233.599 81.2523 233.64 81.092C233.688 80.9288 233.694 80.7485 233.658 80.5511C233.629 80.3508 233.569 80.0949 233.479 79.7832C233.367 79.3638 233.291 79.0196 233.251 78.7505C233.217 78.4786 233.25 78.2153 233.35 77.9605C233.452 77.7118 233.663 77.5112 233.982 77.3586C234.379 77.1687 234.782 77.1786 235.193 77.3884C235.604 77.5982 235.951 77.9978 236.233 78.5871C236.38 78.8938 236.484 79.2206 236.547 79.5676C236.616 79.9117 236.631 80.2146 236.594 80.4764L235.946 80.4429C236.029 79.9225 235.942 79.3917 235.683 78.8505C235.487 78.4416 235.266 78.1664 235.021 78.0251C234.779 77.8897 234.541 77.8781 234.306 77.9904C234.126 78.0768 234.009 78.203 233.955 78.369C233.905 78.5411 233.894 78.7273 233.923 78.9276C233.959 79.125 234.023 79.39 234.116 79.7226C234.225 80.1359 234.298 80.4742 234.335 80.7372C234.372 81.0002 234.343 81.2547 234.246 81.5005C234.149 81.7463 233.948 81.9427 233.641 82.0895C233.226 82.2881 232.812 82.272 232.398 82.0413C231.994 81.8136 231.645 81.3932 231.351 80.7798ZM234.255 85.9892C234.089 85.9207 233.933 85.8107 233.786 85.6591C233.649 85.5106 233.534 85.3402 233.442 85.1477C233.229 84.7028 233.185 84.3024 233.311 83.9468C233.436 83.5911 233.718 83.3082 234.157 83.0981L237.025 81.725L236.619 80.8772L237.161 80.6181L237.567 81.466L238.604 80.9694L238.91 81.6099L237.873 82.1064L238.564 83.5496L238.023 83.8086L237.332 82.3655L234.5 83.7212C234.217 83.8565 234.034 84.0293 233.95 84.2395C233.874 84.4529 233.9 84.6919 234.027 84.9565C234.09 85.0888 234.172 85.205 234.271 85.3051C234.374 85.4113 234.486 85.4907 234.607 85.5435L234.255 85.9892ZM238.504 85.8095C238.894 85.8073 239.242 85.9147 239.545 86.1316C239.851 86.3545 240.109 86.6855 240.32 87.1244L239.697 87.4224L239.633 87.2647C239.394 86.7656 239.053 86.4482 238.611 86.3123C238.17 86.1765 237.672 86.241 237.119 86.5058L234.701 87.663L234.395 87.0226L239.139 84.7515L239.433 85.3648L238.504 85.8095ZM238.132 93.4639L237.6 93.7186L235.752 89.8581L236.176 89.6552L241.385 90.8316L239.981 87.9002L240.523 87.6411L242.319 91.3934L241.895 91.5963L236.677 90.4242L238.132 93.4639ZM242.187 97.7197L240.288 93.751C239.812 94.0231 239.503 94.4039 239.36 94.8935C239.223 95.3802 239.28 95.8851 239.531 96.4082C239.672 96.7029 239.852 96.949 240.073 97.1466C240.299 97.3413 240.557 97.48 240.848 97.5625L240.606 98.1219C240.253 98.0323 239.934 97.8599 239.649 97.6045C239.367 97.3551 239.135 97.041 238.954 96.6622C238.721 96.1751 238.616 95.6932 238.639 95.2165C238.671 94.743 238.82 94.3132 239.086 93.9271C239.352 93.5411 239.716 93.2372 240.179 93.0156C240.642 92.7939 241.105 92.6945 241.567 92.7174C242.031 92.7462 242.449 92.8861 242.821 93.137C243.195 93.3939 243.487 93.7419 243.697 94.1808C243.908 94.6198 243.994 95.0626 243.956 95.5092C243.919 95.9559 243.764 96.3662 243.492 96.7402C243.227 97.1114 242.859 97.4092 242.39 97.6337L242.187 97.7197ZM243.147 94.4442C242.928 93.9872 242.597 93.6729 242.153 93.5013C241.717 93.3327 241.255 93.3397 240.766 93.5221L242.376 96.8865C242.825 96.6199 243.119 96.2612 243.258 95.8103C243.406 95.3626 243.369 94.9072 243.147 94.4442ZM246.45 99.9311C246.735 100.526 246.787 101.082 246.605 101.598C246.432 102.117 246.015 102.534 245.353 102.851L242.602 104.168L242.296 103.527L244.983 102.241C245.477 102.005 245.793 101.702 245.934 101.331C246.074 100.961 246.035 100.547 245.817 100.09C245.572 99.5791 245.224 99.2466 244.774 99.0927C244.332 98.942 243.844 98.9947 243.308 99.2509L240.819 100.443L240.512 99.8022L245.257 97.5311L245.55 98.1444L244.675 98.5632C245.048 98.5995 245.385 98.7335 245.688 98.9653C246 99.2003 246.254 99.5222 246.45 99.9311ZM249.242 105.765C249.527 106.36 249.579 106.916 249.397 107.431C249.224 107.95 248.807 108.368 248.146 108.685L245.395 110.001L245.088 109.361L247.776 108.074C248.269 107.838 248.586 107.535 248.726 107.165C248.867 106.795 248.828 106.381 248.609 105.924C248.364 105.413 248.017 105.08 247.566 104.926C247.124 104.776 246.636 104.828 246.101 105.085L243.611 106.276L243.305 105.636L248.049 103.365L248.343 103.978L247.468 104.397C247.84 104.433 248.178 104.567 248.481 104.799C248.793 105.034 249.047 105.356 249.242 105.765ZM251.672 110.841C251.969 111.46 252.04 112.01 251.885 112.49C251.737 112.968 251.359 113.352 250.752 113.643L247.811 115.05L247.518 114.437L248.257 114.083C247.942 114.057 247.647 113.935 247.374 113.719C247.103 113.508 246.875 113.211 246.691 112.826C246.438 112.297 246.363 111.815 246.466 111.382C246.568 110.948 246.827 110.632 247.242 110.434C247.645 110.241 248.039 110.23 248.424 110.4C248.811 110.577 249.158 110.984 249.463 111.621L250.184 113.128L250.472 112.989C250.881 112.794 251.136 112.531 251.237 112.202C251.345 111.87 251.293 111.484 251.083 111.045C250.939 110.745 250.75 110.48 250.515 110.253C250.286 110.022 250.037 109.85 249.768 109.735L250.108 109.217C250.428 109.36 250.722 109.574 250.991 109.858C251.267 110.141 251.494 110.468 251.672 110.841ZM247.244 112.683C247.417 113.044 247.646 113.315 247.932 113.496C248.224 113.674 248.557 113.751 248.93 113.728L249.706 113.356L248.993 111.868C248.605 111.056 248.128 110.786 247.563 111.056C247.286 111.189 247.117 111.399 247.055 111.687C247 111.973 247.063 112.305 247.244 112.683Z" fill="#212121"/>
<path d="M249.744 171.59C249.456 172.184 249.06 172.566 248.555 172.737C248.048 172.913 247.461 172.84 246.795 172.517L244.05 171.187L244.36 170.548L247.042 171.848C247.534 172.086 247.967 172.148 248.341 172.033C248.712 171.924 249.003 171.653 249.212 171.221C249.45 170.729 249.485 170.268 249.315 169.838C249.152 169.411 248.803 169.068 248.269 168.809L245.786 167.605L246.095 166.967L248.777 168.266C249.269 168.504 249.702 168.566 250.076 168.451C250.448 168.342 250.739 168.068 250.952 167.63C251.187 167.144 251.222 166.683 251.055 166.247C250.892 165.82 250.543 165.477 250.009 165.218L247.525 164.015L247.835 163.376L252.569 165.669L252.272 166.281L251.408 165.863C251.615 166.17 251.723 166.512 251.734 166.887C251.745 167.263 251.655 167.646 251.467 168.035C251.275 168.431 251.025 168.733 250.717 168.939C250.407 169.152 250.052 169.25 249.652 169.234C249.88 169.56 250.002 169.926 250.019 170.335C250.039 170.752 249.948 171.17 249.744 171.59ZM246.008 179.209L241.275 176.916L241.571 176.304L242.435 176.722C242.229 176.415 242.116 176.075 242.096 175.702C242.082 175.333 242.167 174.959 242.35 174.581C242.65 173.963 243.058 173.557 243.574 173.363C244.093 173.177 244.686 173.246 245.352 173.569L248.097 174.899L247.787 175.537L245.106 174.238C244.608 173.997 244.17 173.937 243.793 174.058C243.416 174.179 243.117 174.467 242.896 174.923C242.655 175.421 242.614 175.887 242.775 176.32C242.941 176.756 243.294 177.105 243.834 177.367L246.318 178.57L246.008 179.209ZM239.452 182.031L238.921 181.774L240.787 177.922L241.21 178.127L243.538 182.933L244.955 180.008L245.495 180.27L243.681 184.014L243.258 183.809L240.921 178.999L239.452 182.031ZM241.291 188.945L237.138 184.01C236.787 183.603 236.579 183.228 236.515 182.886C236.451 182.544 236.505 182.196 236.677 181.842C236.787 181.614 236.926 181.419 237.094 181.256C237.262 181.092 237.453 180.974 237.667 180.9L238 181.428C237.644 181.551 237.384 181.781 237.221 182.117C237.117 182.333 237.088 182.545 237.135 182.753C237.18 182.967 237.314 183.21 237.538 183.482L237.897 183.911L243.646 184.085L243.323 184.751L238.437 184.584L241.597 188.315L241.291 188.945ZM235.321 189.09C235.548 188.622 235.853 188.251 236.237 187.978C236.619 187.711 237.043 187.561 237.511 187.528C237.985 187.499 238.452 187.596 238.914 187.819C239.376 188.043 239.74 188.349 240.004 188.736C240.268 189.123 240.413 189.549 240.44 190.014C240.464 190.485 240.362 190.954 240.136 191.422C239.938 191.83 239.681 192.154 239.365 192.394C239.052 192.642 238.698 192.785 238.302 192.823L238.209 192.189C238.518 192.146 238.788 192.033 239.018 191.848C239.255 191.666 239.441 191.434 239.578 191.152C239.743 190.81 239.815 190.463 239.793 190.112C239.774 189.769 239.661 189.451 239.454 189.159C239.245 188.872 238.96 188.642 238.601 188.467C238.235 188.29 237.874 188.208 237.52 188.221C237.168 188.244 236.849 188.352 236.562 188.546C236.278 188.75 236.054 189.022 235.888 189.364C235.751 189.646 235.682 189.935 235.68 190.23C235.677 190.525 235.755 190.808 235.914 191.077L235.359 191.397C235.143 191.063 235.032 190.694 235.027 190.292C235.028 189.892 235.126 189.492 235.321 189.09ZM232.938 195.476L232.407 195.219L234.273 191.367L234.696 191.572L237.024 196.378L238.441 193.453L238.981 193.715L237.167 197.458L236.744 197.254L234.407 192.443L232.938 195.476ZM235.53 200.929C235.242 201.523 234.84 201.91 234.323 202.089C233.81 202.278 233.223 202.212 232.563 201.892L229.818 200.562L230.128 199.923L232.809 201.223C233.301 201.461 233.736 201.52 234.113 201.399C234.49 201.278 234.789 200.989 235.01 200.533C235.257 200.023 235.301 199.544 235.14 199.096C234.982 198.657 234.637 198.308 234.103 198.049L231.619 196.846L231.928 196.207L236.662 198.5L236.366 199.112L235.493 198.689C235.696 199.003 235.802 199.35 235.81 199.732C235.821 200.122 235.727 200.521 235.53 200.929ZM233.076 205.994C232.776 206.612 232.391 207.01 231.919 207.189C231.453 207.371 230.917 207.315 230.311 207.021L227.377 205.6L227.674 204.988L228.412 205.345C228.236 205.082 228.147 204.776 228.146 204.427C228.141 204.085 228.232 203.721 228.418 203.337C228.674 202.809 229.003 202.45 229.407 202.26C229.81 202.071 230.218 202.076 230.632 202.276C231.034 202.471 231.288 202.772 231.395 203.179C231.498 203.592 231.396 204.117 231.088 204.753L230.36 206.256L230.648 206.395C231.056 206.593 231.42 206.629 231.74 206.502C232.067 206.379 232.336 206.098 232.548 205.661C232.694 205.361 232.782 205.048 232.814 204.722C232.852 204.4 232.832 204.098 232.753 203.815L233.37 203.758C233.458 204.097 233.474 204.461 233.419 204.849C233.371 205.24 233.256 205.622 233.076 205.994ZM228.874 203.68C228.7 204.04 228.631 204.389 228.668 204.725C228.711 205.064 228.858 205.373 229.109 205.65L229.883 206.025L230.602 204.54C230.995 203.73 230.909 203.188 230.345 202.915C230.069 202.781 229.799 202.78 229.535 202.912C229.278 203.046 229.057 203.302 228.874 203.68Z" fill="#212121"/>
<path d="M124.172 257.335L124.864 257.179L126.023 262.31L125.33 262.466L124.172 257.335ZM124.27 256.134C124.127 256.166 123.995 256.145 123.876 256.069C123.756 255.994 123.681 255.888 123.65 255.751C123.621 255.621 123.644 255.496 123.72 255.377C123.795 255.257 123.904 255.181 124.047 255.149C124.191 255.117 124.322 255.138 124.441 255.214C124.559 255.283 124.633 255.382 124.663 255.512C124.695 255.655 124.673 255.787 124.598 255.906C124.522 256.026 124.413 256.102 124.27 256.134ZM129.104 256.181C129.748 256.035 130.301 256.109 130.763 256.401C131.231 256.685 131.545 257.185 131.707 257.9L132.378 260.875L131.686 261.031L131.03 258.125C130.909 257.591 130.684 257.215 130.354 256.996C130.025 256.776 129.613 256.722 129.118 256.834C128.566 256.958 128.164 257.223 127.914 257.628C127.669 258.025 127.611 258.513 127.742 259.092L128.35 261.784L127.657 261.941L126.499 256.81L127.162 256.66L127.376 257.606C127.494 257.252 127.7 256.952 127.993 256.708C128.292 256.456 128.662 256.281 129.104 256.181ZM136.597 259.595C136.494 259.741 136.352 259.869 136.171 259.978C135.996 260.079 135.804 260.153 135.596 260.2C135.115 260.309 134.715 260.262 134.396 260.061C134.077 259.859 133.864 259.521 133.757 259.047L133.057 255.945L132.14 256.152L132.008 255.566L132.925 255.359L132.672 254.238L133.364 254.081L133.617 255.203L135.178 254.851L135.31 255.436L133.749 255.788L134.441 258.851C134.51 259.157 134.637 259.374 134.824 259.503C135.015 259.624 135.254 259.652 135.54 259.587C135.683 259.555 135.814 259.501 135.934 259.427C136.06 259.35 136.163 259.259 136.241 259.152L136.597 259.595ZM141.392 256.37L137.1 257.339C137.259 257.863 137.562 258.249 138.007 258.497C138.451 258.739 138.956 258.796 139.522 258.668C139.841 258.596 140.121 258.475 140.363 258.304C140.603 258.127 140.796 257.906 140.941 257.64L141.432 258.001C141.266 258.326 141.027 258.598 140.715 258.819C140.409 259.038 140.051 259.194 139.641 259.287C139.115 259.406 138.621 259.401 138.162 259.272C137.707 259.136 137.321 258.895 137.004 258.549C136.687 258.204 136.472 257.781 136.359 257.28C136.246 256.78 136.252 256.307 136.377 255.862C136.509 255.415 136.738 255.039 137.065 254.732C137.399 254.425 137.803 254.217 138.278 254.11C138.753 254.003 139.204 254.017 139.631 254.153C140.058 254.289 140.423 254.531 140.728 254.88C141.03 255.221 141.239 255.646 141.353 256.153L141.392 256.37ZM138.412 254.705C137.918 254.817 137.538 255.07 137.272 255.465C137.01 255.852 136.914 256.304 136.983 256.822L140.622 256C140.462 255.503 140.177 255.137 139.769 254.901C139.365 254.657 138.913 254.592 138.412 254.705ZM142.781 254.19C142.866 253.809 143.048 253.495 143.327 253.247C143.613 252.998 143.993 252.82 144.467 252.713L144.619 253.386L144.451 253.414C143.912 253.535 143.526 253.797 143.296 254.197C143.065 254.598 143.017 255.097 143.152 255.696L143.742 258.31L143.049 258.466L141.891 253.335L142.555 253.186L142.781 254.19ZM148.072 251.899C148.554 251.791 149.014 251.803 149.454 251.936C149.893 252.062 150.268 252.299 150.578 252.646C150.889 252.993 151.101 253.42 151.216 253.927C151.332 254.441 151.324 254.921 151.193 255.367C151.061 255.814 150.825 256.192 150.485 256.501C150.15 256.802 149.738 257.008 149.25 257.118C148.834 257.212 148.438 257.212 148.062 257.12C147.69 257.019 147.36 256.827 147.07 256.544L147.716 259.402L147.023 259.558L145.438 252.535L146.101 252.385L146.33 253.4C146.462 253.015 146.676 252.693 146.973 252.434C147.277 252.174 147.643 251.996 148.072 251.899ZM149.063 256.514C149.42 256.434 149.727 256.279 149.983 256.05C150.238 255.815 150.412 255.526 150.505 255.184C150.605 254.84 150.611 254.473 150.523 254.083C150.435 253.693 150.273 253.367 150.036 253.106C149.805 252.837 149.524 252.651 149.193 252.548C148.862 252.445 148.518 252.434 148.16 252.515C147.796 252.597 147.487 252.756 147.232 252.991C146.984 253.225 146.81 253.513 146.71 253.857C146.615 254.193 146.611 254.556 146.7 254.946C146.788 255.336 146.947 255.666 147.179 255.935C147.417 256.202 147.698 256.388 148.023 256.493C148.352 256.589 148.699 256.597 149.063 256.514ZM156.851 252.88L152.559 253.849C152.719 254.374 153.021 254.76 153.467 255.008C153.911 255.249 154.415 255.306 154.981 255.178C155.3 255.106 155.58 254.985 155.822 254.814C156.062 254.637 156.255 254.416 156.4 254.151L156.891 254.511C156.725 254.836 156.486 255.109 156.174 255.33C155.868 255.549 155.51 255.705 155.1 255.797C154.574 255.916 154.081 255.911 153.621 255.783C153.166 255.646 152.781 255.405 152.463 255.06C152.146 254.715 151.931 254.292 151.818 253.791C151.705 253.29 151.711 252.817 151.836 252.372C151.968 251.925 152.197 251.549 152.524 251.243C152.858 250.935 153.262 250.728 153.737 250.62C154.212 250.513 154.663 250.528 155.09 250.664C155.517 250.8 155.883 251.042 156.187 251.39C156.489 251.732 156.698 252.156 156.812 252.663L156.851 252.88ZM153.871 251.216C153.377 251.327 152.997 251.58 152.731 251.975C152.47 252.362 152.373 252.815 152.442 253.332L156.081 252.511C155.921 252.014 155.637 251.647 155.228 251.412C154.824 251.168 154.372 251.102 153.871 251.216ZM158.241 250.701C158.325 250.32 158.507 250.005 158.786 249.758C159.072 249.509 159.452 249.331 159.927 249.223L160.078 249.896L159.91 249.924C159.371 250.046 158.985 250.307 158.755 250.708C158.524 251.108 158.476 251.608 158.611 252.206L159.201 254.82L158.509 254.977L157.35 249.846L158.014 249.696L158.241 250.701ZM163.479 253.906C163.063 254 162.65 254.032 162.24 254.001C161.835 253.963 161.505 253.877 161.249 253.743L161.438 253.126C161.69 253.247 161.992 253.326 162.342 253.363C162.691 253.394 163.041 253.369 163.392 253.29C163.86 253.185 164.188 253.035 164.377 252.842C164.571 252.641 164.638 252.407 164.578 252.141C164.535 251.952 164.44 251.82 164.293 251.744C164.145 251.661 163.97 251.615 163.77 251.606C163.568 251.59 163.305 251.591 162.981 251.609C162.548 251.625 162.195 251.623 161.924 251.602C161.651 251.575 161.402 251.484 161.176 251.33C160.956 251.175 160.807 250.925 160.73 250.58C160.633 250.151 160.732 249.759 161.028 249.405C161.324 249.051 161.791 248.803 162.428 248.659C162.76 248.584 163.102 248.554 163.454 248.571C163.805 248.58 164.104 248.632 164.35 248.727L164.174 249.351C163.685 249.154 163.148 249.122 162.563 249.254C162.12 249.354 161.803 249.507 161.611 249.715C161.425 249.921 161.36 250.15 161.418 250.404C161.462 250.599 161.559 250.741 161.709 250.83C161.865 250.918 162.044 250.97 162.246 250.986C162.447 250.995 162.719 250.992 163.064 250.976C163.491 250.961 163.837 250.965 164.102 250.987C164.367 251.01 164.608 251.095 164.826 251.244C165.045 251.393 165.191 251.633 165.266 251.965C165.367 252.414 165.259 252.814 164.942 253.166C164.63 253.51 164.143 253.756 163.479 253.906ZM168.681 252.732C168.187 252.843 167.716 252.833 167.27 252.702C166.822 252.564 166.439 252.322 166.122 251.977C165.805 251.631 165.59 251.208 165.477 250.708C165.364 250.207 165.376 249.733 165.514 249.285C165.652 248.836 165.895 248.457 166.242 248.146C166.588 247.836 167.009 247.625 167.503 247.513C167.997 247.402 168.468 247.412 168.914 247.543C169.361 247.675 169.74 247.914 170.05 248.261C170.367 248.606 170.582 249.029 170.695 249.53C170.809 250.03 170.796 250.505 170.658 250.953C170.526 251.399 170.288 251.781 169.943 252.099C169.596 252.409 169.175 252.62 168.681 252.732ZM168.542 252.117C168.907 252.035 169.213 251.88 169.463 251.653C169.717 251.418 169.891 251.129 169.985 250.787C170.078 250.445 170.081 250.078 169.993 249.688C169.905 249.298 169.745 248.968 169.514 248.7C169.282 248.431 169.002 248.248 168.672 248.151C168.348 248.047 168.004 248.036 167.64 248.118C167.275 248.2 166.966 248.359 166.712 248.594C166.462 248.821 166.287 249.107 166.187 249.45C166.094 249.793 166.091 250.159 166.179 250.549C166.267 250.939 166.427 251.269 166.659 251.538C166.897 251.805 167.178 251.991 167.502 252.096C167.831 252.192 168.178 252.199 168.542 252.117ZM173.843 246.082C174.487 245.937 175.04 246.01 175.502 246.302C175.97 246.586 176.284 247.086 176.446 247.801L177.117 250.776L176.425 250.933L175.768 248.026C175.648 247.493 175.423 247.116 175.093 246.897C174.763 246.677 174.351 246.623 173.857 246.735C173.304 246.86 172.903 247.125 172.653 247.53C172.407 247.927 172.35 248.415 172.481 248.993L173.088 251.686L172.396 251.842L171.238 246.711L171.901 246.561L172.115 247.508C172.233 247.153 172.439 246.854 172.732 246.61C173.031 246.358 173.401 246.182 173.843 246.082ZM179.333 244.843C180.002 244.692 180.554 244.745 180.988 245.002C181.421 245.253 181.711 245.707 181.86 246.364L182.577 249.544L181.914 249.694L181.733 248.894C181.638 249.196 181.454 249.456 181.182 249.674C180.916 249.891 180.576 250.047 180.159 250.141C179.587 250.27 179.101 250.236 178.701 250.039C178.302 249.843 178.051 249.52 177.95 249.071C177.851 248.635 177.928 248.249 178.18 247.912C178.439 247.573 178.912 247.326 179.602 247.171L181.231 246.803L181.16 246.491C181.061 246.049 180.861 245.742 180.563 245.57C180.263 245.392 179.876 245.356 179.401 245.463C179.076 245.536 178.776 245.662 178.502 245.84C178.226 246.012 178.002 246.216 177.83 246.453L177.401 246.007C177.612 245.727 177.886 245.487 178.223 245.288C178.56 245.082 178.929 244.934 179.333 244.843ZM180.143 249.57C180.534 249.482 180.849 249.319 181.089 249.08C181.327 248.835 181.477 248.528 181.537 248.159L181.347 247.32L179.738 247.683C178.86 247.882 178.49 248.286 178.628 248.898C178.696 249.197 178.863 249.408 179.13 249.533C179.396 249.65 179.734 249.663 180.143 249.57ZM182.532 241.947L183.225 241.791L184.858 249.029L184.166 249.185L182.532 241.947ZM187.94 242.9C188.584 242.755 189.137 242.828 189.599 243.12C190.067 243.404 190.381 243.904 190.542 244.619L191.214 247.594L190.521 247.751L189.865 244.844C189.745 244.311 189.52 243.934 189.19 243.715C188.86 243.495 188.448 243.441 187.954 243.553C187.401 243.678 187 243.943 186.75 244.348C186.504 244.745 186.447 245.233 186.578 245.811L187.185 248.504L186.493 248.66L185.335 243.529L185.998 243.379L186.212 244.326C186.33 243.971 186.535 243.672 186.829 243.428C187.127 243.176 187.498 243 187.94 242.9ZM193.43 241.661C194.099 241.51 194.651 241.563 195.085 241.82C195.518 242.071 195.808 242.525 195.956 243.182L196.674 246.362L196.011 246.512L195.83 245.712C195.734 246.013 195.551 246.274 195.279 246.492C195.013 246.709 194.673 246.865 194.256 246.959C193.684 247.088 193.198 247.054 192.798 246.857C192.398 246.661 192.148 246.338 192.047 245.889C191.948 245.453 192.025 245.067 192.277 244.73C192.535 244.391 193.009 244.144 193.699 243.989L195.328 243.621L195.257 243.309C195.157 242.867 194.958 242.56 194.66 242.388C194.36 242.209 193.972 242.174 193.498 242.281C193.173 242.354 192.873 242.48 192.599 242.658C192.323 242.83 192.099 243.034 191.927 243.271L191.498 242.825C191.709 242.545 191.983 242.305 192.32 242.106C192.657 241.9 193.026 241.752 193.43 241.661ZM194.24 246.388C194.631 246.3 194.946 246.137 195.186 245.898C195.424 245.653 195.574 245.346 195.634 244.977L195.444 244.138L193.835 244.501C192.957 244.699 192.587 245.104 192.725 245.715C192.793 246.015 192.96 246.226 193.227 246.351C193.493 246.468 193.831 246.481 194.24 246.388Z" fill="#212121"/>
<path d="M32.489 202.497L33.0431 202.942L29.7536 207.046L29.1996 206.602L32.489 202.497ZM33.4891 201.825C33.3747 201.734 33.3097 201.617 33.2942 201.477C33.2787 201.336 33.3148 201.211 33.4023 201.102C33.4857 200.998 33.5977 200.938 33.7383 200.923C33.8788 200.907 34.0063 200.945 34.1208 201.037C34.2352 201.129 34.3002 201.245 34.3157 201.386C34.3354 201.521 34.3035 201.641 34.2201 201.745C34.1284 201.859 34.0122 201.924 33.8717 201.94C33.7311 201.955 33.6036 201.917 33.4891 201.825ZM36.4668 205.634C36.9818 206.047 37.2693 206.525 37.3292 207.069C37.3985 207.611 37.2038 208.168 36.7452 208.741L34.8378 211.121L34.2838 210.677L36.1474 208.351C36.4893 207.925 36.6432 207.514 36.6092 207.119C36.5752 206.725 36.3605 206.369 35.9651 206.052C35.523 205.698 35.0655 205.549 34.5928 205.606C34.1294 205.662 33.7122 205.921 33.3411 206.384L31.6151 208.538L31.061 208.094L34.3505 203.989L34.8812 204.415L34.2745 205.172C34.6255 205.043 34.9879 205.017 35.3616 205.094C35.7447 205.171 36.1131 205.351 36.4668 205.634ZM38.4694 213.621C38.2904 213.631 38.1019 213.6 37.9042 213.527C37.7158 213.453 37.5384 213.349 37.3719 213.216C36.9869 212.907 36.7738 212.565 36.7325 212.191C36.6912 211.816 36.8227 211.438 37.127 211.059L39.1157 208.577L38.3822 207.989L38.7575 207.521L39.491 208.109L40.2102 207.212L40.7642 207.656L40.045 208.553L41.2935 209.554L40.9183 210.022L39.6698 209.021L37.7061 211.472C37.5101 211.716 37.4199 211.951 37.4353 212.177C37.4601 212.402 37.5869 212.606 37.8158 212.79C37.9303 212.881 38.0541 212.951 38.1873 212.998C38.3257 213.049 38.4611 213.072 38.5933 213.067L38.4694 213.621ZM42.2198 211.616C42.5708 211.445 42.93 211.391 43.2975 211.455C43.6702 211.523 44.0464 211.709 44.4262 212.013L43.9946 212.551L43.8682 212.437C43.4365 212.091 42.992 211.953 42.5349 212.022C42.0778 212.092 41.6574 212.366 41.2738 212.844L39.5978 214.936L39.0438 214.492L42.3333 210.387L42.8639 210.812L42.2198 211.616ZM46.6234 213.774C47.1592 214.203 47.4618 214.668 47.5311 215.168C47.6046 215.662 47.4308 216.173 47.0097 216.698L44.9709 219.242L44.4403 218.817L44.9531 218.177C44.6573 218.29 44.3393 218.308 43.9989 218.232C43.6637 218.16 43.3296 217.99 42.9967 217.724C42.5389 217.357 42.2623 216.956 42.1669 216.52C42.0715 216.085 42.1676 215.688 42.4553 215.329C42.7346 214.98 43.0846 214.8 43.5053 214.786C43.9311 214.777 44.4197 214.994 44.9712 215.436L46.2743 216.48L46.4744 216.23C46.7579 215.877 46.8738 215.53 46.822 215.189C46.7744 214.843 46.5608 214.518 46.181 214.214C45.9209 214.006 45.6358 213.85 45.3256 213.746C45.0196 213.638 44.7203 213.59 44.4277 213.603L44.5095 212.99C44.8593 212.98 45.2174 213.044 45.5838 213.184C45.9543 213.319 46.3008 213.516 46.6234 213.774ZM43.4327 217.355C43.7449 217.606 44.069 217.75 44.4053 217.789C44.7457 217.822 45.079 217.748 45.405 217.565L45.9428 216.894L44.6553 215.862C43.953 215.299 43.4059 215.262 43.014 215.751C42.8222 215.99 42.7611 216.253 42.8306 216.54C42.9043 216.821 43.105 217.093 43.4327 217.355ZM51.6708 217.819C52.0558 218.128 52.3335 218.496 52.5038 218.923C52.6784 219.344 52.7269 219.785 52.6495 220.244C52.572 220.703 52.3707 221.135 52.0455 221.541C51.7161 221.952 51.3359 222.245 50.9047 222.421C50.4735 222.597 50.0309 222.648 49.5771 222.574C49.1325 222.5 48.7152 222.307 48.3251 221.994C47.9921 221.727 47.7446 221.418 47.5825 221.066C47.4297 220.713 47.3738 220.335 47.4148 219.932L45.5824 222.218L45.0284 221.774L49.5311 216.156L50.0618 216.581L49.4114 217.392C49.7946 217.255 50.1799 217.222 50.5671 217.294C50.9596 217.369 51.3275 217.544 51.6708 217.819ZM48.68 221.471C48.9661 221.7 49.2784 221.844 49.6167 221.901C49.9592 221.954 50.2934 221.91 50.6194 221.77C50.9507 221.633 51.2413 221.409 51.4915 221.097C51.7416 220.785 51.895 220.455 51.9515 220.107C52.0174 219.759 51.9875 219.423 51.8618 219.1C51.7361 218.777 51.5302 218.501 51.2441 218.272C50.9528 218.038 50.6359 217.895 50.2934 217.843C49.9561 217.795 49.6218 217.839 49.2906 217.975C48.9688 218.11 48.6828 218.334 48.4326 218.646C48.1825 218.958 48.0244 219.288 47.9585 219.637C47.8979 219.99 47.9278 220.326 48.0482 220.644C48.1781 220.962 48.3887 221.238 48.68 221.471ZM56.3771 225.295L52.9437 222.543C52.633 222.995 52.5196 223.472 52.6035 223.975C52.6916 224.473 52.9619 224.903 53.4145 225.265C53.6694 225.47 53.9389 225.613 54.2231 225.696C54.5114 225.773 54.8045 225.786 55.1023 225.734L55.1268 226.343C54.7696 226.416 54.4073 226.399 54.0399 226.292C53.6776 226.19 53.3326 226.007 53.0049 225.745C52.5835 225.407 52.2799 225.018 52.0939 224.579C51.9173 224.138 51.8651 223.686 51.9373 223.223C52.0096 222.76 52.2062 222.328 52.5272 221.927C52.8483 221.527 53.2218 221.237 53.6478 221.057C54.079 220.881 54.5163 220.826 54.9598 220.891C55.4085 220.96 55.8227 221.147 56.2024 221.451C56.5822 221.755 56.852 222.117 57.012 222.536C57.172 222.954 57.2106 223.391 57.128 223.846C57.0495 224.296 56.8477 224.723 56.5225 225.129L56.3771 225.295ZM55.8209 221.927C55.4256 221.61 54.9905 221.471 54.5157 221.509C54.0503 221.546 53.6367 221.753 53.2751 222.129L56.1857 224.462C56.4745 224.027 56.5837 223.576 56.5133 223.11C56.4523 222.642 56.2215 222.248 55.8209 221.927ZM58.9473 225.022C59.2983 224.851 59.6576 224.797 60.025 224.861C60.3977 224.929 60.7739 225.115 61.1537 225.419L60.7222 225.958L60.5958 225.843C60.164 225.497 59.7195 225.359 59.2624 225.428C58.8053 225.498 58.3849 225.772 58.0014 226.25L56.3254 228.342L55.7713 227.898L59.0608 223.793L59.5914 224.218L58.9473 225.022ZM59.7077 231.116C59.3747 230.85 59.0923 230.546 58.8605 230.207C58.6379 229.866 58.4992 229.554 58.4443 229.271L59.0442 229.034C59.1075 229.307 59.2337 229.592 59.423 229.889C59.6164 230.18 59.8535 230.439 60.1344 230.664C60.509 230.964 60.8306 231.128 61.0992 231.155C61.3771 231.181 61.6016 231.088 61.7725 230.875C61.8934 230.724 61.9378 230.567 61.9057 230.405C61.8777 230.237 61.805 230.072 61.6875 229.909C61.5741 229.742 61.4093 229.537 61.1929 229.295C60.91 228.966 60.6921 228.689 60.5393 228.464C60.3906 228.234 60.306 227.982 60.2854 227.709C60.27 227.441 60.3728 227.168 60.5938 226.893C60.8689 226.549 61.2371 226.383 61.6984 226.394C62.1596 226.405 62.6451 226.614 63.1549 227.023C63.4202 227.236 63.6563 227.485 63.8633 227.77C64.0744 228.05 64.2199 228.317 64.2999 228.569L63.7015 228.819C63.551 228.314 63.2416 227.874 62.7734 227.499C62.4197 227.215 62.1017 227.063 61.8196 227.042C61.5427 227.025 61.3229 227.118 61.1603 227.321C61.0352 227.477 60.9846 227.642 61.0084 227.814C61.0374 227.992 61.1085 228.164 61.2219 228.332C61.3394 228.494 61.512 228.705 61.7398 228.965C62.0175 229.29 62.2302 229.563 62.3779 229.783C62.5255 230.004 62.6091 230.246 62.6287 230.51C62.6482 230.773 62.5517 231.038 62.339 231.303C62.0514 231.662 61.6712 231.827 61.1985 231.799C60.7353 231.769 60.2383 231.542 59.7077 231.116ZM63.8688 234.451C63.4734 234.134 63.188 233.76 63.0124 233.329C62.841 232.893 62.7914 232.443 62.8637 231.98C62.9359 231.516 63.1325 231.085 63.4536 230.684C63.7746 230.283 64.1533 229.997 64.5897 229.826C65.0261 229.655 65.4738 229.608 65.9329 229.685C66.392 229.763 66.8192 229.96 67.2146 230.277C67.6099 230.593 67.8954 230.967 68.071 231.399C68.2466 231.83 68.2956 232.275 68.2182 232.734C68.1459 233.197 67.9493 233.629 67.6283 234.03C67.3073 234.43 66.9285 234.716 66.4921 234.888C66.061 235.063 65.6137 235.115 65.1505 235.043C64.6914 234.965 64.2642 234.768 63.8688 234.451ZM64.2628 233.96C64.5541 234.193 64.8663 234.337 65.1995 234.39C65.542 234.442 65.8762 234.398 66.2022 234.258C66.5282 234.118 66.8163 233.892 67.0665 233.58C67.3166 233.267 67.4746 232.937 67.5405 232.588C67.6064 232.24 67.5744 231.906 67.4446 231.589C67.3241 231.27 67.1182 230.994 66.8269 230.76C66.5355 230.527 66.2186 230.384 65.8761 230.332C65.543 230.278 65.2108 230.32 64.8796 230.456C64.5536 230.596 64.2655 230.822 64.0154 231.134C63.7652 231.446 63.6072 231.777 63.5413 232.126C63.4806 232.478 63.5105 232.814 63.631 233.133C63.7609 233.451 63.9715 233.726 64.2628 233.96ZM72.2863 234.341C72.8013 234.754 73.0888 235.232 73.1487 235.776C73.218 236.318 73.0233 236.876 72.5647 237.448L70.6573 239.828L70.1033 239.384L71.9669 237.058C72.3088 236.632 72.4627 236.221 72.4287 235.827C72.3947 235.432 72.18 235.076 71.7846 234.759C71.3424 234.405 70.885 234.256 70.4122 234.313C69.9489 234.369 69.5317 234.628 69.1606 235.091L67.4346 237.245L66.8805 236.801L70.17 232.696L70.7007 233.122L70.094 233.879C70.445 233.75 70.8074 233.724 71.1811 233.801C71.5642 233.878 71.9326 234.058 72.2863 234.341ZM76.6776 237.861C77.2134 238.29 77.516 238.755 77.5853 239.254C77.6588 239.749 77.485 240.259 77.0639 240.785L75.0252 243.328L74.4946 242.903L75.0074 242.263C74.7116 242.376 74.3935 242.395 74.0531 242.319C73.7179 242.247 73.3839 242.077 73.0509 241.81C72.5931 241.443 72.3166 241.042 72.2211 240.607C72.1257 240.172 72.2219 239.775 72.5095 239.416C72.7889 239.067 73.1389 238.886 73.5595 238.873C73.9854 238.864 74.474 239.08 75.0254 239.522L76.3286 240.567L76.5287 240.317C76.8122 239.963 76.9281 239.616 76.8763 239.276C76.8287 238.93 76.615 238.605 76.2353 238.301C75.9752 238.092 75.69 237.936 75.3798 237.833C75.0738 237.724 74.7746 237.677 74.482 237.69L74.5637 237.076C74.9136 237.066 75.2717 237.131 75.638 237.271C76.0086 237.406 76.3551 237.602 76.6776 237.861ZM73.487 241.442C73.7991 241.692 74.1233 241.837 74.4596 241.875C74.8 241.909 75.1332 241.834 75.4593 241.651L75.9971 240.98L74.7096 239.949C74.0073 239.386 73.4602 239.349 73.0683 239.838C72.8765 240.077 72.8154 240.34 72.8849 240.626C72.9585 240.907 73.1592 241.179 73.487 241.442ZM80.9362 238.557L81.4902 239.001L76.8499 244.791L76.2959 244.347L80.9362 238.557ZM83.5632 243.379C84.0782 243.792 84.3656 244.27 84.4256 244.813C84.4948 245.356 84.3002 245.913 83.8416 246.485L81.9342 248.865L81.3801 248.421L83.2438 246.096C83.5856 245.67 83.7396 245.259 83.7055 244.864C83.6715 244.47 83.4568 244.114 83.0615 243.797C82.6193 243.443 82.1618 243.294 81.6891 243.351C81.2257 243.407 80.8085 243.666 80.4375 244.129L78.7114 246.283L78.1574 245.839L81.4469 241.734L81.9775 242.159L81.3709 242.916C81.7219 242.788 82.0842 242.762 82.4579 242.839C82.841 242.916 83.2094 243.095 83.5632 243.379ZM87.9545 246.898C88.4903 247.328 88.7929 247.792 88.8622 248.292C88.9357 248.787 88.7619 249.297 88.3408 249.822L86.3021 252.366L85.7715 251.941L86.2843 251.301C85.9885 251.414 85.6704 251.433 85.33 251.356C84.9948 251.284 84.6607 251.115 84.3278 250.848C83.87 250.481 83.5934 250.08 83.498 249.645C83.4026 249.209 83.4987 248.812 83.7864 248.453C84.0657 248.105 84.4157 247.924 84.8364 247.911C85.2622 247.902 85.7509 248.118 86.3023 248.56L87.6054 249.605L87.8055 249.355C88.089 249.001 88.2049 248.654 88.1532 248.313C88.1056 247.968 87.8919 247.643 87.5121 247.338C87.252 247.13 86.9669 246.974 86.6567 246.871C86.3507 246.762 86.0514 246.714 85.7588 246.728L85.8406 246.114C86.1904 246.104 86.5485 246.169 86.9149 246.309C87.2854 246.443 87.632 246.64 87.9545 246.898ZM84.7638 250.48C85.076 250.73 85.4002 250.874 85.7364 250.913C86.0769 250.947 86.4101 250.872 86.7361 250.689L87.274 250.018L85.9864 248.986C85.2841 248.423 84.737 248.386 84.3451 248.875C84.1534 249.115 84.0922 249.378 84.1617 249.664C84.2354 249.945 84.4361 250.217 84.7638 250.48Z" fill="#212121"/>
<path d="M32.4118 58.4884L32.968 58.0471L37.58 63.8597L37.0238 64.301L32.4118 58.4884ZM35.6231 58.6977L36.1793 58.2564L39.4487 62.377L38.8925 62.8183L35.6231 58.6977ZM35.1904 57.5731C35.0755 57.6643 34.9478 57.7018 34.8073 57.6856C34.6668 57.6694 34.553 57.6065 34.466 57.4968C34.3831 57.3924 34.3498 57.2699 34.366 57.1294C34.3822 56.9889 34.4477 56.8731 34.5626 56.7819C34.6775 56.6907 34.8052 56.6533 34.9457 56.6694C35.082 56.6804 35.1916 56.7381 35.2745 56.8425C35.3657 56.9574 35.4032 57.0851 35.387 57.2256C35.3708 57.3661 35.3053 57.4819 35.1904 57.5731ZM39.5665 55.5179C40.0835 55.1077 40.6136 54.9338 41.1569 54.9964C41.7012 55.0496 42.2012 55.3634 42.6571 55.9379L44.5528 58.3272L43.9966 58.7685L42.1444 56.434C41.8046 56.0058 41.4385 55.7643 41.0462 55.7097C40.6539 55.655 40.2593 55.7851 39.8624 56.1C39.4185 56.4523 39.1717 56.8651 39.1219 57.3387C39.0732 57.8028 39.2332 58.2673 39.602 58.7321L41.3175 60.8942L40.7613 61.3355L37.4919 57.215L38.0246 56.7923L38.6275 57.5522C38.5801 57.1814 38.6356 56.8224 38.7943 56.4753C38.9539 56.1188 39.2113 55.7997 39.5665 55.5179ZM46.3887 50.1559L49.2603 53.775C49.8156 54.4749 50.0534 55.1286 49.974 55.7363C49.9038 56.3451 49.5241 56.923 48.8347 57.47C48.4535 57.7725 48.045 58.003 47.6091 58.1616C47.1826 58.3213 46.7836 58.3869 46.412 58.3583L46.3584 57.7115C46.6977 57.7316 47.0478 57.6794 47.4085 57.5549C47.7745 57.4262 48.1141 57.2375 48.4275 56.9889C48.9497 56.5745 49.2362 56.1472 49.2869 55.707C49.3418 55.2721 49.1661 54.7987 48.7601 54.2869L48.3436 53.762C48.3785 54.1599 48.3087 54.5386 48.1345 54.8981C47.9654 55.2535 47.7112 55.5659 47.3717 55.8352C46.9852 56.1419 46.5664 56.338 46.1152 56.4237C45.6652 56.4999 45.2286 56.4591 44.8054 56.3013C44.3834 56.134 44.019 55.8572 43.7124 55.4707C43.4058 55.0843 43.2211 54.6691 43.1583 54.2253C43.1008 53.7774 43.1624 53.3456 43.3431 52.9298C43.5238 52.5141 43.8101 52.1508 44.2017 51.8401C44.5517 51.5624 44.9236 51.3822 45.3174 51.2995C45.7113 51.2167 46.1001 51.2401 46.4838 51.3697L45.856 50.5785L46.3887 50.1559ZM47.0349 55.2982C47.3326 55.062 47.5519 54.7859 47.6926 54.47C47.8293 54.1488 47.8717 53.8215 47.82 53.4882C47.7734 53.1506 47.6341 52.8356 47.4021 52.5432C47.17 52.2507 46.897 52.0461 46.5831 51.9293C46.2702 51.8031 45.9439 51.7726 45.6042 51.8379C45.2656 51.8938 44.9449 52.0419 44.6419 52.2822C44.3443 52.5184 44.125 52.7945 43.9843 53.1104C43.8487 53.4223 43.8042 53.7469 43.8507 54.0844C43.9025 54.4178 44.0444 54.7307 44.2764 55.0232C44.5085 55.3157 44.781 55.525 45.0938 55.6512C45.4119 55.7732 45.7403 55.8063 46.0789 55.7504C46.4186 55.6851 46.7373 55.5344 47.0349 55.2982ZM53.7566 44.3098L55.4671 49.6673L54.9423 50.0837L50.963 47.7392L52.3415 52.1473L51.8166 52.5637L46.9962 49.6739L47.5289 49.2512L51.5998 51.7273L50.1453 47.1752L50.6232 46.7961L54.7176 49.2535L53.2475 44.7139L53.7566 44.3098ZM54.3591 43.8318L54.9153 43.3905L58.1847 47.511L57.6285 47.9523L54.3591 43.8318ZM53.9263 42.7072C53.8114 42.7984 53.6837 42.8358 53.5432 42.8197C53.4028 42.8035 53.289 42.7406 53.202 42.6309C53.1191 42.5264 53.0858 42.404 53.1019 42.2635C53.1181 42.123 53.1837 42.0072 53.2986 41.916C53.4134 41.8248 53.5411 41.7873 53.6816 41.8035C53.818 41.8145 53.9276 41.8722 54.0105 41.9766C54.1016 42.0915 54.1391 42.2192 54.1229 42.3597C54.1068 42.5002 54.0412 42.616 53.9263 42.7072ZM60.6329 45.6324C60.2987 45.8976 59.9402 46.1054 59.5575 46.2559C59.1758 46.397 58.8408 46.4628 58.5525 46.4533L58.4551 45.8157C58.7352 45.8148 59.041 45.7551 59.3725 45.6367C59.7 45.513 60.0047 45.3394 60.2867 45.1156C60.6627 44.8172 60.8939 44.5402 60.9803 44.2844C61.0678 44.0193 61.0266 43.7796 60.8567 43.5655C60.7365 43.414 60.5937 43.3359 60.4282 43.3311C60.2585 43.321 60.0814 43.3552 59.8968 43.4336C59.708 43.5067 59.4717 43.6219 59.1879 43.779C58.8039 43.9815 58.4853 44.1323 58.2319 44.2312C57.9743 44.3249 57.7103 44.3515 57.4397 44.3108C57.1744 44.266 56.9319 44.1052 56.7123 43.8284C56.4388 43.4837 56.3587 43.0878 56.4719 42.6405C56.5851 42.1933 56.8976 41.7666 57.4094 41.3605C57.6757 41.1492 57.9711 40.9744 58.2954 40.8362C58.6157 40.6928 58.9075 40.6101 59.171 40.5883L59.2825 41.2275C58.7565 41.2618 58.2586 41.4655 57.7885 41.8384C57.4334 42.1202 57.2142 42.3962 57.1308 42.6666C57.0527 42.9328 57.0945 43.1678 57.2561 43.3715C57.3804 43.5281 57.5295 43.6141 57.7033 43.6294C57.8823 43.6405 58.0662 43.6095 58.2549 43.5363C58.4395 43.4579 58.6837 43.3366 58.9873 43.1722C59.366 42.9739 59.6795 42.8273 59.9277 42.7325C60.1759 42.6377 60.4305 42.6101 60.6917 42.6497C60.9529 42.6892 61.1891 42.8422 61.4005 43.1085C61.6864 43.4689 61.7628 43.8763 61.6298 44.3307C61.4979 44.7758 61.1656 45.2097 60.6329 45.6324ZM65.066 41.6426C65.0361 41.8195 64.9636 41.9962 64.8483 42.1728C64.7342 42.3399 64.5935 42.4898 64.4264 42.6224C64.04 42.929 63.6594 43.0608 63.2848 43.0176C62.9101 42.9745 62.5715 42.7623 62.269 42.3811L60.2925 39.8899L59.5561 40.4742L59.1832 40.0042L59.9196 39.4199L59.2048 38.5191L59.761 38.0777L60.4757 38.9786L61.7291 37.9841L62.1021 38.4542L60.8487 39.4486L62.8004 41.9084C62.9951 42.1539 63.2044 42.2942 63.4281 42.3295C63.6529 42.3554 63.8801 42.2772 64.1099 42.0948C64.2248 42.0037 64.32 41.8984 64.3954 41.7789C64.4761 41.6554 64.5287 41.5286 64.5531 41.3985L65.066 41.6426ZM66.159 34.4693L67.7597 40.7181C67.8992 41.2371 67.9235 41.6646 67.8326 42.0005C67.7417 42.3365 67.5422 42.6267 67.2341 42.8712C67.0356 43.0286 66.8254 43.1444 66.6033 43.2185C66.3813 43.2925 66.1578 43.3166 65.933 43.2907L65.8621 42.6704C66.2368 42.7136 66.5703 42.6191 66.8628 42.3871C67.0508 42.2379 67.1686 42.0593 67.2163 41.8513C67.2692 41.6391 67.2537 41.3621 67.1697 41.0202L67.0329 40.4778L61.9288 37.8257L62.5085 37.3658L66.8379 39.6367L65.6106 34.9044L66.159 34.4693ZM71.6007 36.93C71.1934 37.2532 70.7574 37.4545 70.2927 37.5338C69.8332 37.6091 69.3857 37.5599 68.9502 37.3863C68.5105 37.2076 68.1311 36.9171 67.812 36.515C67.4929 36.1129 67.2984 35.68 67.2284 35.2164C67.1585 34.7528 67.2123 34.3058 67.39 33.8755C67.5729 33.441 67.868 33.0622 68.2754 32.739C68.6305 32.4572 69.0024 32.277 69.3911 32.1984C69.7808 32.1104 70.1623 32.1354 70.5355 32.2733L70.3441 32.8847C70.0467 32.7888 69.7542 32.7741 69.4666 32.8406C69.1748 32.9019 68.9062 33.0299 68.6607 33.2247C68.3631 33.4609 68.148 33.7422 68.0155 34.0686C67.8841 34.3856 67.8478 34.7207 67.9068 35.0739C67.971 35.4229 68.1274 35.7541 68.376 36.0675C68.6288 36.3861 68.9178 36.6163 69.2432 36.7581C69.5696 36.8906 69.9041 36.9315 70.2469 36.8809C70.5907 36.8208 70.9115 36.6727 71.2091 36.4365C71.4546 36.2417 71.6424 36.0119 71.7726 35.7469C71.9027 35.4819 71.9549 35.1937 71.9291 34.8823L72.568 34.8349C72.6175 35.2297 72.5571 35.6095 72.387 35.9743C72.2127 36.3338 71.9506 36.6524 71.6007 36.93ZM76.5194 32.2104L76.8861 32.6726L73.5333 35.3328L73.2411 34.9646L73.2298 29.625L70.6838 31.645L70.3109 31.175L73.5697 28.5893L73.8618 28.9575L73.8794 34.305L76.5194 32.2104ZM76.5509 26.1728C77.068 25.7626 77.5981 25.5888 78.1413 25.6513C78.6856 25.7045 79.1857 26.0184 79.6415 26.5928L81.5373 28.9821L80.9811 29.4234L79.1288 27.089C78.789 26.6607 78.423 26.4193 78.0307 26.3646C77.6384 26.3099 77.2438 26.44 76.8469 26.755C76.403 27.1072 76.1561 27.5201 76.1063 27.9936C76.0576 28.4578 76.2177 28.9222 76.5865 29.387L78.302 31.5491L77.7458 31.9904L74.4764 27.8699L75.0091 27.4473L75.612 28.2071C75.5645 27.8363 75.6201 27.4773 75.7787 27.1302C75.9384 26.7737 76.1958 26.4546 76.5509 26.1728ZM80.9594 22.6749C81.4973 22.2481 82.0176 22.0566 82.5203 22.1002C83.0189 22.1387 83.4774 22.4216 83.896 22.9491L85.9222 25.5029L85.3895 25.9255L84.8799 25.2832C84.9244 25.5967 84.8716 25.911 84.7215 26.2258C84.5765 26.5366 84.337 26.8245 84.0027 27.0897C83.5431 27.4544 83.0906 27.6348 82.645 27.6309C82.1993 27.627 81.8336 27.4449 81.5477 27.0846C81.27 26.7347 81.1716 26.3532 81.2524 25.9402C81.3384 25.523 81.6582 25.0948 82.2118 24.6556L83.52 23.6176L83.3211 23.3669C83.0393 23.0118 82.7267 22.8216 82.3832 22.7962C82.0356 22.7657 81.6712 22.9017 81.2899 23.2041C81.0288 23.4113 80.8134 23.6546 80.6436 23.934C80.4696 24.2082 80.3566 24.4894 80.3044 24.7776L79.7243 24.5613C79.7923 24.218 79.9353 23.8833 80.1531 23.5572C80.3668 23.226 80.6356 22.9319 80.9594 22.6749ZM83.7408 26.5827C84.0542 26.334 84.2672 26.0501 84.3799 25.731C84.4884 25.4065 84.4898 25.0651 84.384 24.7065L83.8494 24.0328L82.5569 25.0583C81.8518 25.6177 81.6941 26.1429 82.0836 26.6338C82.2742 26.874 82.5168 26.9921 82.8115 26.9881C83.102 26.9789 83.4118 26.8437 83.7408 26.5827Z" fill="#212121"/>
<g opacity="0.3">
<path d="M104.393 263.661C84.9132 259.218 66.6863 250.444 51.0659 237.991C35.4456 225.538 22.8331 209.726 14.1655 191.73L134 134.037L104.393 263.661Z" stroke="#212121"/>
<path d="M267 134.031C266.998 154.006 262.494 173.723 253.823 191.72C245.152 209.716 232.537 225.529 216.914 237.984L134 134.037L267 134.031Z" stroke="#212121"/>
<path d="M216.933 30.0835C232.554 42.5366 245.166 58.3482 253.834 76.3439C262.501 94.3397 267.002 114.057 267 134.031L134 134.037L216.933 30.0835Z" stroke="#212121"/>
<path d="M104.417 4.41486C123.897 -0.0306527 144.127 -0.0315286 163.606 4.41231C183.086 8.85613 201.313 17.6304 216.933 30.0835L134 134.037L104.417 4.41486Z" stroke="#212121"/>
<path d="M14.1763 76.3544C22.8472 58.3578 35.4626 42.5451 51.0852 30.0907C66.708 17.6364 84.9364 8.86044 104.417 4.41492L134 134.037L14.1763 76.3544Z" stroke="#212121"/>
<path d="M14.1653 191.73C5.49768 173.734 0.997649 154.017 0.999512 134.043C1.00137 114.069 5.50506 94.3508 14.176 76.3544L134 134.037L14.1653 191.73Z" stroke="#212121"/>
<path d="M216.914 237.984C201.291 250.438 183.063 259.213 163.583 263.659C144.103 268.104 123.871 268.105 104.392 263.661L134 134.037L216.914 237.984Z" stroke="#212121"/>
<path d="M133.991 213.829C178.049 213.824 213.769 178.096 213.775 134.029C213.78 89.9617 178.069 54.243 134.011 54.2487C89.9533 54.2543 54.2327 89.9822 54.2271 134.049C54.2214 178.116 89.9328 213.835 133.991 213.829Z" stroke="#212121"/>
<path d="M133.988 240.426C192.732 240.419 240.359 192.781 240.367 134.025C240.374 75.2692 192.759 27.6442 134.016 27.6517C75.272 27.6593 27.6448 75.2966 27.6372 134.053C27.6297 192.809 75.2447 240.434 133.988 240.426Z" stroke="#212121"/>
<path opacity="0.5" d="M133.981 267.022C207.411 267.012 266.946 207.464 266.957 134.019C266.967 60.5736 207.449 1.04305 134.019 1.05358C60.5888 1.0641 1.05348 60.6117 1.04296 134.057C1.03244 207.502 60.5507 267.033 133.981 267.022Z" stroke="#212121"/>
<path d="M133.995 187.232C163.367 187.229 187.181 163.41 187.185 134.032C187.188 104.654 163.381 80.8417 134.009 80.8455C104.637 80.8492 80.8231 104.668 80.8193 134.046C80.8156 163.424 104.623 187.236 133.995 187.232Z" stroke="#212121"/>
</g>
<path d="M19.2485 163.485L20.3855 164.727L21.8855 164.731L21.8838 165.441L14.4638 165.423L14.4655 164.713L19.4955 164.725L16.6332 161.578L16.6353 160.698L18.7798 162.953L21.8958 160.501L21.8937 161.371L19.2485 163.485ZM16.6375 159.8L16.6393 159.09L21.8993 159.103L21.8975 159.813L16.6375 159.8ZM15.4884 159.438C15.4881 159.584 15.4378 159.707 15.3375 159.807C15.2373 159.907 15.1171 159.957 14.9771 159.956C14.8438 159.956 14.7273 159.906 14.6275 159.806C14.5278 159.705 14.4781 159.582 14.4784 159.435C14.4788 159.288 14.5291 159.165 14.6293 159.066C14.7229 158.966 14.8364 158.916 14.9697 158.916C15.1164 158.917 15.2396 158.967 15.3393 159.067C15.4391 159.167 15.4888 159.291 15.4884 159.438ZM16.6099 154.735C16.6115 154.075 16.8061 153.552 17.1937 153.166C17.5747 152.774 18.1319 152.579 18.8652 152.58L21.9152 152.588L21.9134 153.298L18.9334 153.29C18.3868 153.289 17.9698 153.425 17.6825 153.697C17.3951 153.97 17.2508 154.36 17.2496 154.866C17.2482 155.433 17.4171 155.883 17.7563 156.218C18.0888 156.545 18.5518 156.71 19.1451 156.711L21.9051 156.718L21.9033 157.428L16.6434 157.415L16.645 156.735L17.615 156.737C17.2955 156.543 17.0495 156.276 16.877 155.935C16.6978 155.588 16.6088 155.188 16.6099 154.735ZM19.5204 146.355L19.5096 150.755C20.0564 150.716 20.5003 150.507 20.8412 150.128C21.1754 149.749 21.3433 149.269 21.3447 148.689C21.3455 148.363 21.2896 148.062 21.1769 147.789C21.0576 147.515 20.8848 147.278 20.6586 147.078L21.1196 146.679C21.399 146.913 21.6117 147.207 21.7575 147.56C21.9033 147.907 21.9757 148.291 21.9746 148.711C21.9733 149.251 21.8588 149.73 21.6311 150.15C21.3968 150.563 21.076 150.885 20.6688 151.118C20.2615 151.35 19.8012 151.465 19.2879 151.464C18.7746 151.463 18.3149 151.352 17.9087 151.131C17.5026 150.903 17.1867 150.596 16.961 150.209C16.7353 149.815 16.623 149.374 16.6242 148.888C16.6254 148.401 16.7398 147.965 16.9674 147.579C17.195 147.192 17.5124 146.89 17.9196 146.671C18.3202 146.452 18.7804 146.343 19.3004 146.344L19.5204 146.355ZM17.2342 148.889C17.233 149.396 17.3952 149.823 17.7211 150.17C18.0402 150.511 18.4598 150.706 18.9796 150.753L18.9888 147.023C18.4686 147.069 18.0482 147.265 17.7273 147.61C17.3998 147.95 17.2355 148.376 17.2342 148.889ZM21.9867 143.796C21.9856 144.222 21.9246 144.632 21.8037 145.025C21.676 145.412 21.5186 145.714 21.3314 145.934L20.7722 145.613C20.9461 145.393 21.0901 145.117 21.2042 144.784C21.3117 144.451 21.3659 144.104 21.3668 143.744C21.368 143.264 21.2955 142.911 21.1494 142.684C20.9966 142.45 20.7836 142.333 20.5102 142.332C20.3169 142.332 20.1667 142.395 20.0598 142.521C19.9461 142.647 19.8624 142.807 19.8086 143C19.7481 143.193 19.6908 143.45 19.6367 143.77C19.5557 144.196 19.4748 144.539 19.3942 144.799C19.3069 145.059 19.163 145.282 18.9626 145.468C18.7621 145.648 18.4852 145.737 18.1319 145.736C17.6919 145.735 17.3324 145.551 17.0533 145.184C16.7741 144.816 16.6354 144.306 16.637 143.653C16.6378 143.313 16.6853 142.973 16.7795 142.633C16.867 142.293 16.9843 142.013 17.1315 141.794L17.7008 142.105C17.3997 142.538 17.2485 143.054 17.247 143.654C17.2459 144.107 17.325 144.451 17.4845 144.685C17.6439 144.912 17.8536 145.026 18.1136 145.026C18.3136 145.027 18.4738 144.964 18.5941 144.837C18.7144 144.704 18.8048 144.541 18.8653 144.348C18.9191 144.155 18.9764 143.888 19.0373 143.548C19.1183 143.129 19.1991 142.792 19.2797 142.539C19.3603 142.286 19.4975 142.07 19.6913 141.89C19.8851 141.71 20.152 141.621 20.492 141.622C20.952 141.623 21.3182 141.817 21.5905 142.205C21.8563 142.585 21.9883 143.116 21.9867 143.796ZM21.6312 137.842C21.7509 137.976 21.8438 138.143 21.91 138.343C21.9695 138.536 21.999 138.74 21.9985 138.953C21.9973 139.446 21.863 139.826 21.5957 140.092C21.3284 140.358 20.9514 140.491 20.4647 140.489L17.2847 140.482L17.2824 141.422L16.6824 141.42L16.6847 140.48L15.5347 140.477L15.5365 139.767L16.6865 139.77L16.6904 138.17L17.2904 138.172L17.2865 139.772L20.4265 139.779C20.7398 139.78 20.98 139.704 21.147 139.551C21.3074 139.391 21.388 139.165 21.3887 138.872C21.389 138.725 21.3661 138.585 21.3197 138.451C21.2734 138.311 21.207 138.191 21.1206 138.091L21.6312 137.842ZM19.5544 132.45L19.5436 136.85C20.0904 136.811 20.5342 136.603 20.8752 136.223C21.2094 135.844 21.3773 135.365 21.3787 134.785C21.3795 134.458 21.3235 134.158 21.2109 133.884C21.0915 133.611 20.9188 133.373 20.6926 133.173L21.1536 132.774C21.433 133.008 21.6456 133.302 21.7914 133.656C21.9373 134.003 22.0096 134.386 22.0086 134.806C22.0073 135.346 21.8928 135.826 21.6651 136.245C21.4308 136.658 21.11 136.981 20.7027 137.213C20.2955 137.445 19.8352 137.561 19.3219 137.56C18.8086 137.558 18.3488 137.447 17.9427 137.226C17.5366 136.999 17.2207 136.691 16.9949 136.304C16.7692 135.91 16.657 135.47 16.6582 134.983C16.6594 134.496 16.7738 134.06 17.0014 133.674C17.229 133.288 17.5464 132.985 17.9536 132.766C18.3541 132.547 18.8144 132.438 19.3344 132.44L19.5544 132.45ZM17.2682 134.985C17.2669 135.491 17.4292 135.918 17.755 136.266C18.0742 136.607 18.4937 136.801 19.0136 136.849L19.0227 133.119C18.5026 133.164 18.0821 133.36 17.7613 133.706C17.4338 134.045 17.2694 134.471 17.2682 134.985ZM21.654 128.53C21.7736 128.664 21.8666 128.831 21.9327 129.031C21.9923 129.224 22.0218 129.428 22.0212 129.641C22.02 130.134 21.8858 130.514 21.6185 130.78C21.3511 131.046 20.9742 131.178 20.4875 131.177L17.3075 131.169L17.3052 132.109L16.7052 132.108L16.7075 131.168L15.5575 131.165L15.5592 130.455L16.7092 130.458L16.7131 128.858L17.3131 128.859L17.3092 130.459L20.4492 130.467C20.7626 130.468 21.0027 130.392 21.1698 130.239C21.3302 130.079 21.4107 129.853 21.4114 129.559C21.4118 129.413 21.3888 129.273 21.3425 129.139C21.2961 128.999 21.2298 128.879 21.1433 128.779L21.654 128.53ZM16.727 123.203L22.6105 125.848C23.1033 126.062 23.4527 126.31 23.6587 126.59C23.8647 126.871 23.9672 127.208 23.9662 127.601C23.9656 127.854 23.925 128.091 23.8445 128.311C23.764 128.53 23.6435 128.72 23.4831 128.88L22.9539 128.548C23.2212 128.282 23.3553 127.963 23.3563 127.589C23.3568 127.349 23.2907 127.146 23.1578 126.979C23.0248 126.805 22.7986 126.645 22.4789 126.497L21.9695 126.266L16.7138 128.603L16.7156 127.863L21.1904 125.894L16.7252 123.903L16.727 123.203ZM22.0436 120.483C22.0424 121.003 21.9279 121.469 21.7002 121.882C21.4725 122.288 21.1551 122.607 20.7479 122.84C20.334 123.072 19.8703 123.187 19.357 123.186C18.8437 123.185 18.384 123.067 17.9779 122.833C17.5718 122.598 17.2559 122.278 17.0302 121.87C16.8046 121.457 16.6924 120.99 16.6936 120.47C16.6947 120.016 16.7857 119.613 16.9666 119.26C17.1408 118.901 17.3982 118.618 17.7387 118.412L18.0974 118.943C17.8369 119.116 17.6431 119.335 17.5158 119.602C17.3818 119.868 17.3144 120.158 17.3136 120.471C17.3127 120.851 17.3985 121.195 17.5711 121.502C17.7371 121.802 17.9765 122.039 18.2894 122.214C18.6023 122.381 18.9588 122.465 19.3588 122.466C19.7654 122.467 20.1256 122.385 20.4394 122.219C20.7465 122.046 20.987 121.81 21.1611 121.511C21.3285 121.204 21.4127 120.861 21.4136 120.481C21.4144 120.168 21.3518 119.878 21.2258 119.611C21.0997 119.344 20.9069 119.123 20.6474 118.949L21.0087 118.42C21.3482 118.628 21.6075 118.912 21.7866 119.272C21.959 119.633 22.0447 120.036 22.0436 120.483ZM21.4202 113.695L22.0102 113.696L21.9997 117.976L21.5297 117.975L17.3478 114.655L17.3399 117.905L16.7399 117.903L16.7501 113.743L17.2201 113.744L21.412 117.065L21.4202 113.695ZM16.7195 109.906C16.7211 109.246 16.9157 108.723 17.3033 108.337C17.6842 107.945 18.2414 107.749 18.9747 107.751L22.0247 107.759L22.023 108.469L19.043 108.461C18.4963 108.46 18.0793 108.596 17.792 108.868C17.5047 109.141 17.3604 109.531 17.3591 110.037C17.3577 110.604 17.5266 111.054 17.8658 111.388C18.1984 111.716 18.6613 111.88 19.2546 111.882L22.0146 111.889L22.0129 112.599L16.7529 112.586L16.7546 111.906L17.7246 111.908C17.405 111.714 17.159 111.447 16.9865 111.106C16.8074 110.759 16.7183 110.359 16.7195 109.906ZM16.7332 104.278C16.7349 103.591 16.9095 103.065 17.2571 102.699C17.598 102.334 18.1051 102.151 18.7784 102.153L22.0384 102.161L22.0367 102.841L21.2167 102.839C21.4897 103 21.7024 103.237 21.855 103.551C22.0076 103.858 22.0833 104.224 22.0823 104.651C22.0809 105.238 21.9397 105.704 21.6589 106.05C21.378 106.396 21.0076 106.569 20.5476 106.567C20.101 106.566 19.7413 106.405 19.4688 106.085C19.1963 105.757 19.0609 105.24 19.0626 104.534L19.0667 102.864L18.7467 102.863C18.2933 102.862 17.9497 102.988 17.7157 103.24C17.4751 103.493 17.3542 103.863 17.353 104.35C17.3522 104.683 17.4081 105.003 17.5207 105.31C17.6266 105.617 17.776 105.881 17.9688 106.101L17.438 106.42C17.212 106.153 17.0394 105.832 16.9203 105.459C16.7946 105.085 16.7322 104.691 16.7332 104.278ZM21.5226 104.54C21.5236 104.14 21.4344 103.796 21.2551 103.509C21.0691 103.222 20.803 103.008 20.4567 102.867L19.5967 102.865L19.5926 104.515C19.5904 105.415 19.9027 105.866 20.5293 105.867C20.836 105.868 21.0796 105.752 21.2602 105.519C21.4341 105.286 21.5216 104.96 21.5226 104.54Z" fill="#212121"/>
</svg>
