<svg width="268" height="268" viewBox="0 0 268 268" fill="none" xmlns="http://www.w3.org/2000/svg">
<path d="M131.913 4.9347C132.556 5.08317 133.016 5.38452 133.295 5.83877C133.579 6.29451 133.639 6.8829 133.472 7.60393L132.786 10.5758L132.094 10.416L132.765 7.51242C132.888 6.97977 132.851 6.54378 132.656 6.20448C132.467 5.86667 132.139 5.64378 131.671 5.5358C131.139 5.41283 130.681 5.48174 130.3 5.74255C129.919 5.99685 129.662 6.41307 129.529 6.99119L128.908 9.68045L128.216 9.52074L128.887 6.61712C129.01 6.08446 128.973 5.64848 128.778 5.30917C128.589 4.97137 128.258 4.74773 127.783 4.63825C127.257 4.51678 126.8 4.58569 126.412 4.84499C126.032 5.0993 125.775 5.51551 125.641 6.09364L125.02 8.7829L124.329 8.62318L125.512 3.498L126.174 3.65096L125.958 4.58636C126.212 4.31655 126.521 4.13469 126.885 4.04079C127.249 3.94688 127.642 3.94867 128.064 4.04615C128.493 4.14512 128.842 4.32155 129.112 4.57541C129.388 4.83078 129.563 5.15509 129.636 5.54835C129.903 5.25406 130.233 5.05322 130.627 4.94582C131.029 4.83343 131.458 4.82972 131.913 4.9347ZM137.355 6.19116C138.024 6.34563 138.498 6.63299 138.777 7.05325C139.058 7.46702 139.123 8.00194 138.971 8.65802L138.238 11.8345L137.576 11.6815L137.76 10.8825C137.543 11.1129 137.264 11.2675 136.924 11.3464C136.591 11.4268 136.216 11.419 135.801 11.3231C135.229 11.1911 134.806 10.9497 134.531 10.5989C134.256 10.2481 134.171 9.84857 134.274 9.40036C134.375 8.96515 134.611 8.65036 134.985 8.45602C135.364 8.26318 135.899 8.24624 136.587 8.4052L138.214 8.78087L138.286 8.46907C138.388 8.02736 138.342 7.66433 138.148 7.37999C137.955 7.08915 137.621 6.889 137.147 6.77952C136.822 6.70454 136.498 6.68777 136.174 6.72921C135.851 6.76416 135.561 6.85108 135.303 6.98997L135.11 6.40157C135.421 6.2407 135.772 6.14379 136.162 6.11085C136.555 6.07141 136.952 6.09818 137.355 6.19116ZM136.034 10.8022C136.424 10.8921 136.778 10.8817 137.098 10.7708C137.419 10.6534 137.687 10.4415 137.902 10.1352L138.095 9.29729L136.487 8.92612C135.611 8.72366 135.102 8.92774 134.961 9.53834C134.892 9.83715 134.951 10.1005 135.137 10.3284C135.326 10.5497 135.625 10.7077 136.034 10.8022ZM142.596 12.5121C142.439 12.599 142.256 12.6525 142.046 12.6724C141.844 12.6874 141.639 12.6709 141.431 12.6229C140.95 12.5119 140.61 12.2965 140.41 11.9767C140.21 11.6569 140.165 11.2599 140.275 10.7857L140.99 7.68721L140.074 7.47576L140.209 6.89114L141.125 7.10259L141.384 5.98207L142.075 6.14178L141.817 7.26231L143.376 7.62223L143.241 8.20685L141.682 7.84693L140.975 10.9065C140.905 11.2118 140.926 11.4628 141.038 11.6597C141.158 11.8516 141.36 11.9806 141.646 12.0466C141.789 12.0795 141.931 12.0883 142.071 12.0728C142.218 12.0588 142.35 12.0209 142.467 11.9589L142.596 12.5121ZM148.315 11.6875L144.028 10.6977C143.944 11.2393 144.048 11.7185 144.342 12.1353C144.638 12.5456 145.068 12.816 145.633 12.9464C145.951 13.0199 146.256 13.0322 146.548 12.9832C146.841 12.9278 147.111 12.8122 147.357 12.6363L147.643 13.1745C147.353 13.3948 147.019 13.5367 146.642 13.6001C146.271 13.665 145.881 13.6503 145.472 13.5558C144.946 13.4343 144.503 13.2159 144.145 12.9006C143.795 12.5802 143.552 12.1957 143.416 11.747C143.28 11.2982 143.27 10.8238 143.385 10.3236C143.501 9.82343 143.711 9.39996 144.017 9.05321C144.33 8.70796 144.7 8.46839 145.127 8.33451C145.562 8.20214 146.016 8.19069 146.49 8.30016C146.964 8.40964 147.364 8.6183 147.69 8.92613C148.016 9.23397 148.24 9.61076 148.363 10.0565C148.487 10.4957 148.491 10.9687 148.374 11.4754L148.315 11.6875ZM146.353 8.89453C145.859 8.78055 145.407 8.84372 144.995 9.08403C144.592 9.31935 144.309 9.68509 144.147 10.1813L147.781 11.0203C147.853 10.5032 147.756 10.0497 147.49 9.65991C147.232 9.26513 146.853 9.01 146.353 8.89453ZM156.482 10.6071C157.125 10.7555 157.586 11.0569 157.864 11.5111C158.149 11.9669 158.208 12.5553 158.042 13.2763L157.356 16.2481L156.664 16.0884L157.334 13.1848C157.457 12.6521 157.421 12.2162 157.226 11.8768C157.037 11.539 156.709 11.3161 156.241 11.2082C155.708 11.0852 155.251 11.1541 154.869 11.4149C154.489 11.6692 154.232 12.0854 154.099 12.6636L153.478 15.3528L152.786 15.1931L153.456 12.2895C153.579 11.7568 153.543 11.3208 153.348 10.9815C153.159 10.6437 152.827 10.4201 152.353 10.3106C151.827 10.1891 151.37 10.2581 150.982 10.5174C150.601 10.7717 150.344 11.1879 150.211 11.766L149.59 14.4553L148.898 14.2956L150.081 9.17037L150.744 9.32333L150.528 10.2587C150.782 9.98892 151.091 9.80706 151.455 9.71316C151.818 9.61925 152.211 9.62104 152.634 9.71851C153.062 9.81749 153.412 9.99392 153.681 10.2478C153.958 10.5031 154.133 10.8275 154.206 11.2207C154.472 10.9264 154.803 10.7256 155.197 10.6182C155.599 10.5058 156.028 10.5021 156.482 10.6071ZM161.925 11.8635C162.594 12.018 163.068 12.3054 163.347 12.7256C163.628 13.1394 163.693 13.6743 163.541 14.3304L162.808 17.5068L162.145 17.3539L162.33 16.5549C162.112 16.7852 161.834 16.9398 161.494 17.0188C161.161 17.0992 160.786 17.0914 160.37 16.9954C159.799 16.8635 159.376 16.6221 159.101 16.2713C158.826 15.9205 158.74 15.5209 158.844 15.0727C158.944 14.6375 159.181 14.3227 159.554 14.1284C159.934 13.9355 160.468 13.9186 161.157 14.0776L162.784 14.4532L162.856 14.1414C162.958 13.6997 162.912 13.3367 162.718 13.0524C162.525 12.7615 162.191 12.5614 161.717 12.4519C161.392 12.3769 161.068 12.3601 160.743 12.4016C160.421 12.4365 160.13 12.5234 159.872 12.6623L159.68 12.0739C159.991 11.9131 160.341 11.8162 160.732 11.7832C161.124 11.7438 161.522 11.7705 161.925 11.8635ZM160.604 16.4745C160.993 16.5645 161.348 16.554 161.668 16.4431C161.989 16.3257 162.257 16.1139 162.471 15.8076L162.665 14.9697L161.057 14.5985C160.18 14.396 159.671 14.6001 159.53 15.2107C159.461 15.5095 159.52 15.7729 159.707 16.0007C159.896 16.2221 160.194 16.38 160.604 16.4745ZM167.166 18.1845C167.009 18.2714 166.825 18.3249 166.615 18.3448C166.413 18.3598 166.209 18.3433 166.001 18.2953C165.52 18.1843 165.18 17.9689 164.98 17.6491C164.78 17.3293 164.735 16.9323 164.844 16.4581L165.56 13.3596L164.644 13.1481L164.779 12.5635L165.695 12.775L165.953 11.6544L166.645 11.8142L166.387 12.9347L167.946 13.2946L167.811 13.8792L166.252 13.5193L165.545 16.5788C165.475 16.8841 165.495 17.1352 165.607 17.3321C165.727 17.524 165.93 17.6529 166.216 17.7189C166.359 17.7519 166.5 17.7607 166.641 17.7452C166.788 17.7312 166.92 17.6933 167.037 17.6313L167.166 18.1845ZM173.455 14.5667L169.568 19.7141C169.249 20.1468 168.93 20.4323 168.611 20.5707C168.291 20.7091 167.94 20.734 167.557 20.6456C167.31 20.5886 167.088 20.4964 166.892 20.3689C166.696 20.2415 166.537 20.0818 166.418 19.8899L166.858 19.4477C167.058 19.7676 167.34 19.9695 167.704 20.0534C167.938 20.1074 168.151 20.0882 168.343 19.9958C168.542 19.9049 168.749 19.72 168.964 19.4412L169.303 18.996L168.194 13.3519L168.915 13.5184L169.839 18.3192L172.773 14.4092L173.455 14.5667ZM174.924 20.3555C174.418 20.2385 173.988 20.0231 173.637 19.7092C173.291 19.3969 173.051 19.0164 172.915 18.5676C172.781 18.1124 172.771 17.6347 172.887 17.1345C173.002 16.6344 173.219 16.2124 173.538 15.8686C173.857 15.5249 174.24 15.2883 174.687 15.1589C175.141 15.0311 175.621 15.0256 176.128 15.1426C176.57 15.2446 176.942 15.423 177.246 15.6778C177.558 15.9277 177.776 16.2415 177.901 16.6193L177.304 16.8509C177.193 16.5585 177.022 16.3207 176.791 16.1373C176.561 15.9474 176.294 15.8172 175.988 15.7467C175.618 15.6612 175.264 15.6684 174.926 15.7683C174.596 15.8632 174.312 16.0438 174.072 16.3102C173.84 16.578 173.678 16.9067 173.588 17.2965C173.497 17.6927 173.497 18.0623 173.589 18.405C173.689 18.7428 173.865 19.0299 174.119 19.2663C174.38 19.4977 174.696 19.6561 175.066 19.7416C175.371 19.8121 175.668 19.8156 175.956 19.7522C176.245 19.6887 176.503 19.5499 176.73 19.3355L177.165 19.8055C176.888 20.0903 176.553 20.2799 176.162 20.3743C175.772 20.4622 175.36 20.4559 174.924 20.3555ZM181.681 21.2585L181.548 21.8334L177.378 20.8706L177.484 20.4127L181.651 17.0746L178.485 16.3435L178.62 15.7589L182.673 16.6947L182.567 17.1527L178.397 20.5004L181.681 21.2585ZM186.421 17.519C187.064 17.6674 187.531 17.9735 187.82 18.4373C188.118 18.896 188.185 19.4827 188.02 20.1972L187.333 23.169L186.642 23.0093L187.312 20.1057C187.435 19.573 187.396 19.1363 187.194 18.7955C186.992 18.4547 186.644 18.2273 186.15 18.1133C185.598 17.9859 185.122 18.0503 184.72 18.3066C184.327 18.5579 184.064 18.9726 183.93 19.5507L183.309 22.24L182.618 22.0803L183.801 16.9551L184.463 17.108L184.245 18.0532C184.506 17.7849 184.821 17.6045 185.191 17.5121C185.569 17.4147 185.979 17.417 186.421 17.519ZM191.022 24.0719C190.528 23.9579 190.109 23.7448 189.764 23.4324C189.42 23.1136 189.18 22.7298 189.044 22.2811C188.908 21.8324 188.898 21.3579 189.014 20.8577C189.129 20.3576 189.346 19.9356 189.665 19.5918C189.984 19.2481 190.367 19.0115 190.814 18.8821C191.261 18.7528 191.732 18.7451 192.226 18.859C192.719 18.973 193.139 19.1862 193.484 19.4985C193.829 19.8108 194.067 20.1906 194.196 20.6379C194.332 21.0866 194.342 21.561 194.226 22.0612C194.111 22.5614 193.894 22.9834 193.575 23.3271C193.263 23.6724 192.882 23.9129 192.433 24.0488C191.986 24.1782 191.516 24.1859 191.022 24.0719ZM191.164 23.4581C191.528 23.542 191.871 23.5358 192.194 23.4394C192.526 23.338 192.808 23.1534 193.041 22.8856C193.274 22.6178 193.435 22.289 193.525 21.8993C193.615 21.5095 193.614 21.1432 193.522 20.8004C193.43 20.4576 193.257 20.1713 193.002 19.9414C192.755 19.7066 192.45 19.5471 192.086 19.4631C191.722 19.3792 191.375 19.3879 191.043 19.4893C190.72 19.5857 190.439 19.767 190.199 20.0334C189.967 20.3012 189.805 20.6299 189.715 21.0197C189.625 21.4094 189.626 21.7757 189.718 22.1185C189.816 22.4628 189.989 22.7524 190.236 22.9873C190.491 23.2171 190.8 23.3741 191.164 23.4581ZM195.149 21.874L197.702 22.4634L197.563 23.0675L195.01 22.4782L195.149 21.874ZM138.656 18.0683L141.209 18.6577L141.07 19.2618L138.517 18.6724L138.656 18.0683ZM143.454 14.6603L144.146 14.82L142.477 22.0498L141.785 21.8901L143.454 14.6603ZM146.193 22.9591C145.699 22.8451 145.28 22.6319 144.935 22.3196C144.591 22.0008 144.351 21.617 144.215 21.1683C144.079 20.7195 144.069 20.2451 144.185 19.7449C144.3 19.2447 144.517 18.8228 144.836 18.479C145.155 18.1352 145.538 17.8987 145.985 17.7693C146.432 17.6399 146.903 17.6322 147.397 17.7462C147.89 17.8602 148.31 18.0733 148.655 18.3857C149 18.698 149.238 19.0778 149.367 19.525C149.503 19.9738 149.513 20.4482 149.398 20.9484C149.282 21.4486 149.065 21.8705 148.746 22.2143C148.434 22.5595 148.053 22.8001 147.605 22.936C147.157 23.0654 146.687 23.0731 146.193 22.9591ZM146.335 22.3452C146.699 22.4292 147.042 22.423 147.365 22.3266C147.697 22.2252 147.979 22.0406 148.212 21.7728C148.445 21.505 148.606 21.1762 148.696 20.7864C148.786 20.3967 148.785 20.0304 148.693 19.6876C148.601 19.3448 148.428 19.0585 148.173 18.8286C147.926 18.5937 147.621 18.4343 147.257 18.3503C146.893 18.2663 146.546 18.275 146.215 18.3764C145.891 18.4729 145.61 18.6542 145.371 18.9205C145.138 19.1883 144.976 19.5171 144.886 19.9069C144.796 20.2966 144.797 20.6629 144.889 21.0057C144.988 21.35 145.16 21.6396 145.407 21.8744C145.662 22.1043 145.971 22.2612 146.335 22.3452ZM155.854 19.7399L154.815 24.2415C154.614 25.1119 154.251 25.7055 153.727 26.0223C153.207 26.347 152.518 26.4104 151.661 26.2125C151.187 26.103 150.752 25.9273 150.356 25.6854C149.965 25.4515 149.665 25.1804 149.456 24.8721L149.928 24.4269C150.124 24.7048 150.383 24.9459 150.705 25.1503C151.034 25.3562 151.393 25.5041 151.783 25.5941C152.433 25.7441 152.945 25.7016 153.321 25.4668C153.696 25.2385 153.956 24.8061 154.103 24.1695L154.254 23.5166C153.965 23.7919 153.625 23.9735 153.235 24.0614C152.852 24.1509 152.449 24.1468 152.027 24.0493C151.546 23.9384 151.132 23.7332 150.784 23.4339C150.443 23.1295 150.203 22.7627 150.063 22.3335C149.93 21.8992 149.919 21.4418 150.03 20.9611C150.141 20.4804 150.351 20.0772 150.659 19.7514C150.973 19.4271 151.349 19.2061 151.787 19.0882C152.225 18.9703 152.687 18.9676 153.174 19.0801C153.609 19.1805 153.982 19.359 154.292 19.6153C154.603 19.8717 154.827 20.1903 154.965 20.571L155.192 19.5869L155.854 19.7399ZM152.237 23.4512C152.607 23.5367 152.96 23.536 153.294 23.4491C153.631 23.3557 153.913 23.1848 154.141 22.9365C154.376 22.6897 154.536 22.3844 154.62 22.0206C154.704 21.6568 154.694 21.3158 154.589 20.9975C154.493 20.6742 154.313 20.4001 154.05 20.1752C153.795 19.9453 153.48 19.7869 153.103 19.6999C152.733 19.6144 152.38 19.6151 152.045 19.7021C151.717 19.7905 151.435 19.9581 151.201 20.2049C150.972 20.4532 150.816 20.7593 150.732 21.123C150.648 21.4868 150.654 21.8304 150.751 22.1537C150.854 22.4785 151.032 22.7558 151.287 22.9857C151.55 23.2106 151.867 23.3658 152.237 23.4512ZM157.497 20.119L158.189 20.2788L157.005 25.4039L156.313 25.2442L157.497 20.119ZM158.106 19.0795C157.963 19.0465 157.854 18.97 157.779 18.8501C157.704 18.7302 157.683 18.602 157.714 18.4656C157.744 18.3357 157.819 18.2333 157.939 18.1583C158.059 18.0834 158.19 18.0624 158.333 18.0954C158.476 18.1284 158.585 18.2048 158.66 18.3248C158.737 18.4382 158.76 18.5599 158.73 18.6898C158.697 18.8327 158.62 18.9416 158.5 19.0166C158.381 19.0915 158.249 19.1125 158.106 19.0795ZM160.751 26.32C160.244 26.203 159.815 25.9876 159.463 25.6738C159.118 25.3614 158.877 24.9809 158.741 24.5322C158.607 24.0769 158.598 23.5992 158.713 23.099C158.829 22.5989 159.046 22.1769 159.365 21.8331C159.683 21.4894 160.066 21.2528 160.514 21.1234C160.967 20.9956 161.448 20.9901 161.954 21.1071C162.396 21.2091 162.769 21.3875 163.073 21.6424C163.384 21.8922 163.603 22.2061 163.728 22.5838L163.13 22.8154C163.02 22.5231 162.849 22.2852 162.617 22.1018C162.388 21.9119 162.12 21.7817 161.815 21.7112C161.445 21.6257 161.09 21.6329 160.753 21.7328C160.423 21.8277 160.138 22.0084 159.899 22.2747C159.666 22.5425 159.505 22.8713 159.415 23.261C159.323 23.6573 159.323 24.0268 159.415 24.3696C159.515 24.7074 159.692 24.9945 159.945 25.2308C160.206 25.4622 160.522 25.6206 160.892 25.7061C161.198 25.7766 161.495 25.7801 161.783 25.7167C162.071 25.6533 162.329 25.5144 162.556 25.3L162.992 25.77C162.714 26.0548 162.38 26.2444 161.988 26.3388C161.598 26.4267 161.186 26.4205 160.751 26.32ZM167.507 27.223L167.375 27.7979L163.204 26.8351L163.31 26.3772L167.478 23.0391L164.311 22.3081L164.446 21.7234L168.499 22.6592L168.394 23.1172L164.224 26.465L167.507 27.223ZM172.248 23.4835C172.891 23.632 173.357 23.9381 173.647 24.4018C173.945 24.8605 174.011 25.4472 173.846 26.1617L173.16 29.1335L172.468 28.9738L173.139 26.0702C173.261 25.5376 173.222 25.1008 173.02 24.76C172.818 24.4192 172.471 24.1918 171.977 24.0778C171.425 23.9504 170.948 24.0148 170.547 24.2711C170.154 24.5224 169.89 24.9371 169.757 25.5152L169.136 28.2045L168.444 28.0448L169.627 22.9196L170.29 23.0726L170.072 24.0177C170.332 23.7494 170.647 23.569 171.018 23.4766C171.396 23.3792 171.806 23.3815 172.248 23.4835ZM177.731 24.7494C178.4 24.9039 178.874 25.1913 179.153 25.6115C179.434 26.0253 179.499 26.5602 179.347 27.2163L178.614 30.3927L177.951 30.2398L178.136 29.4408C177.919 29.6711 177.64 29.8257 177.3 29.9047C176.967 29.9851 176.592 29.9773 176.177 29.8813C175.605 29.7493 175.182 29.508 174.907 29.1572C174.632 28.8063 174.547 28.4068 174.65 27.9586C174.75 27.5234 174.987 27.2086 175.361 27.0143C175.74 26.8214 176.275 26.8045 176.963 26.9635L178.59 27.3391L178.662 27.0273C178.764 26.5856 178.718 26.2226 178.524 25.9383C178.331 25.6474 177.997 25.4473 177.523 25.3378C177.198 25.2628 176.874 25.246 176.55 25.2875C176.227 25.3224 175.936 25.4093 175.679 25.5482L175.486 24.9598C175.797 24.799 176.148 24.7021 176.538 24.6691C176.931 24.6297 177.328 24.6564 177.731 24.7494ZM176.41 29.3604C176.8 29.4504 177.154 29.4399 177.474 29.329C177.795 29.2116 178.063 28.9998 178.278 28.6935L178.471 27.8555L176.863 27.4844C175.987 27.2819 175.478 27.486 175.337 28.0966C175.268 28.3954 175.327 28.6588 175.513 28.8866C175.702 29.108 176.001 29.2659 176.41 29.3604Z" fill="white"/>
<path d="M240.593 67.0894L234.99 67.5655L234.7 66.9612L237.871 63.603L233.267 63.9666L232.977 63.3623L236.867 59.3053L237.161 59.9186L233.841 63.3369L238.603 62.9312L238.866 63.4814L235.56 66.9268L240.313 66.5031L240.593 67.0894ZM240.925 67.7831L241.232 68.4235L236.487 70.6946L236.181 70.0542L240.925 67.7831ZM242.118 67.6112C242.055 67.4789 242.046 67.3461 242.094 67.2127C242.141 67.0794 242.227 66.9824 242.353 66.922C242.474 66.8644 242.601 66.8592 242.734 66.9062C242.867 66.9532 242.966 67.0428 243.029 67.1751C243.092 67.3074 243.1 67.4403 243.053 67.5736C243.012 67.7041 242.932 67.7982 242.812 67.8557C242.679 67.9191 242.546 67.9272 242.413 67.8802C242.28 67.8332 242.181 67.7435 242.118 67.6112ZM239.345 75.2975L238.813 75.5522L236.965 71.6918L237.389 71.4888L242.597 72.6653L241.194 69.7338L241.735 69.4748L243.531 73.227L243.107 73.4299L237.89 72.2578L239.345 75.2975ZM246.078 78.5464L241.333 80.8175L241.04 80.2042L241.905 79.7897C241.536 79.7595 241.2 79.6359 240.896 79.419C240.599 79.1991 240.36 78.8998 240.178 78.521C239.882 77.9016 239.819 77.3295 239.989 76.8047C240.168 76.2829 240.591 75.8623 241.258 75.5428L244.009 74.2259L244.316 74.8663L241.628 76.153C241.129 76.3919 240.809 76.6965 240.669 77.0668C240.528 77.4371 240.567 77.8508 240.786 78.3078C241.025 78.8069 241.364 79.1288 241.802 79.2735C242.247 79.4153 242.74 79.3567 243.282 79.0977L245.771 77.906L246.078 78.5464ZM247.637 81.7118C247.934 82.3311 248.005 82.881 247.85 83.3614C247.702 83.839 247.324 84.2231 246.717 84.5138L243.776 85.9214L243.483 85.308L244.222 84.954C243.907 84.9277 243.612 84.8063 243.338 84.5899C243.068 84.3795 242.84 84.0819 242.656 83.697C242.403 83.1679 242.328 82.6865 242.43 82.2529C242.533 81.8193 242.792 81.5032 243.207 81.3046C243.61 81.1118 244.004 81.1006 244.389 81.2713C244.776 81.4479 245.122 81.8549 245.428 82.4923L246.149 83.9986L246.437 83.8605C246.846 83.6647 247.101 83.4022 247.202 83.073C247.309 82.7409 247.258 82.3553 247.048 81.9163C246.904 81.6157 246.714 81.3515 246.48 81.1238C246.251 80.8933 246.002 80.7205 245.733 80.6056L246.073 80.0881C246.392 80.2308 246.687 80.4445 246.956 80.7295C247.232 81.0115 247.459 81.339 247.637 81.7118ZM243.209 83.5545C243.381 83.9153 243.611 84.1861 243.897 84.3669C244.189 84.5449 244.522 84.6222 244.895 84.5988L245.671 84.2275L244.958 82.7392C244.57 81.9274 244.093 81.6568 243.527 81.9274C243.251 82.0598 243.082 82.2701 243.02 82.5583C242.964 82.8436 243.027 83.1756 243.209 83.5545ZM251.172 84.1865L251.479 84.8269L244.786 88.0306L244.479 87.3902L251.172 84.1865ZM251.447 89.6709C251.732 90.2662 251.784 90.8217 251.602 91.3374C251.429 91.8563 251.012 92.274 250.35 92.5906L247.599 93.9075L247.293 93.2671L249.981 91.9805C250.474 91.7444 250.79 91.4412 250.931 91.0709C251.072 90.7006 251.032 90.2869 250.814 89.8299C250.569 89.3188 250.221 88.9863 249.771 88.8325C249.329 88.6817 248.841 88.7345 248.305 88.9907L245.816 90.1823L245.509 89.5419L250.254 87.2708L250.547 87.8842L249.673 88.303C250.045 88.3392 250.382 88.4732 250.685 88.7051C250.997 88.94 251.251 89.262 251.447 89.6709ZM249.194 97.3541C248.975 96.8971 248.88 96.4362 248.909 95.9715C248.944 95.504 249.094 95.0772 249.36 94.6911C249.626 94.3051 249.991 94.0012 250.454 93.7796C250.917 93.558 251.382 93.4646 251.85 93.4994C252.317 93.5343 252.741 93.6862 253.121 93.9552C253.501 94.2241 253.8 94.5871 254.019 95.0441C254.238 95.5011 254.333 95.9619 254.304 96.4266C254.275 96.8913 254.126 97.3136 253.857 97.6937C253.591 98.0797 253.227 98.3836 252.764 98.6052C252.301 98.8268 251.835 98.9202 251.368 98.8854C250.903 98.8565 250.478 98.709 250.092 98.443C249.712 98.174 249.412 97.8111 249.194 97.3541ZM249.762 97.082C249.923 97.4188 250.142 97.6835 250.419 97.8761C250.705 98.0718 251.025 98.1772 251.38 98.1923C251.734 98.2073 252.092 98.1285 252.453 97.9558C252.814 97.7831 253.099 97.5539 253.31 97.2683C253.521 96.9827 253.636 96.6686 253.657 96.326C253.687 95.9866 253.621 95.6485 253.46 95.3118C253.299 94.975 253.075 94.7088 252.789 94.513C252.512 94.3204 252.195 94.2136 251.838 94.1925C251.483 94.1775 251.125 94.2563 250.765 94.429C250.404 94.6017 250.118 94.8309 249.907 95.1165C249.7 95.4081 249.581 95.7237 249.551 96.0631C249.53 96.4057 249.601 96.7453 249.762 97.082ZM253.486 99.21L254.617 101.573L254.058 101.841L252.926 99.4777L253.486 99.21ZM222.84 56.0342L223.971 58.3974L223.412 58.6651L222.281 56.3019L222.84 56.0342ZM227.754 61.0194C227.967 61.4644 228.058 61.9162 228.026 62.3749C228 62.8307 227.853 63.2486 227.584 63.6286C227.315 64.0087 226.946 64.311 226.477 64.5355C226.002 64.7629 225.532 64.8621 225.067 64.8333C224.603 64.8044 224.182 64.6585 223.805 64.3956C223.436 64.1358 223.144 63.7804 222.928 63.3294C222.744 62.9446 222.655 62.5584 222.662 62.1709C222.678 61.7865 222.791 61.4217 223.003 61.0764L220.36 62.3415L220.053 61.7011L226.548 58.5923L226.841 59.2057L225.903 59.6547C226.308 59.6975 226.669 59.8349 226.988 60.067C227.308 60.3051 227.564 60.6226 227.754 61.0194ZM223.475 63.0123C223.633 63.343 223.852 63.6077 224.132 63.8063C224.418 64.0021 224.738 64.1075 225.093 64.1225C225.45 64.1436 225.809 64.0678 226.17 63.8951C226.531 63.7224 226.812 63.4916 227.014 63.2029C227.225 62.9173 227.344 62.6017 227.37 62.2563C227.397 61.9109 227.331 61.5728 227.173 61.242C227.012 60.9053 226.788 60.6391 226.502 60.4433C226.219 60.2536 225.899 60.1482 225.542 60.1271C225.193 60.1092 224.839 60.1866 224.478 60.3593C224.117 60.532 223.831 60.7612 223.621 61.0468C223.413 61.3384 223.294 61.6539 223.264 61.9934C223.244 62.3359 223.314 62.6756 223.475 63.0123ZM228.709 65.4929C229.1 65.4906 229.447 65.598 229.75 65.8149C230.056 66.0379 230.315 66.3688 230.525 66.8078L229.902 67.1057L229.838 66.9481C229.599 66.449 229.259 66.1315 228.817 65.9957C228.375 65.8599 227.877 65.9244 227.324 66.1892L224.907 67.3463L224.6 66.7059L229.344 64.4348L229.638 65.0481L228.709 65.4929ZM228.338 73.1472L227.805 73.4019L225.957 69.5415L226.381 69.3385L231.59 70.515L230.187 67.5835L230.728 67.3245L232.524 71.0767L232.1 71.2796L226.882 70.1075L228.338 73.1472ZM232.393 77.403L230.493 73.4343C230.017 73.7064 229.708 74.0873 229.565 74.5768C229.429 75.0635 229.485 75.5684 229.736 76.0916C229.877 76.3862 230.058 76.6323 230.278 76.8299C230.504 77.0247 230.763 77.1633 231.053 77.2458L230.811 77.8052C230.458 77.7157 230.139 77.5432 229.854 77.2878C229.572 77.0385 229.34 76.7244 229.159 76.3455C228.926 75.8585 228.821 75.3766 228.844 74.8999C228.876 74.4263 229.025 73.9965 229.291 73.6105C229.557 73.2244 229.922 72.9206 230.385 72.6989C230.848 72.4773 231.31 72.3779 231.772 72.4007C232.237 72.4296 232.655 72.5695 233.026 72.8204C233.4 73.0773 233.692 73.4252 233.903 73.8642C234.113 74.3031 234.199 74.7459 234.162 75.1926C234.124 75.6392 233.969 76.0495 233.698 76.4236C233.432 76.7947 233.064 77.0925 232.595 77.3171L232.393 77.403ZM233.352 74.1276C233.134 73.6706 232.802 73.3562 232.358 73.1846C231.922 73.0161 231.46 73.023 230.971 73.2055L232.581 76.5699C233.03 76.3033 233.324 75.9445 233.463 75.4937C233.611 75.0459 233.574 74.5906 233.352 74.1276ZM231.281 80.7789C231.097 80.3941 230.974 79.9984 230.912 79.5918C230.86 79.1883 230.87 78.8471 230.944 78.568L231.587 78.6149C231.525 78.8881 231.516 79.1996 231.557 79.5492C231.605 79.8959 231.707 80.2316 231.862 80.5563C232.069 80.9893 232.288 81.2763 232.518 81.4174C232.757 81.5617 233 81.5748 233.247 81.4568C233.421 81.3733 233.529 81.2514 233.57 81.0911C233.618 80.9279 233.624 80.7476 233.589 80.5502C233.559 80.3499 233.5 80.094 233.41 79.7823C233.297 79.3629 233.221 79.0187 233.181 78.7496C233.147 78.4777 233.18 78.2144 233.28 77.9596C233.382 77.7109 233.593 77.5103 233.912 77.3577C234.309 77.1678 234.713 77.1777 235.124 77.3875C235.534 77.5973 235.881 77.9969 236.163 78.5862C236.31 78.8929 236.414 79.2197 236.477 79.5667C236.546 79.9108 236.561 80.2137 236.524 80.4755L235.876 80.442C235.96 79.9216 235.872 79.3908 235.613 78.8496C235.417 78.4407 235.197 78.1655 234.952 78.0242C234.709 77.8888 234.471 77.8772 234.236 77.9895C234.056 78.0759 233.939 78.2021 233.886 78.3681C233.835 78.5402 233.824 78.7264 233.854 78.9267C233.889 79.1241 233.953 79.3891 234.046 79.7217C234.155 80.135 234.228 80.4733 234.265 80.7363C234.303 80.9993 234.273 81.2538 234.176 81.4996C234.079 81.7455 233.878 81.9418 233.571 82.0886C233.156 82.2872 232.742 82.2711 232.329 82.0404C231.924 81.8128 231.575 81.3923 231.281 80.7789ZM234.185 85.9883C234.019 85.9198 233.863 85.8098 233.717 85.6582C233.579 85.5097 233.464 85.3393 233.372 85.1468C233.159 84.7019 233.115 84.3015 233.241 83.9459C233.366 83.5902 233.648 83.3073 234.087 83.0972L236.956 81.7242L236.55 80.8763L237.091 80.6172L237.497 81.4651L238.534 80.9686L238.841 81.609L237.803 82.1055L238.494 83.5487L237.953 83.8077L237.262 82.3646L234.43 83.7203C234.147 83.8556 233.964 84.0284 233.88 84.2387C233.804 84.4521 233.83 84.691 233.957 84.9556C234.02 85.0879 234.102 85.2041 234.201 85.3042C234.304 85.4104 234.416 85.4898 234.537 85.5426L234.185 85.9883ZM238.434 85.8086C238.825 85.8064 239.172 85.9138 239.475 86.1307C239.781 86.3536 240.04 86.6846 240.25 87.1236L239.627 87.4215L239.563 87.2638C239.324 86.7647 238.984 86.4473 238.542 86.3114C238.1 86.1756 237.602 86.2401 237.049 86.5049L234.632 87.6621L234.325 87.0217L239.069 84.7506L239.363 85.3639L238.434 85.8086ZM238.062 93.463L237.53 93.7177L235.682 89.8572L236.106 89.6543L241.315 90.8307L239.911 87.8993L240.453 87.6402L242.249 91.3925L241.825 91.5954L236.607 90.4233L238.062 93.463ZM242.117 97.7188L240.218 93.7501C239.742 94.0222 239.433 94.403 239.29 94.8926C239.153 95.3793 239.21 95.8842 239.461 96.4073C239.602 96.702 239.783 96.9481 240.003 97.1457C240.229 97.3404 240.488 97.4791 240.778 97.5616L240.536 98.121C240.183 98.0314 239.864 97.859 239.579 97.6036C239.297 97.3542 239.065 97.0401 238.884 96.6613C238.651 96.1742 238.546 95.6923 238.569 95.2156C238.601 94.7421 238.75 94.3123 239.016 93.9262C239.282 93.5402 239.647 93.2363 240.11 93.0147C240.573 92.793 241.035 92.6936 241.497 92.7165C241.961 92.7454 242.38 92.8852 242.751 93.1361C243.125 93.393 243.417 93.741 243.628 94.1799C243.838 94.6189 243.924 95.0617 243.886 95.5083C243.849 95.955 243.694 96.3653 243.422 96.7393C243.157 97.1105 242.789 97.4083 242.32 97.6328L242.117 97.7188ZM243.077 94.4433C242.859 93.9863 242.527 93.672 242.083 93.5004C241.647 93.3318 241.185 93.3388 240.696 93.5212L242.306 96.8856C242.755 96.619 243.049 96.2603 243.188 95.8094C243.336 95.3617 243.299 94.9063 243.077 94.4433ZM246.38 99.9302C246.665 100.526 246.717 101.081 246.535 101.597C246.362 102.116 245.945 102.533 245.283 102.85L242.532 104.167L242.226 103.526L244.914 102.24C245.407 102.004 245.723 101.701 245.864 101.33C246.005 100.96 245.965 100.546 245.747 100.089C245.502 99.5782 245.154 99.2457 244.704 99.0918C244.262 98.9411 243.774 98.9938 243.239 99.25L240.749 100.442L240.442 99.8013L245.187 97.5302L245.481 98.1435L244.606 98.5624C244.978 98.5986 245.315 98.7326 245.618 98.9644C245.931 99.1994 246.184 99.5213 246.38 99.9302ZM249.173 105.764C249.458 106.359 249.509 106.915 249.327 107.43C249.154 107.949 248.737 108.367 248.076 108.684L245.325 110.001L245.018 109.36L247.706 108.073C248.199 107.837 248.516 107.534 248.657 107.164C248.797 106.794 248.758 106.38 248.539 105.923C248.295 105.412 247.947 105.079 247.496 104.925C247.055 104.775 246.566 104.827 246.031 105.084L243.542 106.275L243.235 105.635L247.979 103.364L248.273 103.977L247.398 104.396C247.77 104.432 248.108 104.566 248.411 104.798C248.723 105.033 248.977 105.355 249.173 105.764ZM251.602 110.84C251.899 111.459 251.97 112.009 251.816 112.49C251.667 112.967 251.289 113.351 250.682 113.642L247.742 115.049L247.448 114.436L248.188 114.082C247.872 114.056 247.577 113.934 247.304 113.718C247.033 113.508 246.806 113.21 246.621 112.825C246.368 112.296 246.293 111.815 246.396 111.381C246.499 110.947 246.758 110.631 247.172 110.433C247.575 110.24 247.969 110.229 248.354 110.399C248.741 110.576 249.088 110.983 249.393 111.62L250.114 113.127L250.403 112.989C250.811 112.793 251.066 112.53 251.168 112.201C251.275 111.869 251.223 111.483 251.013 111.044C250.869 110.744 250.68 110.48 250.445 110.252C250.217 110.021 249.968 109.849 249.698 109.734L250.038 109.216C250.358 109.359 250.652 109.573 250.922 109.858C251.197 110.14 251.424 110.467 251.602 110.84ZM247.174 112.683C247.347 113.043 247.576 113.314 247.862 113.495C248.154 113.673 248.487 113.75 248.86 113.727L249.636 113.356L248.923 111.867C248.535 111.055 248.058 110.785 247.493 111.055C247.216 111.188 247.047 111.398 246.985 111.686C246.93 111.972 246.993 112.304 247.174 112.683Z" fill="white"/>
<path d="M249.815 171.59C249.527 172.184 249.131 172.566 248.626 172.736C248.118 172.912 247.531 172.839 246.865 172.516L244.121 171.187L244.43 170.548L247.112 171.847C247.604 172.085 248.037 172.147 248.411 172.032C248.783 171.923 249.073 171.653 249.282 171.221C249.521 170.729 249.555 170.268 249.386 169.837C249.222 169.41 248.874 169.067 248.34 168.808L245.856 167.605L246.166 166.966L248.847 168.265C249.339 168.504 249.772 168.565 250.147 168.45C250.518 168.341 250.81 168.068 251.022 167.63C251.257 167.144 251.292 166.683 251.126 166.247C250.962 165.819 250.613 165.476 250.08 165.218L247.596 164.014L247.905 163.375L252.639 165.669L252.342 166.281L251.479 165.862C251.685 166.169 251.794 166.511 251.804 166.887C251.815 167.262 251.726 167.645 251.537 168.035C251.345 168.431 251.095 168.732 250.788 168.939C250.477 169.151 250.122 169.25 249.723 169.234C249.95 169.559 250.073 169.926 250.09 170.334C250.11 170.751 250.018 171.17 249.815 171.59ZM246.079 179.209L241.345 176.915L241.642 176.303L242.506 176.722C242.299 176.414 242.186 176.074 242.166 175.702C242.153 175.332 242.238 174.958 242.421 174.581C242.72 173.963 243.128 173.556 243.644 173.362C244.164 173.177 244.757 173.245 245.423 173.568L248.167 174.898L247.858 175.537L245.176 174.238C244.678 173.996 244.24 173.936 243.863 174.057C243.486 174.178 243.187 174.467 242.966 174.923C242.725 175.421 242.685 175.886 242.845 176.319C243.011 176.756 243.365 177.105 243.905 177.366L246.388 178.57L246.079 179.209ZM239.522 182.031L238.991 181.773L240.858 177.922L241.28 178.127L243.608 182.932L245.025 180.008L245.565 180.269L243.751 184.013L243.328 183.808L240.992 178.998L239.522 182.031ZM241.362 188.944L237.208 184.009C236.857 183.602 236.65 183.228 236.586 182.886C236.522 182.544 236.576 182.196 236.747 181.842C236.858 181.614 236.997 181.418 237.165 181.255C237.333 181.092 237.523 180.973 237.737 180.899L238.07 181.427C237.714 181.551 237.455 181.781 237.292 182.116C237.187 182.332 237.158 182.545 237.206 182.753C237.25 182.967 237.384 183.21 237.608 183.481L237.967 183.91L243.716 184.085L243.394 184.751L238.508 184.584L241.667 188.314L241.362 188.944ZM235.391 189.089C235.618 188.621 235.924 188.251 236.308 187.977C236.689 187.71 237.114 187.56 237.581 187.528C238.055 187.498 238.523 187.595 238.985 187.819C239.447 188.043 239.81 188.348 240.074 188.735C240.338 189.123 240.484 189.549 240.511 190.014C240.534 190.484 240.433 190.954 240.206 191.422C240.008 191.83 239.752 192.153 239.436 192.393C239.123 192.641 238.768 192.784 238.372 192.822L238.279 192.188C238.589 192.146 238.859 192.032 239.089 191.847C239.325 191.665 239.512 191.433 239.648 191.151C239.814 190.809 239.886 190.463 239.863 190.111C239.844 189.768 239.731 189.451 239.525 189.158C239.316 188.872 239.031 188.641 238.671 188.467C238.305 188.289 237.945 188.207 237.59 188.221C237.238 188.243 236.919 188.351 236.632 188.546C236.349 188.749 236.124 189.022 235.958 189.364C235.822 189.646 235.752 189.934 235.75 190.23C235.748 190.525 235.826 190.807 235.984 191.076L235.429 191.396C235.213 191.062 235.103 190.694 235.098 190.291C235.099 189.892 235.197 189.491 235.391 189.089ZM233.008 195.476L232.477 195.218L234.343 191.367L234.766 191.572L237.094 196.377L238.511 193.453L239.051 193.714L237.237 197.458L236.814 197.253L234.478 192.443L233.008 195.476ZM235.6 200.929C235.312 201.523 234.91 201.909 234.393 202.089C233.88 202.277 233.293 202.211 232.633 201.892L229.889 200.562L230.198 199.923L232.88 201.222C233.372 201.46 233.806 201.519 234.184 201.398C234.561 201.277 234.86 200.989 235.081 200.533C235.328 200.023 235.371 199.544 235.21 199.095C235.053 198.656 234.707 198.307 234.173 198.048L231.689 196.845L231.999 196.206L236.733 198.499L236.436 199.111L235.563 198.689C235.767 199.002 235.872 199.35 235.88 199.731C235.891 200.122 235.798 200.521 235.6 200.929ZM233.146 205.993C232.847 206.611 232.461 207.01 231.989 207.188C231.524 207.37 230.988 207.314 230.382 207.021L227.448 205.599L227.744 204.987L228.482 205.345C228.306 205.082 228.217 204.776 228.216 204.427C228.212 204.084 228.303 203.721 228.489 203.337C228.744 202.809 229.074 202.45 229.477 202.26C229.88 202.07 230.289 202.075 230.703 202.276C231.105 202.471 231.359 202.771 231.465 203.179C231.569 203.592 231.467 204.116 231.158 204.752L230.43 206.255L230.718 206.395C231.126 206.592 231.49 206.628 231.811 206.502C232.137 206.379 232.407 206.098 232.619 205.66C232.764 205.36 232.853 205.047 232.884 204.722C232.922 204.399 232.902 204.097 232.824 203.815L233.44 203.758C233.528 204.097 233.545 204.46 233.49 204.848C233.441 205.24 233.326 205.621 233.146 205.993ZM228.945 203.68C228.77 204.04 228.701 204.388 228.738 204.724C228.781 205.064 228.928 205.372 229.179 205.649L229.953 206.024L230.673 204.539C231.065 203.729 230.979 203.188 230.415 202.914C230.139 202.781 229.87 202.78 229.606 202.911C229.348 203.046 229.128 203.302 228.945 203.68Z" fill="white"/>
<path d="M124.207 257.451L124.899 257.295L126.057 262.426L125.365 262.582L124.207 257.451ZM124.305 256.25C124.161 256.282 124.03 256.261 123.911 256.185C123.791 256.11 123.716 256.004 123.685 255.867C123.656 255.737 123.679 255.612 123.754 255.493C123.83 255.373 123.939 255.297 124.082 255.265C124.225 255.233 124.357 255.254 124.476 255.33C124.594 255.399 124.668 255.498 124.697 255.628C124.73 255.771 124.708 255.903 124.632 256.022C124.557 256.142 124.448 256.218 124.305 256.25ZM129.139 256.297C129.783 256.151 130.336 256.225 130.798 256.517C131.266 256.801 131.58 257.301 131.741 258.016L132.413 260.991L131.72 261.147L131.064 258.24C130.944 257.707 130.719 257.331 130.389 257.111C130.059 256.892 129.647 256.838 129.153 256.95C128.6 257.074 128.199 257.339 127.949 257.744C127.703 258.141 127.646 258.629 127.777 259.208L128.384 261.9L127.692 262.057L126.534 256.926L127.197 256.776L127.41 257.722C127.529 257.368 127.734 257.068 128.028 256.824C128.326 256.572 128.697 256.397 129.139 256.297ZM136.632 259.711C136.529 259.857 136.387 259.985 136.206 260.094C136.031 260.195 135.839 260.269 135.631 260.316C135.15 260.425 134.75 260.378 134.431 260.177C134.112 259.975 133.899 259.637 133.792 259.163L133.092 256.061L132.175 256.268L132.043 255.682L132.959 255.475L132.706 254.354L133.399 254.197L133.652 255.319L135.213 254.967L135.345 255.552L133.784 255.904L134.476 258.967C134.545 259.273 134.672 259.49 134.858 259.619C135.05 259.74 135.288 259.768 135.575 259.703C135.718 259.671 135.849 259.617 135.969 259.542C136.095 259.466 136.198 259.375 136.276 259.268L136.632 259.711ZM141.427 256.486L137.135 257.455C137.294 257.979 137.597 258.365 138.042 258.613C138.486 258.855 138.991 258.912 139.557 258.784C139.875 258.712 140.156 258.591 140.397 258.42C140.638 258.243 140.83 258.021 140.975 257.756L141.467 258.117C141.301 258.441 141.062 258.714 140.749 258.935C140.444 259.154 140.086 259.31 139.676 259.403C139.149 259.522 138.656 259.517 138.197 259.388C137.742 259.252 137.356 259.011 137.039 258.665C136.722 258.32 136.507 257.897 136.394 257.396C136.281 256.896 136.287 256.423 136.412 255.977C136.543 255.531 136.773 255.154 137.1 254.848C137.434 254.541 137.838 254.333 138.313 254.226C138.787 254.119 139.238 254.133 139.665 254.269C140.093 254.405 140.458 254.647 140.762 254.995C141.065 255.337 141.274 255.762 141.388 256.269L141.427 256.486ZM138.447 254.821C137.953 254.933 137.573 255.186 137.306 255.581C137.045 255.968 136.949 256.42 137.018 256.938L140.656 256.116C140.496 255.619 140.212 255.253 139.804 255.017C139.4 254.773 138.948 254.708 138.447 254.821ZM142.816 254.306C142.901 253.925 143.083 253.611 143.362 253.363C143.647 253.114 144.027 252.936 144.502 252.829L144.654 253.502L144.486 253.53C143.946 253.651 143.561 253.913 143.33 254.313C143.099 254.714 143.052 255.213 143.187 255.812L143.777 258.426L143.084 258.582L141.926 253.451L142.589 253.302L142.816 254.306ZM148.107 252.015C148.588 251.906 149.049 251.919 149.489 252.052C149.928 252.178 150.302 252.415 150.613 252.762C150.924 253.108 151.136 253.535 151.251 254.043C151.367 254.556 151.359 255.037 151.227 255.483C151.096 255.93 150.86 256.308 150.519 256.617C150.184 256.918 149.773 257.124 149.285 257.234C148.869 257.328 148.473 257.328 148.096 257.236C147.725 257.135 147.395 256.943 147.105 256.66L147.75 259.518L147.058 259.674L145.472 252.651L146.136 252.501L146.365 253.516C146.496 253.13 146.711 252.809 147.008 252.55C147.311 252.29 147.678 252.112 148.107 252.015ZM149.098 256.63C149.455 256.55 149.762 256.395 150.018 256.166C150.272 255.931 150.446 255.642 150.54 255.3C150.64 254.956 150.646 254.589 150.558 254.199C150.47 253.809 150.308 253.483 150.071 253.222C149.839 252.953 149.558 252.767 149.227 252.664C148.897 252.561 148.552 252.55 148.195 252.631C147.831 252.713 147.521 252.872 147.267 253.107C147.019 253.341 146.845 253.629 146.745 253.973C146.65 254.309 146.646 254.672 146.734 255.062C146.822 255.452 146.982 255.782 147.214 256.051C147.452 256.318 147.733 256.504 148.057 256.609C148.387 256.705 148.733 256.712 149.098 256.63ZM156.886 252.996L152.594 253.965C152.753 254.489 153.056 254.876 153.501 255.124C153.945 255.365 154.45 255.422 155.016 255.294C155.335 255.222 155.615 255.101 155.856 254.93C156.097 254.753 156.289 254.532 156.435 254.267L156.926 254.627C156.76 254.952 156.521 255.225 156.208 255.445C155.903 255.665 155.545 255.821 155.135 255.913C154.608 256.032 154.115 256.027 153.656 255.899C153.201 255.762 152.815 255.521 152.498 255.176C152.181 254.831 151.966 254.407 151.853 253.907C151.74 253.406 151.746 252.933 151.871 252.488C152.002 252.041 152.232 251.665 152.559 251.359C152.893 251.051 153.297 250.844 153.772 250.736C154.247 250.629 154.697 250.644 155.125 250.78C155.552 250.916 155.917 251.158 156.221 251.506C156.524 251.848 156.733 252.272 156.847 252.779L156.886 252.996ZM153.906 251.331C153.412 251.443 153.032 251.696 152.765 252.091C152.504 252.478 152.408 252.931 152.477 253.448L156.116 252.627C155.956 252.13 155.671 251.763 155.263 251.528C154.859 251.284 154.407 251.218 153.906 251.331ZM158.275 250.817C158.36 250.435 158.542 250.121 158.821 249.873C159.106 249.625 159.487 249.446 159.961 249.339L160.113 250.012L159.945 250.04C159.405 250.162 159.02 250.423 158.789 250.824C158.559 251.224 158.511 251.724 158.646 252.322L159.236 254.936L158.543 255.093L157.385 249.962L158.048 249.812L158.275 250.817ZM163.514 254.022C163.098 254.116 162.685 254.148 162.275 254.117C161.87 254.079 161.539 253.993 161.284 253.859L161.472 253.242C161.725 253.363 162.027 253.442 162.377 253.479C162.725 253.51 163.075 253.485 163.426 253.406C163.895 253.3 164.223 253.151 164.412 252.958C164.606 252.757 164.673 252.523 164.612 252.257C164.57 252.068 164.475 251.936 164.328 251.86C164.179 251.777 164.005 251.731 163.805 251.721C163.603 251.706 163.34 251.707 163.016 251.725C162.582 251.741 162.23 251.739 161.959 251.718C161.686 251.691 161.436 251.6 161.21 251.446C160.991 251.29 160.842 251.04 160.764 250.696C160.667 250.267 160.767 249.875 161.063 249.521C161.359 249.167 161.826 248.918 162.463 248.775C162.795 248.7 163.137 248.67 163.489 248.687C163.839 248.696 164.138 248.748 164.385 248.843L164.208 249.467C163.72 249.27 163.183 249.238 162.597 249.37C162.155 249.469 161.838 249.623 161.645 249.831C161.459 250.037 161.395 250.266 161.452 250.52C161.496 250.715 161.593 250.857 161.743 250.946C161.9 251.034 162.079 251.086 162.281 251.102C162.481 251.111 162.754 251.108 163.099 251.091C163.526 251.077 163.872 251.081 164.137 251.103C164.401 251.125 164.643 251.211 164.861 251.36C165.079 251.509 165.226 251.749 165.301 252.081C165.402 252.53 165.294 252.93 164.977 253.282C164.665 253.625 164.177 253.872 163.514 254.022ZM168.716 252.848C168.222 252.959 167.751 252.949 167.305 252.818C166.857 252.68 166.474 252.438 166.157 252.093C165.84 251.747 165.625 251.324 165.511 250.824C165.398 250.323 165.411 249.848 165.549 249.4C165.687 248.952 165.93 248.573 166.276 248.262C166.623 247.952 167.044 247.741 167.538 247.629C168.032 247.517 168.502 247.527 168.949 247.659C169.396 247.791 169.774 248.03 170.085 248.377C170.402 248.722 170.617 249.145 170.73 249.646C170.843 250.146 170.831 250.621 170.693 251.069C170.561 251.515 170.323 251.897 169.977 252.214C169.631 252.525 169.21 252.736 168.716 252.848ZM168.577 252.233C168.941 252.151 169.248 251.996 169.498 251.769C169.752 251.534 169.926 251.245 170.02 250.903C170.113 250.561 170.116 250.194 170.028 249.804C169.94 249.414 169.78 249.084 169.548 248.815C169.317 248.547 169.036 248.364 168.707 248.267C168.383 248.163 168.038 248.152 167.674 248.234C167.31 248.316 167.001 248.475 166.746 248.71C166.497 248.937 166.322 249.222 166.222 249.566C166.128 249.909 166.126 250.275 166.214 250.665C166.302 251.055 166.462 251.385 166.693 251.654C166.931 251.921 167.213 252.107 167.537 252.212C167.866 252.308 168.213 252.315 168.577 252.233ZM173.878 246.198C174.522 246.053 175.075 246.126 175.537 246.418C176.004 246.702 176.319 247.202 176.48 247.917L177.152 250.892L176.459 251.049L175.803 248.142C175.683 247.608 175.458 247.232 175.128 247.013C174.798 246.793 174.386 246.739 173.892 246.851C173.339 246.976 172.938 247.241 172.687 247.646C172.442 248.043 172.385 248.531 172.515 249.109L173.123 251.802L172.431 251.958L171.272 246.827L171.936 246.677L172.149 247.624C172.267 247.269 172.473 246.969 172.767 246.726C173.065 246.474 173.436 246.298 173.878 246.198ZM179.367 244.959C180.037 244.808 180.589 244.861 181.023 245.118C181.456 245.369 181.746 245.823 181.894 246.48L182.612 249.66L181.949 249.809L181.768 249.01C181.672 249.311 181.488 249.572 181.216 249.79C180.951 250.007 180.61 250.163 180.194 250.257C179.622 250.386 179.136 250.352 178.736 250.155C178.336 249.959 178.086 249.636 177.984 249.187C177.886 248.751 177.963 248.365 178.215 248.028C178.473 247.689 178.947 247.442 179.636 247.287L181.265 246.919L181.195 246.607C181.095 246.165 180.896 245.858 180.598 245.686C180.298 245.507 179.91 245.472 179.436 245.579C179.11 245.652 178.811 245.778 178.537 245.956C178.261 246.128 178.037 246.332 177.865 246.569L177.436 246.123C177.646 245.843 177.92 245.603 178.258 245.404C178.594 245.198 178.964 245.05 179.367 244.959ZM180.178 249.686C180.568 249.598 180.883 249.435 181.123 249.196C181.362 248.951 181.511 248.644 181.572 248.275L181.382 247.436L179.773 247.799C178.895 247.997 178.525 248.402 178.663 249.013C178.73 249.313 178.898 249.524 179.165 249.648C179.431 249.766 179.768 249.779 180.178 249.686ZM182.567 242.063L183.259 241.907L184.893 249.145L184.2 249.301L182.567 242.063ZM187.975 243.016C188.619 242.871 189.172 242.944 189.634 243.236C190.101 243.52 190.416 244.02 190.577 244.735L191.249 247.71L190.556 247.867L189.9 244.96C189.78 244.426 189.555 244.05 189.225 243.831C188.895 243.611 188.483 243.557 187.989 243.669C187.436 243.794 187.035 244.059 186.784 244.464C186.539 244.861 186.482 245.349 186.612 245.927L187.22 248.62L186.527 248.776L185.369 243.645L186.033 243.495L186.246 244.441C186.364 244.087 186.57 243.787 186.864 243.543C187.162 243.292 187.533 243.116 187.975 243.016ZM193.464 241.777C194.134 241.626 194.686 241.679 195.12 241.936C195.552 242.187 195.843 242.641 195.991 243.298L196.709 246.478L196.046 246.627L195.865 245.828C195.769 246.129 195.585 246.39 195.313 246.608C195.048 246.825 194.707 246.981 194.291 247.075C193.719 247.204 193.233 247.17 192.833 246.973C192.433 246.777 192.183 246.454 192.081 246.005C191.983 245.569 192.06 245.183 192.312 244.846C192.57 244.507 193.044 244.26 193.733 244.105L195.362 243.737L195.292 243.425C195.192 242.983 194.993 242.676 194.694 242.504C194.394 242.325 194.007 242.29 193.532 242.397C193.207 242.47 192.908 242.596 192.633 242.774C192.358 242.946 192.134 243.15 191.962 243.387L191.533 242.941C191.743 242.661 192.017 242.421 192.355 242.222C192.691 242.016 193.061 241.868 193.464 241.777ZM194.275 246.504C194.665 246.416 194.98 246.253 195.22 246.014C195.459 245.769 195.608 245.462 195.668 245.093L195.479 244.254L193.87 244.617C192.992 244.815 192.622 245.22 192.76 245.831C192.827 246.131 192.995 246.342 193.262 246.466C193.528 246.584 193.865 246.597 194.275 246.504Z" fill="white"/>
<path d="M32.0843 202.966L32.6383 203.41L29.3488 207.515L28.7948 207.071L32.0843 202.966ZM33.0844 202.294C32.97 202.202 32.905 202.086 32.8895 201.946C32.874 201.805 32.91 201.68 32.9976 201.571C33.081 201.467 33.1929 201.407 33.3335 201.392C33.4741 201.376 33.6016 201.414 33.716 201.506C33.8305 201.598 33.8955 201.714 33.9109 201.854C33.9306 201.99 33.8988 202.109 33.8154 202.213C33.7236 202.328 33.6075 202.393 33.4669 202.408C33.3264 202.424 33.1988 202.386 33.0844 202.294ZM36.0621 206.103C36.5771 206.516 36.8645 206.994 36.9245 207.537C36.9937 208.08 36.7991 208.637 36.3405 209.209L34.4331 211.589L33.879 211.145L35.7427 208.82C36.0845 208.393 36.2385 207.983 36.2044 207.588C36.1704 207.194 35.9557 206.838 35.5604 206.521C35.1182 206.167 34.6607 206.018 34.188 206.075C33.7246 206.131 33.3074 206.39 32.9364 206.853L31.2103 209.007L30.6563 208.563L33.9458 204.458L34.4764 204.883L33.8698 205.64C34.2208 205.511 34.5831 205.486 34.9568 205.563C35.3399 205.639 35.7083 205.819 36.0621 206.103ZM38.0647 214.09C37.8856 214.1 37.6972 214.069 37.4994 213.996C37.311 213.922 37.1336 213.818 36.9672 213.684C36.5822 213.376 36.3691 213.034 36.3277 212.659C36.2864 212.284 36.4179 211.907 36.7223 211.527L38.711 209.046L37.9775 208.458L38.3527 207.99L39.0862 208.578L39.8054 207.68L40.3594 208.124L39.6402 209.022L40.8888 210.022L40.5135 210.491L39.265 209.49L37.3013 211.94C37.1054 212.185 37.0151 212.42 37.0305 212.646C37.0553 212.871 37.1822 213.075 37.4111 213.258C37.5255 213.35 37.6493 213.42 37.7826 213.466C37.921 213.518 38.0563 213.541 38.1886 213.536L38.0647 214.09ZM41.815 212.085C42.166 211.913 42.5253 211.859 42.8928 211.923C43.2654 211.991 43.6417 212.177 44.0214 212.482L43.5899 213.02L43.4635 212.906C43.0317 212.56 42.5873 212.422 42.1301 212.491C41.673 212.56 41.2527 212.834 40.8691 213.313L39.1931 215.404L38.639 214.96L41.9285 210.856L42.4592 211.281L41.815 212.085ZM46.2186 214.243C46.7544 214.672 47.057 215.137 47.1263 215.637C47.1998 216.131 47.026 216.641 46.6049 217.167L44.5662 219.71L44.0356 219.285L44.5484 218.645C44.2526 218.759 43.9345 218.777 43.5941 218.701C43.2589 218.629 42.9249 218.459 42.5919 218.192C42.1341 217.825 41.8575 217.424 41.7621 216.989C41.6667 216.554 41.7629 216.157 42.0505 215.798C42.3299 215.449 42.6799 215.268 43.1005 215.255C43.5263 215.246 44.015 215.463 44.5664 215.905L45.8695 216.949L46.0697 216.699C46.3532 216.345 46.469 215.998 46.4173 215.658C46.3697 215.312 46.156 214.987 45.7763 214.683C45.5162 214.474 45.231 214.318 44.9208 214.215C44.6148 214.106 44.3155 214.059 44.023 214.072L44.1047 213.458C44.4546 213.448 44.8127 213.513 45.179 213.653C45.5496 213.788 45.8961 213.984 46.2186 214.243ZM43.028 217.824C43.3401 218.074 43.6643 218.219 44.0006 218.258C44.341 218.291 44.6742 218.217 45.0003 218.034L45.5381 217.362L44.2506 216.331C43.5483 215.768 43.0012 215.731 42.6093 216.22C42.4175 216.459 42.3564 216.722 42.4259 217.008C42.4995 217.29 42.7002 217.561 43.028 217.824ZM51.2661 218.288C51.651 218.596 51.9287 218.964 52.0991 219.391C52.2736 219.813 52.3222 220.254 52.2447 220.713C52.1673 221.172 51.966 221.604 51.6408 222.01C51.3114 222.421 50.9311 222.714 50.4999 222.89C50.0687 223.065 49.6262 223.116 49.1723 223.043C48.7278 222.969 48.3105 222.775 47.9203 222.463C47.5874 222.196 47.3398 221.886 47.1777 221.534C47.025 221.181 46.9691 220.803 47.0101 220.4L45.1777 222.687L44.6237 222.243L49.1264 216.624L49.657 217.05L49.0066 217.861C49.3899 217.724 49.7751 217.691 50.1624 217.762C50.5548 217.838 50.9227 218.013 51.2661 218.288ZM48.2753 221.94C48.5614 222.169 48.8736 222.313 49.2119 222.37C49.5544 222.422 49.8887 222.378 50.2147 222.238C50.5459 222.102 50.8366 221.878 51.0867 221.566C51.3369 221.254 51.4902 220.924 51.5468 220.576C51.6127 220.227 51.5828 219.892 51.4571 219.569C51.3314 219.246 51.1254 218.97 50.8393 218.74C50.548 218.507 50.2311 218.364 49.8886 218.312C49.5513 218.264 49.2171 218.307 48.8859 218.444C48.564 218.579 48.278 218.802 48.0279 219.114C47.7777 219.427 47.6197 219.757 47.5538 220.106C47.4931 220.459 47.523 220.794 47.6435 221.113C47.7734 221.431 47.984 221.706 48.2753 221.94ZM55.9723 225.763L52.5389 223.012C52.2283 223.463 52.1149 223.941 52.1988 224.443C52.2868 224.941 52.5572 225.371 53.0098 225.734C53.2647 225.938 53.5342 226.082 53.8184 226.164C54.1067 226.242 54.3998 226.254 54.6976 226.203L54.722 226.812C54.3649 226.884 54.0025 226.867 53.6351 226.761C53.2729 226.658 52.9279 226.476 52.6002 226.213C52.1788 225.876 51.8751 225.487 51.6891 225.047C51.5125 224.607 51.4603 224.155 51.5326 223.692C51.6048 223.228 51.8015 222.797 52.1225 222.396C52.4435 221.995 52.817 221.705 53.243 221.526C53.6742 221.35 54.1115 221.295 54.555 221.36C55.0037 221.429 55.4179 221.615 55.7977 221.92C56.1774 222.224 56.4473 222.586 56.6073 223.004C56.7672 223.423 56.8059 223.86 56.7233 224.315C56.6448 224.764 56.4429 225.192 56.1177 225.598L55.9723 225.763ZM55.4162 222.396C55.0208 222.079 54.5858 221.94 54.1109 221.978C53.6455 222.015 53.232 222.222 52.8704 222.598L55.781 224.931C56.0698 224.496 56.179 224.045 56.1086 223.579C56.0476 223.111 55.8168 222.717 55.4162 222.396ZM58.5425 225.491C58.8936 225.319 59.2528 225.266 59.6203 225.329C59.993 225.397 60.3692 225.584 60.7489 225.888L60.3174 226.426L60.191 226.312C59.7592 225.966 59.3148 225.828 58.8577 225.897C58.4005 225.967 57.9802 226.24 57.5966 226.719L55.9206 228.81L55.3666 228.366L58.6561 224.262L59.1867 224.687L58.5425 225.491ZM59.3029 231.585C58.97 231.318 58.6876 231.015 58.4557 230.675C58.2332 230.335 58.0945 230.023 58.0395 229.74L58.6395 229.503C58.7027 229.776 58.829 230.06 59.0182 230.357C59.2116 230.649 59.4488 230.907 59.7297 231.133C60.1042 231.433 60.4258 231.597 60.6944 231.624C60.9724 231.65 61.1968 231.557 61.3678 231.343C61.4887 231.192 61.5331 231.036 61.5009 230.873C61.473 230.706 61.4002 230.541 61.2827 230.378C61.1694 230.21 61.0045 230.006 60.7882 229.764C60.5053 229.435 60.2874 229.157 60.1345 228.932C59.9859 228.702 59.9012 228.451 59.8806 228.178C59.8653 227.909 59.9681 227.637 60.189 227.361C60.4642 227.018 60.8324 226.852 61.2936 226.863C61.7548 226.873 62.2403 227.083 62.7502 227.492C63.0155 227.704 63.2516 227.953 63.4585 228.239C63.6696 228.519 63.8152 228.785 63.8951 229.037L63.2968 229.288C63.1462 228.783 62.8369 228.343 62.3687 227.968C62.0149 227.684 61.697 227.532 61.4149 227.511C61.1379 227.494 60.9182 227.587 60.7556 227.79C60.6305 227.946 60.5798 228.11 60.6036 228.283C60.6326 228.46 60.7038 228.633 60.8171 228.8C60.9346 228.963 61.1073 229.174 61.3351 229.433C61.6128 229.758 61.8255 230.031 61.9731 230.252C62.1208 230.473 62.2044 230.715 62.2239 230.979C62.2435 231.242 62.1469 231.506 61.9343 231.772C61.6466 232.131 61.2665 232.296 60.7938 232.267C60.3305 232.238 59.8336 232.01 59.3029 231.585ZM63.4641 234.92C63.0687 234.603 62.7832 234.229 62.6076 233.798C62.4362 233.362 62.3867 232.912 62.4589 232.448C62.5312 231.985 62.7278 231.553 63.0488 231.153C63.3698 230.752 63.7486 230.466 64.185 230.295C64.6213 230.123 65.0691 230.076 65.5282 230.154C65.9873 230.231 66.4145 230.428 66.8098 230.745C67.2052 231.062 67.4907 231.436 67.6662 231.867C67.8418 232.299 67.8909 232.744 67.8134 233.203C67.7412 233.666 67.5446 234.098 67.2235 234.499C66.9025 234.899 66.5238 235.185 66.0874 235.356C65.6562 235.532 65.209 235.584 64.7457 235.511C64.2866 235.434 63.8594 235.237 63.4641 234.92ZM63.858 234.428C64.1494 234.662 64.4616 234.805 64.7947 234.859C65.1372 234.911 65.4715 234.867 65.7975 234.727C66.1235 234.587 66.4116 234.36 66.6617 234.048C66.9119 233.736 67.0699 233.406 67.1358 233.057C67.2017 232.708 67.1697 232.375 67.0398 232.057C66.9193 231.739 66.7134 231.463 66.4221 231.229C66.1308 230.996 65.8139 230.853 65.4714 230.8C65.1383 230.747 64.8061 230.788 64.4749 230.924C64.1489 231.065 63.8608 231.291 63.6106 231.603C63.3605 231.915 63.2025 232.246 63.1366 232.594C63.0759 232.947 63.1058 233.283 63.2263 233.602C63.3561 233.919 63.5667 234.195 63.858 234.428ZM71.8816 234.81C72.3966 235.223 72.684 235.701 72.7439 236.244C72.8132 236.787 72.6186 237.344 72.16 237.917L70.2525 240.296L69.6985 239.852L71.5621 237.527C71.904 237.101 72.058 236.69 72.0239 236.295C71.9899 235.901 71.7752 235.545 71.3799 235.228C70.9377 234.874 70.4802 234.725 70.0075 234.782C69.5441 234.838 69.1269 235.097 68.7559 235.56L67.0298 237.714L66.4758 237.27L69.7653 233.165L70.2959 233.59L69.6893 234.347C70.0403 234.219 70.4026 234.193 70.7763 234.27C71.1594 234.347 71.5278 234.526 71.8816 234.81ZM76.2729 238.329C76.8087 238.759 77.1113 239.223 77.1806 239.723C77.2541 240.218 77.0803 240.728 76.6592 241.253L74.6205 243.797L74.0898 243.372L74.6026 242.732C74.3069 242.845 73.9888 242.864 73.6484 242.787C73.3132 242.715 72.9791 242.546 72.6462 242.279C72.1884 241.912 71.9118 241.511 71.8164 241.076C71.721 240.64 71.8171 240.243 72.1048 239.884C72.3841 239.536 72.7341 239.355 73.1548 239.342C73.5806 239.333 74.0692 239.549 74.6207 239.991L75.9238 241.036L76.1239 240.786C76.4074 240.432 76.5233 240.085 76.4715 239.744C76.424 239.399 76.2103 239.074 75.8305 238.769C75.5704 238.561 75.2853 238.405 74.9751 238.302C74.6691 238.193 74.3698 238.145 74.0772 238.159L74.159 237.545C74.5088 237.535 74.8669 237.6 75.2333 237.74C75.6038 237.874 75.9503 238.071 76.2729 238.329ZM73.0822 241.911C73.3944 242.161 73.7186 242.305 74.0548 242.344C74.3952 242.378 74.7285 242.303 75.0545 242.12L75.5924 241.449L74.3048 240.417C73.6025 239.854 73.0554 239.817 72.6635 240.306C72.4718 240.546 72.4106 240.809 72.4801 241.095C72.5538 241.376 72.7545 241.648 73.0822 241.911ZM80.5315 239.026L81.0855 239.47L76.4452 245.26L75.8912 244.815L80.5315 239.026ZM83.1584 243.848C83.6734 244.26 83.9609 244.739 84.0208 245.282C84.0901 245.825 83.8954 246.382 83.4368 246.954L81.5294 249.334L80.9754 248.89L82.839 246.565C83.1809 246.138 83.3348 245.728 83.3008 245.333C83.2668 244.938 83.0521 244.583 82.6567 244.266C82.2146 243.911 81.7571 243.763 81.2844 243.819C80.821 243.875 80.4038 244.135 80.0327 244.598L78.3067 246.751L77.7526 246.307L81.0421 242.203L81.5728 242.628L80.9661 243.385C81.3171 243.256 81.6795 243.231 82.0532 243.308C82.4363 243.384 82.8047 243.564 83.1584 243.848ZM87.5497 247.367C88.0856 247.796 88.3881 248.261 88.4575 248.761C88.5309 249.256 88.3571 249.766 87.9361 250.291L85.8973 252.835L85.3667 252.41L85.8795 251.77C85.5837 251.883 85.2656 251.901 84.9252 251.825C84.5901 251.753 84.256 251.583 83.9231 251.317C83.4653 250.95 83.1887 250.549 83.0933 250.113C82.9979 249.678 83.094 249.281 83.3817 248.922C83.661 248.573 84.011 248.393 84.4316 248.379C84.8575 248.37 85.3461 248.587 85.8975 249.029L87.2007 250.073L87.4008 249.824C87.6843 249.47 87.8002 249.123 87.7484 248.782C87.7008 248.436 87.4871 248.111 87.1074 247.807C86.8473 247.599 86.5621 247.443 86.252 247.339C85.946 247.231 85.6467 247.183 85.3541 247.196L85.4358 246.583C85.7857 246.573 86.1438 246.638 86.5101 246.777C86.8807 246.912 87.2272 247.109 87.5497 247.367ZM84.3591 250.948C84.6712 251.199 84.9954 251.343 85.3317 251.382C85.6721 251.416 86.0054 251.341 86.3314 251.158L86.8692 250.487L85.5817 249.455C84.8794 248.892 84.3323 248.855 83.9404 249.344C83.7486 249.583 83.6875 249.846 83.757 250.133C83.8307 250.414 84.0314 250.686 84.3591 250.948Z" fill="white"/>
<path d="M32.3075 58.3223L32.8637 57.881L37.4756 63.6936L36.9194 64.1349L32.3075 58.3223ZM35.5188 58.5316L36.075 58.0903L39.3444 62.2108L38.7882 62.6521L35.5188 58.5316ZM35.086 57.407C34.9711 57.4981 34.8434 57.5356 34.7029 57.5194C34.5625 57.5033 34.4487 57.4403 34.3617 57.3307C34.2788 57.2262 34.2455 57.1037 34.2616 56.9632C34.2778 56.8228 34.3434 56.7069 34.4583 56.6158C34.5731 56.5246 34.7008 56.4871 34.8413 56.5033C34.9777 56.5142 35.0873 56.572 35.1702 56.6764C35.2613 56.7913 35.2988 56.919 35.2826 57.0595C35.2665 57.2 35.2009 57.3158 35.086 57.407ZM39.4621 55.3517C39.9792 54.9415 40.5093 54.7677 41.0525 54.8302C41.5968 54.8834 42.0969 55.1973 42.5527 55.7717L44.4485 58.161L43.8923 58.6023L42.04 56.2679C41.7002 55.8396 41.3342 55.5982 40.9419 55.5435C40.5496 55.4888 40.155 55.619 39.7581 55.9339C39.3142 56.2861 39.0673 56.699 39.0175 57.1725C38.9688 57.6367 39.1289 58.1012 39.4977 58.566L41.2132 60.7281L40.657 61.1694L37.3876 57.0488L37.9203 56.6262L38.5232 57.386C38.4757 57.0152 38.5313 56.6562 38.6899 56.3091C38.8496 55.9526 39.107 55.6335 39.4621 55.3517ZM46.2844 49.9897L49.156 53.6089C49.7112 54.3087 49.9491 54.9625 49.8696 55.5702C49.7995 56.179 49.4198 56.7569 48.7304 57.3039C48.3492 57.6063 47.9406 57.8369 47.5048 57.9955C47.0783 58.1552 46.6793 58.2207 46.3077 58.1921L46.2541 57.5454C46.5934 57.5655 46.9434 57.5133 47.3042 57.3887C47.6702 57.26 48.0098 57.0714 48.3232 56.8228C48.8454 56.4084 49.1319 55.9811 49.1826 55.5409C49.2374 55.1059 49.0618 54.6325 48.6557 54.1207L48.2393 53.5959C48.2741 53.9937 48.2044 54.3724 48.0301 54.732C47.8611 55.0874 47.6068 55.3997 47.2674 55.6691C46.8809 55.9757 46.4621 56.1719 46.0109 56.2575C45.5608 56.3338 45.1242 56.293 44.7011 56.1351C44.279 55.9679 43.9147 55.691 43.6081 55.3046C43.3014 54.9181 43.1167 54.503 43.054 54.0592C42.9964 53.6113 43.058 53.1794 43.2388 52.7637C43.4195 52.3479 43.7057 51.9847 44.0974 51.6739C44.4473 51.3963 44.8192 51.2161 45.2131 51.1333C45.607 51.0506 45.9958 51.074 46.3794 51.2036L45.7517 50.4124L46.2844 49.9897ZM46.9306 55.1321C47.2283 54.8959 47.4475 54.6198 47.5883 54.3038C47.7249 53.9827 47.7674 53.6554 47.7156 53.322C47.6691 52.9845 47.5298 52.6695 47.2977 52.377C47.0657 52.0846 46.7927 51.8799 46.4787 51.7631C46.1658 51.6369 45.8395 51.6064 45.4999 51.6717C45.1613 51.7276 44.8405 51.8757 44.5376 52.1161C44.2399 52.3523 44.0207 52.6283 43.8799 52.9443C43.7444 53.2561 43.6998 53.5808 43.7464 53.9183C43.7981 54.2517 43.94 54.5646 44.1721 54.8571C44.4041 55.1495 44.6766 55.3588 44.9895 55.485C45.3076 55.6071 45.636 55.6402 45.9746 55.5842C46.3142 55.519 46.6329 55.3682 46.9306 55.1321ZM53.6523 44.1437L55.3628 49.5011L54.8379 49.9176L50.8586 47.573L52.2372 51.9811L51.7123 52.3976L46.8918 49.5077L47.4245 49.0851L51.4955 51.5612L50.041 47.0091L50.5188 46.6299L54.6133 49.0874L53.1431 44.5477L53.6523 44.1437ZM54.2548 43.6657L54.811 43.2244L58.0804 47.3449L57.5242 47.7862L54.2548 43.6657ZM53.822 42.541C53.7071 42.6322 53.5794 42.6697 53.4389 42.6535C53.2984 42.6373 53.1847 42.5744 53.0976 42.4647C53.0148 42.3603 52.9814 42.2378 52.9976 42.0973C53.0138 41.9568 53.0793 41.841 53.1942 41.7498C53.3091 41.6587 53.4368 41.6212 53.5773 41.6374C53.7136 41.6483 53.8233 41.706 53.9061 41.8105C53.9973 41.9254 54.0348 42.0531 54.0186 42.1936C54.0024 42.3341 53.9369 42.4499 53.822 42.541ZM60.5286 45.4662C60.1943 45.7314 59.8358 45.9392 59.4531 46.0897C59.0715 46.2308 58.7365 46.2966 58.4481 46.2872L58.3507 45.6496C58.6308 45.6486 58.9366 45.5889 59.2682 45.4705C59.5956 45.3469 59.9003 45.1732 60.1824 44.9494C60.5584 44.6511 60.7896 44.374 60.876 44.1183C60.9635 43.8531 60.9223 43.6135 60.7524 43.3994C60.6322 43.2479 60.4893 43.1698 60.3238 43.1649C60.1542 43.1549 59.977 43.189 59.7924 43.2674C59.6037 43.3406 59.3674 43.4557 59.0836 43.6129C58.6996 43.8154 58.3809 43.9661 58.1275 44.0651C57.87 44.1588 57.6059 44.1853 57.3354 44.1447C57.0701 44.0999 56.8276 43.9391 56.608 43.6623C56.3345 43.3176 56.2544 42.9216 56.3676 42.4744C56.4808 42.0271 56.7933 41.6005 57.3051 41.1944C57.5714 40.9831 57.8668 40.8083 58.1911 40.6701C58.5113 40.5266 58.8032 40.444 59.0667 40.4221L59.1781 41.0613C58.6522 41.0957 58.1542 41.2993 57.6842 41.6722C57.3291 41.954 57.1098 42.2301 57.0265 42.5005C56.9484 42.7667 56.9901 43.0016 57.1517 43.2053C57.2761 43.362 57.4251 43.448 57.5989 43.4632C57.778 43.4744 57.9619 43.4433 58.1506 43.3702C58.3352 43.2918 58.5793 43.1704 58.883 43.0061C59.2617 42.8077 59.5752 42.6611 59.8233 42.5663C60.0715 42.4715 60.3262 42.4439 60.5874 42.4835C60.8485 42.5231 61.0848 42.676 61.2961 42.9424C61.582 43.3027 61.6585 43.7101 61.5255 44.1646C61.3936 44.6097 61.0612 45.0436 60.5286 45.4662ZM64.9616 41.4765C64.9318 41.6534 64.8592 41.8301 64.744 42.0066C64.6298 42.1738 64.4892 42.3237 64.3221 42.4563C63.9356 42.7629 63.5551 42.8946 63.1804 42.8515C62.8058 42.8083 62.4672 42.5962 62.1647 42.2149L60.1881 39.7238L59.4518 40.3081L59.0788 39.838L59.8152 39.2538L59.1004 38.3529L59.6566 37.9116L60.3714 38.8125L61.6248 37.818L61.9977 38.288L60.7443 39.2825L62.696 41.7423C62.8908 41.9877 63.1 42.1281 63.3237 42.1633C63.5485 42.1892 63.7758 42.111 64.0056 41.9287C64.1205 41.8375 64.2157 41.7322 64.2911 41.6128C64.3718 41.4892 64.4243 41.3624 64.4488 41.2324L64.9616 41.4765ZM66.0546 34.3032L67.6553 40.5519C67.7949 41.071 67.8192 41.4985 67.7283 41.8344C67.6374 42.1703 67.4379 42.4605 67.1298 42.705C66.9313 42.8625 66.721 42.9782 66.499 43.0523C66.2769 43.1264 66.0535 43.1505 65.8287 43.1246L65.7578 42.5043C66.1324 42.5474 66.466 42.453 66.7584 42.2209C66.9465 42.0718 67.0643 41.8932 67.112 41.6851C67.1649 41.4729 67.1493 41.1959 67.0653 40.8541L66.9285 40.3116L61.8244 37.6596L62.4041 37.1996L66.7336 39.4706L65.5063 34.7383L66.0546 34.3032ZM71.4964 36.7639C71.089 37.0871 70.653 37.2884 70.1883 37.3677C69.7289 37.4429 69.2814 37.3937 68.8458 37.2202C68.4061 37.0414 68.0267 36.751 67.7077 36.3489C67.3886 35.9467 67.1941 35.5139 67.1241 35.0503C67.0541 34.5867 67.108 34.1397 67.2857 33.7094C67.4686 33.2749 67.7637 32.8961 68.171 32.5728C68.5262 32.2911 68.8981 32.1109 69.2867 32.0323C69.6765 31.9443 70.058 31.9692 70.4312 32.1071L70.2398 32.7186C69.9424 32.6226 69.6499 32.6079 69.3623 32.6745C69.0705 32.7358 68.8019 32.8638 68.5564 33.0585C68.2587 33.2947 68.0436 33.576 67.9111 33.9024C67.7797 34.2194 67.7435 34.5546 67.8025 34.9077C67.8667 35.2568 68.0231 35.588 68.2717 35.9013C68.5245 36.2199 68.8135 36.4501 69.1388 36.592C69.4652 36.7245 69.7998 36.7654 70.1425 36.7147C70.4864 36.6547 70.8071 36.5065 71.1048 36.2703C71.3503 36.0756 71.5381 35.8457 71.6682 35.5807C71.7984 35.3158 71.8506 35.0276 71.8248 34.7162L72.4637 34.6688C72.5131 35.0636 72.4528 35.4433 72.2826 35.8081C72.1084 36.1676 71.8463 36.4862 71.4964 36.7639ZM76.415 32.0442L76.7817 32.5064L73.4289 35.1667L73.1368 34.7985L73.1254 29.4588L70.5795 31.4789L70.2065 31.0089L73.4653 28.4232L73.7575 28.7914L73.7751 34.1389L76.415 32.0442ZM76.4466 26.0067C76.9636 25.5964 77.4937 25.4226 78.037 25.4852C78.5813 25.5384 79.0814 25.8522 79.5372 26.4267L81.4329 28.816L80.8767 29.2573L79.0245 26.9228C78.6847 26.4946 78.3187 26.2531 77.9264 26.1985C77.5341 26.1438 77.1395 26.2739 76.7426 26.5888C76.2986 26.941 76.0518 27.3539 76.002 27.8274C75.9533 28.2916 76.1133 28.7561 76.4821 29.2209L78.1976 31.383L77.6414 31.8243L74.372 27.7038L74.9047 27.2811L75.5076 28.041C75.4602 27.6701 75.5158 27.3112 75.6744 26.964C75.8341 26.6076 76.0915 26.2884 76.4466 26.0067ZM80.8551 22.5088C81.393 22.082 81.9133 21.8904 82.416 21.9341C82.9146 21.9725 83.3731 22.2555 83.7916 22.783L85.8179 25.3367L85.2852 25.7594L84.7755 25.117C84.8201 25.4306 84.7673 25.7448 84.6171 26.0597C84.4722 26.3704 84.2326 26.6584 83.8984 26.9236C83.4388 27.2882 82.9862 27.4686 82.5406 27.4647C82.095 27.4609 81.7292 27.2788 81.4433 26.9184C81.1657 26.5685 81.0673 26.1871 81.1481 25.774C81.2341 25.3569 81.5539 24.9287 82.1074 24.4894L83.4157 23.4514L83.2168 23.2008C82.935 22.8456 82.6224 22.6554 82.2789 22.6301C81.9313 22.5995 81.5668 22.7355 81.1856 23.038C80.9245 23.2452 80.709 23.4885 80.5392 23.7679C80.3653 24.042 80.2522 24.3232 80.2001 24.6114L79.62 24.3951C79.688 24.0518 79.8309 23.7171 80.0488 23.3911C80.2625 23.0598 80.5313 22.7657 80.8551 22.5088ZM83.6365 26.4165C83.9498 26.1679 84.1628 25.884 84.2755 25.5648C84.3841 25.2404 84.3854 24.8989 84.2796 24.5403L83.7451 23.8666L82.4525 24.8922C81.7475 25.4516 81.5897 25.9768 81.9793 26.4677C82.1699 26.7079 82.4125 26.826 82.7072 26.822C82.9977 26.8127 83.3075 26.6776 83.6365 26.4165Z" fill="white"/>
<g opacity="0.3">
<path d="M104.393 263.627C84.9137 259.183 66.6868 250.409 51.0664 237.956C35.4461 225.503 22.8336 209.691 14.166 191.696L134.001 134.002L104.393 263.627Z" stroke="white"/>
<path d="M267 133.996C266.998 153.971 262.495 173.689 253.823 191.685C245.153 209.681 232.538 225.494 216.914 237.949L134 134.002L267 133.996Z" stroke="white"/>
<path d="M216.934 30.0489C232.554 42.5019 245.167 58.3136 253.834 76.3093C262.502 94.3051 267.002 114.022 267 133.996L134 134.002L216.934 30.0489Z" stroke="white"/>
<path d="M104.417 4.38026C123.897 -0.0652597 144.128 -0.0661355 163.607 4.3777C183.086 8.82153 201.313 17.5958 216.933 30.0489L134 134.002L104.417 4.38026Z" stroke="white"/>
<path d="M14.1768 76.3197C22.8477 58.3231 35.4631 42.5104 51.0857 30.056C66.7085 17.6017 84.9369 8.82578 104.417 4.38025L134.001 134.002L14.1768 76.3197Z" stroke="white"/>
<path d="M14.1657 191.696C5.49816 173.7 0.998137 153.982 1 134.008C1.00185 114.034 5.50555 94.3161 14.1765 76.3197L134 134.002L14.1657 191.696Z" stroke="white"/>
<path d="M216.914 237.949C201.292 250.403 183.064 259.178 163.584 263.625C144.103 268.07 123.872 268.071 104.393 263.627L134 134.002L216.914 237.949Z" stroke="white"/>
<path d="M133.991 213.795C178.049 213.789 213.77 178.061 213.775 133.994C213.781 89.9271 178.07 54.2083 134.012 54.214C89.9538 54.2197 54.2332 89.9476 54.2275 134.015C54.2219 178.081 89.9333 213.8 133.991 213.795Z" stroke="white"/>
<path d="M133.989 240.391C192.733 240.384 240.36 192.747 240.367 133.991C240.375 75.2345 192.76 27.6095 134.016 27.617C75.2725 27.6246 27.6452 75.2619 27.6377 134.018C27.6301 192.774 75.2452 240.399 133.989 240.391Z" stroke="white"/>
<path opacity="0.5" d="M133.981 266.987C207.411 266.977 266.947 207.429 266.957 133.984C266.968 60.5389 207.449 1.00839 134.019 1.01891C60.5893 1.02943 1.05397 60.577 1.04345 134.022C1.03292 207.467 60.5512 266.998 133.981 266.987Z" stroke="white"/>
<path d="M133.996 187.198C163.368 187.194 187.181 163.375 187.185 133.997C187.189 104.619 163.381 80.807 134.009 80.8107C104.637 80.8145 80.8236 104.633 80.8198 134.011C80.816 163.389 104.624 187.202 133.996 187.198Z" stroke="white"/>
</g>
<path d="M15.3687 163.44L16.5057 164.683L18.0057 164.687L18.0039 165.397L10.584 165.379L10.5857 164.669L15.6157 164.681L12.7534 161.534L12.7555 160.654L14.9 162.909L18.016 160.457L18.0139 161.327L15.3687 163.44ZM12.7577 159.756L12.7594 159.046L18.0194 159.059L18.0177 159.769L12.7577 159.756ZM11.6086 159.393C11.6082 159.54 11.5579 159.663 11.4577 159.763C11.3574 159.863 11.2373 159.912 11.0973 159.912C10.964 159.912 10.8475 159.861 10.7477 159.761C10.6479 159.661 10.5982 159.537 10.5986 159.391C10.599 159.244 10.6493 159.121 10.7495 159.021C10.8431 158.921 10.9565 158.872 11.0899 158.872C11.2365 158.872 11.3597 158.923 11.4595 159.023C11.5593 159.123 11.609 159.247 11.6086 159.393ZM12.7301 154.69C12.7317 154.03 12.9263 153.508 13.3139 153.122C13.6949 152.729 14.252 152.534 14.9854 152.536L18.0354 152.543L18.0336 153.253L15.0536 153.246C14.507 153.245 14.09 153.38 13.8026 153.653C13.5153 153.926 13.371 154.315 13.3698 154.822C13.3684 155.389 13.5373 155.839 13.8765 156.173C14.209 156.501 14.6719 156.665 15.2653 156.667L18.0253 156.673L18.0235 157.383L12.7635 157.371L12.7652 156.691L13.7352 156.693C13.4157 156.499 13.1697 156.232 12.9972 155.891C12.818 155.544 12.729 155.144 12.7301 154.69ZM15.6406 146.31L15.6298 150.71C16.1766 150.672 16.6204 150.463 16.9614 150.084C17.2956 149.705 17.4635 149.225 17.4649 148.645C17.4657 148.318 17.4097 148.018 17.2971 147.745C17.1777 147.471 17.005 147.234 16.7788 147.033L17.2398 146.634C17.5192 146.868 17.7318 147.162 17.8776 147.516C18.0235 147.863 18.0959 148.246 18.0948 148.666C18.0935 149.206 17.979 149.686 17.7513 150.106C17.517 150.518 17.1962 150.841 16.7889 151.073C16.3817 151.306 15.9214 151.421 15.4081 151.42C14.8948 151.419 14.435 151.308 14.0289 151.087C13.6228 150.859 13.3069 150.551 13.0812 150.164C12.8554 149.77 12.7432 149.33 12.7444 148.843C12.7456 148.357 12.86 147.92 13.0876 147.534C13.3152 147.148 13.6326 146.846 14.0398 146.627C14.4403 146.408 14.9006 146.299 15.4206 146.3L15.6406 146.31ZM13.3544 148.845C13.3531 149.352 13.5154 149.779 13.8412 150.126C14.1604 150.467 14.5799 150.661 15.0998 150.709L15.1089 146.979C14.5888 147.025 14.1683 147.22 13.8475 147.566C13.52 147.905 13.3556 148.332 13.3544 148.845ZM18.1068 143.751C18.1058 144.178 18.0448 144.588 17.9238 144.981C17.7962 145.367 17.6388 145.67 17.4516 145.89L16.8924 145.568C17.0663 145.349 17.2103 145.072 17.3244 144.739C17.4319 144.406 17.4861 144.06 17.487 143.7C17.4881 143.22 17.4157 142.866 17.2696 142.639C17.1168 142.406 16.9037 142.288 16.6304 142.288C16.4371 142.287 16.2869 142.35 16.1799 142.477C16.0663 142.603 15.9826 142.763 15.9288 142.956C15.8683 143.149 15.811 143.406 15.7569 143.726C15.6759 144.152 15.595 144.495 15.5144 144.755C15.4271 145.015 15.2832 145.238 15.0827 145.424C14.8823 145.603 14.6054 145.693 14.2521 145.692C13.8121 145.691 13.4525 145.507 13.1734 145.139C12.8943 144.772 12.7556 144.262 12.7572 143.608C12.758 143.268 12.8055 142.928 12.8997 142.589C12.9872 142.249 13.1045 141.969 13.2517 141.749L13.821 142.061C13.5199 142.493 13.3686 143.01 13.3672 143.61C13.3661 144.063 13.4452 144.407 13.6047 144.64C13.7641 144.867 13.9738 144.981 14.2338 144.982C14.4338 144.982 14.594 144.919 14.7143 144.793C14.8346 144.66 14.925 144.497 14.9855 144.304C15.0393 144.11 15.0966 143.844 15.1574 143.504C15.2385 143.084 15.3193 142.748 15.3999 142.495C15.4805 142.242 15.6177 142.025 15.8115 141.846C16.0053 141.666 16.2721 141.577 16.6121 141.578C17.0721 141.579 17.4383 141.773 17.7107 142.16C17.9765 142.541 18.1085 143.071 18.1068 143.751ZM17.7514 137.798C17.8711 137.931 17.964 138.098 18.0302 138.299C18.0897 138.492 18.1192 138.695 18.1187 138.909C18.1175 139.402 17.9832 139.782 17.7159 140.048C17.4486 140.314 17.0716 140.446 16.5849 140.445L13.4049 140.437L13.4026 141.377L12.8026 141.376L12.8049 140.436L11.6549 140.433L11.6567 139.723L12.8067 139.726L12.8106 138.126L13.4106 138.127L13.4067 139.727L16.5466 139.735C16.86 139.736 17.1002 139.66 17.2672 139.507C17.4276 139.347 17.5082 139.121 17.5089 138.827C17.5092 138.681 17.4862 138.541 17.4399 138.407C17.3936 138.267 17.3272 138.147 17.2408 138.047L17.7514 137.798ZM15.6746 132.406L15.6638 136.806C16.2106 136.767 16.6544 136.558 16.9953 136.179C17.3296 135.8 17.4974 135.32 17.4989 134.74C17.4997 134.414 17.4437 134.113 17.3311 133.84C17.2117 133.566 17.039 133.329 16.8128 133.129L17.2738 132.73C17.5532 132.964 17.7658 133.258 17.9116 133.611C18.0574 133.958 18.1298 134.342 18.1288 134.762C18.1275 135.302 18.013 135.782 17.7853 136.201C17.5509 136.614 17.2302 136.936 16.8229 137.169C16.4157 137.401 15.9554 137.517 15.4421 137.515C14.9287 137.514 14.469 137.403 14.0629 137.182C13.6568 136.954 13.3408 136.647 13.1151 136.26C12.8894 135.866 12.7772 135.425 12.7784 134.939C12.7795 134.452 12.8939 134.016 13.1216 133.63C13.3492 133.243 13.6666 132.941 14.0738 132.722C14.4743 132.503 14.9346 132.394 15.4546 132.395L15.6746 132.406ZM13.3884 134.94C13.3871 135.447 13.5494 135.874 13.8752 136.221C14.1944 136.562 14.6139 136.757 15.1338 136.804L15.1429 133.075C14.6228 133.12 14.2023 133.316 13.8815 133.661C13.554 134.001 13.3896 134.427 13.3884 134.94ZM17.7741 128.486C17.8938 128.619 17.9867 128.786 18.0529 128.986C18.1124 129.18 18.1419 129.383 18.1414 129.597C18.1402 130.09 18.006 130.47 17.7386 130.736C17.4713 131.002 17.0943 131.134 16.6077 131.133L13.4277 131.125L13.4254 132.065L12.8254 132.064L12.8277 131.124L11.6777 131.121L11.6794 130.411L12.8294 130.414L12.8333 128.814L13.4333 128.815L13.4294 130.415L16.5694 130.423C16.8827 130.424 17.1229 130.348 17.29 130.195C17.4504 130.035 17.5309 129.809 17.5316 129.515C17.532 129.369 17.509 129.228 17.4626 129.095C17.4163 128.955 17.3499 128.835 17.2635 128.735L17.7741 128.486ZM12.8471 123.159L18.7307 125.803C19.2235 126.018 19.5729 126.265 19.7789 126.546C19.9849 126.826 20.0874 127.163 20.0864 127.557C20.0858 127.81 20.0452 128.046 19.9647 128.266C19.8841 128.486 19.7637 128.676 19.6033 128.835L19.0741 128.504C19.3414 128.238 19.4755 127.918 19.4764 127.545C19.477 127.305 19.4109 127.102 19.2779 126.935C19.145 126.761 18.9187 126.6 18.5991 126.453L18.0897 126.222L12.8339 128.559L12.8358 127.819L17.3106 125.85L12.8454 123.859L12.8471 123.159ZM18.1638 120.438C18.1625 120.958 18.0481 121.425 17.8204 121.838C17.5927 122.244 17.2753 122.563 16.868 122.795C16.4541 123.028 15.9905 123.143 15.4772 123.142C14.9639 123.141 14.5041 123.023 14.098 122.788C13.692 122.554 13.3761 122.233 13.1504 121.826C12.9247 121.412 12.8125 120.945 12.8138 120.425C12.8149 119.972 12.9059 119.569 13.0868 119.216C13.261 118.856 13.5183 118.574 13.8588 118.368L14.2176 118.899C13.9571 119.071 13.7633 119.291 13.6359 119.557C13.502 119.824 13.4346 120.114 13.4338 120.427C13.4329 120.807 13.5187 121.15 13.6913 121.457C13.8572 121.758 14.0967 121.995 14.4096 122.169C14.7225 122.337 15.0789 122.421 15.4789 122.422C15.8856 122.423 16.2458 122.34 16.5596 122.175C16.8666 122.002 17.1072 121.766 17.2813 121.466C17.4487 121.16 17.5329 120.817 17.5338 120.437C17.5346 120.124 17.4719 119.833 17.3459 119.566C17.2199 119.299 17.0271 119.079 16.7675 118.905L17.1288 118.376C17.4683 118.583 17.7276 118.867 17.9068 119.228C18.0792 119.588 18.1649 119.992 18.1638 120.438ZM17.5404 113.65L18.1304 113.652L18.1199 117.932L17.6499 117.931L13.468 114.61L13.4601 117.86L12.8601 117.859L12.8703 113.699L13.3403 113.7L17.5322 117.02L17.5404 113.65ZM12.8396 109.861C12.8412 109.201 13.0359 108.678 13.4235 108.293C13.8044 107.9 14.3616 107.705 15.0949 107.707L18.1449 107.714L18.1432 108.424L15.1632 108.417C14.6165 108.416 14.1995 108.551 13.9122 108.824C13.6248 109.097 13.4805 109.486 13.4793 109.993C13.4779 110.56 13.6468 111.01 13.986 111.344C14.3185 111.672 14.7815 111.836 15.3748 111.838L18.1348 111.844L18.1331 112.554L12.8731 112.541L12.8747 111.861L13.8447 111.864C13.5252 111.67 13.2792 111.402 13.1067 111.062C12.9275 110.715 12.8385 110.315 12.8396 109.861ZM12.8534 104.234C12.8551 103.547 13.0297 103.021 13.3772 102.655C13.7181 102.289 14.2252 102.107 14.8986 102.109L18.1586 102.117L18.1569 102.797L17.3369 102.795C17.6099 102.955 17.8226 103.193 17.9752 103.506C18.1278 103.813 18.2035 104.18 18.2025 104.607C18.2011 105.193 18.0599 105.66 17.7791 106.006C17.4982 106.352 17.1278 106.524 16.6678 106.523C16.2211 106.522 15.8615 106.361 15.589 106.04C15.3164 105.713 15.181 105.196 15.1828 104.489L15.1868 102.819L14.8668 102.819C14.4135 102.818 14.0699 102.943 13.8359 103.196C13.5953 103.449 13.4744 103.819 13.4732 104.305C13.4724 104.639 13.5283 104.959 13.6409 105.266C13.7468 105.573 13.8961 105.836 14.0889 106.057L13.5581 106.375C13.3321 106.108 13.1596 105.788 13.0405 105.414C12.9147 105.041 12.8524 104.647 12.8534 104.234ZM17.6428 104.495C17.6437 104.095 17.5546 103.752 17.3753 103.465C17.1893 103.178 16.9232 102.964 16.5768 102.823L15.7168 102.821L15.7128 104.471C15.7106 105.371 16.0228 105.821 16.6495 105.823C16.9562 105.824 17.1998 105.708 17.3804 105.475C17.5543 105.242 17.6417 104.915 17.6428 104.495Z" fill="white"/>
</svg>
