<svg width="10" height="27" viewBox="0 0 10 27" fill="none" xmlns="http://www.w3.org/2000/svg">
<path d="M4.57666 6.75C6.25954 6.75 7.62777 5.23652 7.62777 3.375C7.62777 1.51348 6.25954 0 4.57666 0C2.89379 0 1.52555 1.51348 1.52555 3.375C1.52555 5.23652 2.89379 6.75 4.57666 6.75ZM7.06046 7.61484C6.34535 8.13164 5.492 8.4375 4.57666 8.4375C3.66133 8.4375 2.80797 8.13164 2.09287 7.61484C0.9201 7.72559 0 8.80137 0 10.125V17.2969C0 17.9982 0.510107 18.5625 1.14417 18.5625H1.52555V25.7344C1.52555 26.4357 2.03566 27 2.66972 27H6.48361C7.11767 27 7.62777 26.4357 7.62777 25.7344V18.5625H8.00916C8.64322 18.5625 9.15333 17.9982 9.15333 17.2969V10.125C9.15333 8.80137 8.23323 7.72559 7.06046 7.61484Z" fill="#0C9FED"/>
</svg>
