<svg width="10" height="30" viewBox="0 0 10 30" fill="none" xmlns="http://www.w3.org/2000/svg">
<path d="M4.90909 7.5C6.71421 7.5 8.18182 5.81836 8.18182 3.75C8.18182 1.68164 6.71421 0 4.90909 0C3.10398 0 1.63636 1.68164 1.63636 3.75C1.63636 5.81836 3.10398 7.5 4.90909 7.5ZM7.5733 8.46094C6.80625 9.03516 5.89091 9.375 4.90909 9.375C3.92727 9.375 3.01193 9.03516 2.24489 8.46094C0.986932 8.58398 0 9.7793 0 11.25V19.2188C0 19.998 0.547159 20.625 1.22727 20.625H1.63636V28.5938C1.63636 29.373 2.18352 30 2.86364 30H6.95455C7.63466 30 8.18182 29.373 8.18182 28.5938V20.625H8.59091C9.27102 20.625 9.81818 19.998 9.81818 19.2188V11.25C9.81818 9.7793 8.83125 8.58398 7.5733 8.46094Z" fill="#FF9214"/>
</svg>
