<svg width="36" height="28" viewBox="0 0 36 28" fill="none" xmlns="http://www.w3.org/2000/svg">
<path d="M12.4655 13.5829C16.3999 13.5829 19.5886 10.5427 19.5886 6.79147C19.5886 3.04024 16.3999 0 12.4655 0C8.53108 0 5.34236 3.04024 5.34236 6.79147C5.34236 10.5427 8.53108 13.5829 12.4655 13.5829ZM17.4517 15.2808H16.5224C15.2869 15.822 13.9124 16.1297 12.4655 16.1297C11.0186 16.1297 9.64963 15.822 8.40865 15.2808H7.4793C3.3501 15.2808 0 18.4749 0 22.4118V24.6191C0 26.0251 1.19647 27.1659 2.67118 27.1659H17.9692C17.8357 26.8051 17.78 26.4231 17.8245 26.0357L18.203 22.8045L18.2697 22.2155L18.7094 21.7964L23.0111 17.695C21.6477 16.2252 19.6721 15.2808 17.4517 15.2808V15.2808ZM19.9726 22.9902L19.5942 26.2267C19.533 26.7679 20.0116 27.2242 20.5736 27.1606L23.9627 26.7998L31.6368 19.483L27.6467 15.6787L19.9726 22.9902V22.9902ZM35.2262 14.2674L33.117 12.2565C32.5995 11.763 31.7536 11.763 31.2361 12.2565L29.1325 14.2621L28.9044 14.4796L32.9 18.2839L35.2262 16.0661C35.7437 15.5673 35.7437 14.7661 35.2262 14.2674V14.2674Z" fill="#0C9FED"/>
</svg>
