<svg width="264" height="265" viewBox="0 0 264 265" fill="none" xmlns="http://www.w3.org/2000/svg">
<g opacity="0.5">
<path d="M103.28 260.113C84.1479 255.749 66.2459 247.131 50.9039 234.9C35.562 222.669 23.1743 207.139 14.6612 189.464L132.36 132.799L103.28 260.113Z" fill="url(#paint0_radial)" stroke="black"/>
<path d="M262.989 132.793C262.987 152.412 258.564 171.778 250.047 189.454C241.531 207.129 229.141 222.66 213.796 234.893L132.36 132.799L262.989 132.793Z" fill="url(#paint1_radial)" stroke="black"/>
<path d="M213.815 30.6985C229.157 42.9296 241.545 58.4594 250.058 76.1344C258.571 93.8094 262.991 113.175 262.989 132.793L132.36 132.799L213.815 30.6985Z" fill="url(#paint2_radial)" stroke="black"/>
<path d="M103.304 5.48738C122.437 1.1211 142.307 1.12024 161.439 5.48487C180.571 9.84949 198.473 18.4674 213.815 30.6985L132.36 132.799L103.304 5.48738Z" fill="url(#paint3_radial)" stroke="black"/>
<path d="M14.6718 76.1446C23.1882 58.4688 35.5787 42.9379 50.9229 30.7055C66.2672 18.4732 84.1707 9.85367 103.304 5.48738L132.36 132.799L14.6718 76.1446Z" fill="url(#paint4_radial)" stroke="black"/>
<path d="M14.6612 189.464C6.14811 171.789 1.72829 152.423 1.73012 132.805C1.73194 113.187 6.15536 93.8203 14.6718 76.1446L132.36 132.799L14.6612 189.464Z" fill="url(#paint5_radial)" stroke="black"/>
<path d="M213.796 234.893C198.452 247.125 180.549 255.744 161.416 260.111C142.283 264.477 122.412 264.478 103.28 260.113L132.36 132.799L213.796 234.893Z" fill="url(#paint6_radial)" stroke="black"/>
<ellipse rx="78.352" ry="78.3681" transform="matrix(1 -0.000128513 -0.000128485 1 132.361 132.801)" stroke="black"/>
<ellipse rx="104.469" ry="104.491" transform="matrix(1 -0.000128571 -0.000128542 1 132.362 132.801)" stroke="black"/>
<ellipse rx="130.587" ry="130.614" transform="matrix(1 -0.00014331 -0.000143275 1 132.36 132.8)" stroke="black"/>
<ellipse rx="52.2347" ry="52.2454" transform="matrix(1 -0.000128589 -0.000128561 1 132.362 132.801)" stroke="black"/>
</g>
<path d="M6.24865 128.423V136.799H10.6887V135.467H7.92865V128.423H6.24865ZM11.7565 136.799H13.4365V128.423H11.7565V136.799ZM20.5803 128.411V134.171L16.7763 128.411H15.0963V136.799H16.7763V131.051L20.5803 136.799H22.2603V128.411H20.5803ZM27.7845 128.315C25.3605 128.315 23.5125 130.091 23.5125 132.599C23.5125 135.107 25.3605 136.871 27.7965 136.871C30.0285 136.871 31.5525 135.311 31.8885 133.607V132.143H27.3525V133.427H30.2325C29.9805 134.615 29.1525 135.359 27.8565 135.359C26.2965 135.359 25.2405 134.303 25.2405 132.599C25.2405 130.931 26.2845 129.863 27.7845 129.863C28.6725 129.863 29.3685 130.235 29.7525 130.943H31.6845C31.1445 129.263 29.6565 128.315 27.7845 128.315ZM34.8235 136.811L36.7915 136.799L38.4355 130.835L40.0075 136.799H41.9875L44.3275 128.423H42.5155L41.0275 134.891L39.4195 128.423H37.5475L35.8435 134.927L34.3675 128.423H32.5675L34.8235 136.811ZM45.4244 136.799H47.1044V128.423H45.4244V136.799ZM54.6203 134.375C54.6203 131.423 50.3243 132.359 50.3243 130.679C50.3243 129.995 50.8163 129.671 51.4763 129.695C52.1963 129.707 52.6403 130.139 52.6763 130.691H54.5243C54.4163 129.179 53.2403 128.303 51.5243 128.303C49.7963 128.303 48.5723 129.215 48.5723 130.727C48.5603 133.763 52.8803 132.671 52.8803 134.483C52.8803 135.083 52.4123 135.503 51.6203 135.503C50.8403 135.503 50.3963 135.059 50.3483 134.387H48.5483C48.5723 135.971 49.9163 136.883 51.6563 136.883C53.5643 136.883 54.6203 135.695 54.6203 134.375ZM55.6328 129.779H57.8648V136.799H59.5448V129.779H61.7768V128.423H55.6328V129.779ZM65.1506 133.883V136.799H66.8306V133.883L69.6626 128.423H67.7906L66.0026 132.251L64.2026 128.423H62.3066L65.1506 133.883ZM70.2235 132.599C70.2235 135.107 72.0595 136.871 74.4715 136.871C76.3315 136.871 77.8435 135.887 78.4075 134.159H76.4755C76.0795 134.975 75.3595 135.371 74.4595 135.371C72.9955 135.371 71.9515 134.291 71.9515 132.599C71.9515 130.895 72.9955 129.827 74.4595 129.827C75.3595 129.827 76.0795 130.223 76.4755 131.027H78.4075C77.8435 129.311 76.3315 128.315 74.4715 128.315C72.0595 128.315 70.2235 130.091 70.2235 132.599ZM85.3264 128.423H79.6144V129.839H83.3584L79.6144 135.503V136.799H85.3264V135.383H81.5584L85.3264 129.719V128.423ZM92.2405 128.411V134.171L88.4365 128.411H86.7565V136.799H88.4365V131.051L92.2405 136.799H93.9205V128.411H92.2405ZM101.269 136.799H103.045L100.033 128.411H98.0767L95.0647 136.799H96.8287L97.3807 135.203H100.717L101.269 136.799ZM100.261 133.859H97.8367L99.0487 130.355L100.261 133.859Z" fill="black" fill-opacity="0.3"/>
<path d="M59.6301 229.831L60.9544 228.17L55.4373 228.314L54.3459 223.023L53.0815 224.609L54.1177 229.334L51.1811 226.992L50.1336 228.305L56.6823 233.528L57.7297 232.214L54.8119 229.887L59.6301 229.831ZM61.6434 227.307L62.6908 225.993L56.1422 220.771L55.0948 222.084L61.6434 227.307ZM60.587 215.178L65.0903 218.769L58.2152 218.152L57.1677 219.466L63.7257 224.695L64.7732 223.382L60.2792 219.798L67.145 220.408L68.1924 219.094L61.6344 213.864L60.587 215.178ZM65.6997 208.767L62.6695 212.566L69.2276 217.796L72.2577 213.997L71.1882 213.144L69.2055 215.63L67.4698 214.246L69.228 212.041L68.1866 211.21L66.4284 213.415L64.7866 212.106L66.7693 209.62L65.6997 208.767ZM74.9656 206.713C72.6576 204.873 70.7109 208.815 69.3974 207.768C68.8627 207.341 68.9161 206.754 69.3464 206.253C69.8047 205.698 70.4193 205.62 70.8733 205.936L72.0255 204.491C70.776 203.633 69.3579 204.006 68.288 205.348C67.2106 206.699 67.1605 208.225 68.3426 209.167C70.7088 211.07 72.5485 207.011 73.9652 208.141C74.4343 208.515 74.4708 209.143 73.977 209.762C73.4907 210.372 72.8668 210.442 72.3114 210.061L71.1892 211.468C72.4425 212.437 73.9935 211.955 75.0784 210.594C76.268 209.103 75.9976 207.536 74.9656 206.713ZM72.0036 203.056L73.3952 201.311L78.8837 205.688L79.9311 204.374L74.4427 199.998L75.8343 198.252L74.7741 197.407L70.9434 202.211L72.0036 203.056ZM78.5592 192.641L75.529 196.441L82.087 201.671L85.1172 197.871L84.0476 197.018L82.0649 199.505L80.3293 198.12L82.0875 195.916L81.0461 195.085L79.2879 197.29L77.646 195.981L79.6287 193.494L78.5592 192.641ZM80.3038 192.648L81.6954 190.903L87.1839 195.28L88.2313 193.966L82.7429 189.589L84.1345 187.844L83.0744 186.999L79.2436 191.802L80.3038 192.648ZM89.4467 187.765L91.7265 189.584L92.774 188.27L90.4941 186.452L87.9911 180.834L86.8239 182.297L88.7019 186.082L84.5868 185.102L83.4047 186.585L89.4467 187.765ZM91.6057 182.999C93.5665 184.562 96.0904 184.227 97.5943 182.341C98.754 180.887 98.9274 179.091 97.928 177.573L96.7234 179.083C97.1145 179.902 96.9752 180.712 96.414 181.415C95.5013 182.56 94.006 182.703 92.6831 181.648C91.3509 180.585 91.1668 179.103 92.0796 177.959C92.6407 177.255 93.3992 176.939 94.2747 177.131L95.4793 175.62C93.786 174.991 92.0646 175.552 90.9049 177.006C89.4011 178.892 89.6449 181.435 91.6057 182.999ZM97.7573 168.587L94.1959 173.053L95.303 173.936L97.6374 171.009L99.7313 177.467L100.745 178.275L104.306 173.809L103.199 172.927L100.85 175.872L98.7706 169.395L97.7573 168.587ZM102.059 163.174L106.562 166.765L99.687 166.148L98.6396 167.461L105.198 172.691L106.245 171.378L101.751 167.794L108.617 168.404L109.664 167.09L103.106 161.86L102.059 163.174ZM114.246 161.345L115.353 159.957L106.917 157.082L105.698 158.611L110.378 166.196L111.477 164.817L110.574 163.39L112.654 160.782L114.246 161.345ZM111.319 160.3L109.807 162.195L107.824 159.063L111.319 160.3Z" fill="black" fill-opacity="0.3"/>
<path d="M130.995 146.842L131.369 148.48L139.535 146.616L139.161 144.978L130.995 146.842ZM141.137 153.578L135.521 154.86L140.29 149.869L139.916 148.232L131.738 150.098L132.112 151.736L137.716 150.457L132.959 155.445L133.333 157.083L141.51 155.216L141.137 153.578ZM140.447 156.706L140.944 158.882L134.1 160.444L134.474 162.082L141.318 160.52L141.815 162.696L143.137 162.394L141.769 156.404L140.447 156.706ZM141.859 168.497C141.122 168.666 140.549 168.366 140.341 167.453L140.028 166.084L142.427 165.537L142.739 166.906C142.947 167.818 142.585 168.332 141.859 168.497ZM143.41 163.589L135.244 165.453L135.618 167.091L138.8 166.365L138.976 167.137L136.205 169.665L136.638 171.56L139.503 168.851C140.153 170.081 141.285 170.401 142.279 170.174C143.648 169.862 144.558 168.62 144.109 166.654L143.41 163.589ZM138.221 178.493L138.616 180.225L146.123 175.421L145.688 173.515L136.84 172.445L137.233 174.165L138.911 174.348L139.654 177.6L138.221 178.493ZM140.863 176.856L140.323 174.493L144.009 174.895L140.863 176.856ZM143.698 181.943L146.073 181.401L146.369 182.699C146.58 183.623 146.229 184.134 145.48 184.305C144.755 184.471 144.205 184.166 143.994 183.241L143.698 181.943ZM145.865 185.99C147.281 185.667 148.168 184.43 147.719 182.465L147.033 179.458L138.867 181.322L139.241 182.96L142.376 182.245L142.688 183.613C143.169 185.719 144.625 186.273 145.865 185.99ZM149.751 191.311L148.669 186.573L140.492 188.44L141.573 193.178L142.907 192.874L142.199 189.773L144.364 189.279L144.991 192.029L146.29 191.732L145.662 188.983L147.709 188.516L148.417 191.616L149.751 191.311ZM148.529 197.711C147.791 197.879 147.218 197.579 147.01 196.666L146.698 195.298L149.096 194.75L149.408 196.119C149.617 197.031 149.254 197.545 148.529 197.711ZM150.079 192.802L141.913 194.667L142.287 196.304L145.469 195.578L145.645 196.35L142.875 198.878L143.307 200.774L146.172 198.064C146.822 199.294 147.954 199.614 148.948 199.387C150.317 199.075 151.227 197.833 150.779 195.868L150.079 192.802ZM147.291 207.331C150.169 206.674 148.3 202.694 149.938 202.32C150.605 202.168 151.03 202.575 151.154 203.224C151.302 203.929 150.98 204.458 150.45 204.616L150.861 206.417C152.311 205.976 152.903 204.634 152.521 202.961C152.137 201.276 150.975 200.286 149.501 200.623C146.539 201.287 148.565 205.255 146.798 205.659C146.213 205.792 145.7 205.429 145.523 204.657C145.35 203.897 145.684 203.365 146.328 203.169L145.928 201.414C144.389 201.79 143.799 203.303 144.186 204.999C144.611 206.86 146.004 207.625 147.291 207.331ZM151.177 216.32C153.622 215.762 154.931 213.518 154.4 211.19C153.874 208.885 151.712 207.397 149.267 207.955C146.81 208.516 145.509 210.795 146.035 213.1C146.564 215.416 148.72 216.881 151.177 216.32ZM149.652 209.64C151.313 209.261 152.587 210.041 152.926 211.526C153.262 213.001 152.453 214.256 150.792 214.635C149.131 215.015 147.834 214.24 147.497 212.766C147.158 211.28 147.991 210.019 149.652 209.64ZM156.747 221.955L151.131 223.237L155.9 218.247L155.526 216.609L147.349 218.476L147.723 220.114L153.326 218.834L148.569 223.822L148.943 225.46L157.121 223.593L156.747 221.955ZM150.579 232.624L150.974 234.356L158.481 229.552L158.046 227.645L149.198 226.576L149.59 228.296L151.269 228.478L152.012 231.731L150.579 232.624ZM153.221 230.987L152.681 228.624L156.367 229.026L153.221 230.987ZM159.39 233.589L151.224 235.453L152.213 239.782L153.511 239.485L152.897 236.795L159.764 235.227L159.39 233.589ZM161.849 244.302L156.233 245.584L161.002 240.594L160.628 238.956L152.45 240.823L152.824 242.461L158.428 241.181L153.671 246.169L154.045 247.807L162.222 245.94L161.849 244.302ZM155.68 254.971L156.076 256.703L163.583 251.899L163.147 249.992L154.3 248.923L154.692 250.642L156.371 250.825L157.113 254.078L155.68 254.971ZM158.322 253.334L157.783 250.971L161.469 251.373L158.322 253.334Z" fill="black" fill-opacity="0.3"/>
<path d="M144.298 143.214L145.812 143.943L149.445 136.396L147.932 135.668L144.298 143.214ZM155.887 139.485L153.388 144.674L152.46 137.834L150.946 137.106L147.307 144.663L148.821 145.392L151.314 140.213L152.248 147.042L153.762 147.771L157.401 140.213L155.887 139.485ZM157.903 141.974L159.914 142.942L156.869 149.267L158.382 149.996L161.428 143.671L163.439 144.639L164.027 143.417L158.491 140.752L157.903 141.974ZM169.516 146.047L165.137 143.938L161.498 151.496L165.877 153.604L166.47 152.372L163.605 150.992L164.568 148.992L167.109 150.215L167.687 149.015L165.146 147.792L166.057 145.9L168.922 147.279L169.516 146.047ZM173.757 150.992C173.429 151.673 172.837 151.934 171.994 151.528L170.729 150.919L171.796 148.703L173.061 149.312C173.904 149.718 174.08 150.322 173.757 150.992ZM170.886 146.72L167.252 154.266L168.766 154.995L170.182 152.054L170.896 152.398L171.145 156.141L172.896 156.984L172.564 153.055C173.931 153.313 174.887 152.628 175.329 151.709C175.938 150.444 175.535 148.958 173.719 148.084L170.886 146.72ZM177.676 154.211L178.733 152.016L179.933 152.594C180.787 153.005 180.968 153.598 180.634 154.29C180.312 154.961 179.73 155.2 178.876 154.789L177.676 154.211ZM182.191 155.04C182.821 153.732 182.408 152.267 180.591 151.393L177.812 150.055L174.179 157.601L175.692 158.33L177.088 155.433L178.353 156.042C180.299 156.979 181.64 156.186 182.191 155.04ZM188.775 155.319L184.396 153.211L180.757 160.769L185.136 162.877L185.729 161.644L182.864 160.265L183.827 158.265L186.368 159.488L186.946 158.288L184.405 157.065L185.316 155.172L188.181 156.552L188.775 155.319ZM193.016 160.265C192.688 160.946 192.096 161.207 191.253 160.801L189.988 160.192L191.055 157.976L192.32 158.585C193.163 158.991 193.338 159.595 193.016 160.265ZM190.145 155.993L186.511 163.539L188.025 164.268L189.441 161.327L190.155 161.671L190.404 165.413L192.155 166.257L191.823 162.328C193.19 162.586 194.146 161.901 194.588 160.982C195.197 159.717 194.794 158.231 192.978 157.356L190.145 155.993ZM199.766 167.231C201.046 164.571 196.769 163.551 197.498 162.037C197.795 161.421 198.379 161.342 198.963 161.65C199.607 161.973 199.819 162.555 199.612 163.068L201.277 163.87C201.836 162.461 201.156 161.161 199.61 160.417C198.053 159.667 196.555 159.958 195.899 161.32C194.571 164.05 198.937 164.941 198.151 166.573C197.891 167.114 197.287 167.289 196.573 166.946C195.87 166.607 195.663 166.015 195.911 165.388L194.289 164.607C193.624 166.045 194.439 167.45 196.007 168.205C197.726 169.032 199.193 168.42 199.766 167.231ZM209.217 169.797C210.305 167.537 209.367 165.114 207.215 164.078C205.085 163.053 202.574 163.815 201.486 166.075C200.393 168.345 201.363 170.783 203.493 171.809C205.634 172.84 208.123 172.067 209.217 169.797ZM203.043 166.824C203.782 165.289 205.186 164.78 206.559 165.441C207.921 166.097 208.399 167.512 207.66 169.047C206.92 170.582 205.506 171.113 204.144 170.457C202.771 169.796 202.304 168.359 203.043 166.824ZM217.095 168.955L214.597 174.145L213.668 167.305L212.154 166.576L208.515 174.134L210.029 174.863L212.523 169.684L213.457 176.513L214.97 177.242L218.609 169.684L217.095 168.955ZM221.591 180.43L223.191 181.2L224.116 172.336L222.354 171.487L216.001 177.738L217.59 178.503L218.78 177.305L221.786 178.752L221.591 180.43ZM221.958 177.343L219.774 176.292L222.386 173.66L221.958 177.343ZM227.839 174.142L224.206 181.688L228.206 183.615L228.784 182.414L226.297 181.217L229.353 174.87L227.839 174.142ZM237.748 178.899L235.249 184.089L234.321 177.249L232.807 176.52L229.168 184.078L230.682 184.807L233.175 179.628L234.109 186.457L235.623 187.186L239.262 179.628L237.748 178.899ZM242.244 190.373L243.844 191.144L244.769 182.28L243.006 181.431L236.654 187.682L238.243 188.447L239.433 187.249L242.439 188.696L242.244 190.373ZM242.611 187.287L240.427 186.236L243.039 183.604L242.611 187.287Z" fill="black" fill-opacity="0.3"/>
<path d="M182.336 112.945L183.85 112.216L181.485 107.308L185.882 111.237L187.028 110.685L186.686 104.803L189.05 109.711L190.563 108.982L186.928 101.436L185.22 102.259L185.523 109.026L180.42 104.571L178.701 105.399L182.336 112.945ZM191.549 104.951C192.507 106.941 194.338 107.257 195.992 106.461C197.646 105.664 198.604 104.003 197.646 102.014L195.402 97.3546L193.877 98.0889L196.127 102.759C196.627 103.797 196.325 104.609 195.352 105.077C194.39 105.541 193.567 105.271 193.067 104.233L190.818 99.5627L189.304 100.292L191.549 104.951ZM202.706 93.8363L197.559 96.3152L198.174 97.5909L201.547 95.9661L200.632 102.694L201.194 103.861L206.341 101.382L205.726 100.107L202.331 101.742L203.268 95.0039L202.706 93.8363ZM209.2 96.7686L210.465 99.3957L211.979 98.6667L210.713 96.0396L210.895 89.8915L209.208 90.7039L209.259 94.9286L205.976 92.261L204.268 93.0838L209.2 96.7686ZM213.213 93.4103C214.301 95.6699 216.721 96.4623 218.894 95.4156C220.569 94.6084 221.505 93.0657 221.263 91.2641L219.522 92.1026C219.52 93.0096 219.043 93.6788 218.232 94.0694C216.913 94.7047 215.504 94.1848 214.769 92.6604C214.03 91.1253 214.507 89.71 215.826 89.0747C216.637 88.6841 217.457 88.7284 218.163 89.2809L219.904 88.4424C218.651 87.1412 216.856 86.9001 215.181 87.7073C213.008 88.754 212.124 91.1508 213.213 93.4103ZM225.908 82.6598L220.762 85.1387L221.376 86.4144L224.749 84.7896L223.834 91.5172L224.397 92.6848L229.543 90.206L228.928 88.9303L225.534 90.5655L226.47 83.8274L225.908 82.6598ZM233.033 79.2145L235.532 84.4039L229.606 80.8654L228.092 81.5944L231.732 89.1514L233.246 88.4223L230.751 83.2438L236.673 86.7715L238.186 86.0424L234.546 78.4854L233.033 79.2145ZM245.708 82.4195L247.308 81.6488L240.954 75.3989L239.192 76.2478L240.118 85.1119L241.707 84.3463L241.512 82.6689L244.518 81.2212L245.708 82.4195ZM243.524 80.2082L241.34 81.2602L240.911 77.5774L243.524 80.2082Z" fill="black" fill-opacity="0.3"/>
<path d="M141.353 68.9186L141.743 67.1573L136.748 64.4722L142.399 64.2831L142.802 62.5136L135.794 58.7147L135.424 60.3341L140.901 62.9826L134.793 63.101L134.411 64.7741L139.877 67.6229L133.763 67.6161L133.396 69.2247L141.353 68.9186ZM143.503 59.4419L143.845 57.9405L136.36 56.2329L136.017 57.7343L143.503 59.4419ZM137.816 49.8484L136.652 54.9533L137.917 55.2419L138.68 51.8959L142.979 56.3966L144.137 56.6608L145.302 51.556L144.036 51.2673L143.268 54.6348L138.974 50.1126L137.816 49.8484ZM142.725 49.6462C144.698 50.0963 145.972 48.9652 146.346 47.3244C146.72 45.6835 146.078 44.0477 144.105 43.5976L139.483 42.5432L139.138 44.0553L143.771 45.1122C144.8 45.347 145.209 46.027 144.989 46.9922C144.771 47.9467 144.108 48.3821 143.078 48.1472L138.445 47.0904L138.103 48.5918L142.725 49.6462ZM148.459 37.7167L148.821 36.1294L140.71 37.1113L140.312 38.8594L147.194 43.2612L147.554 41.6847L146.24 40.866L146.92 37.8846L148.459 37.7167ZM145.626 38.0182L145.132 40.1845L142.247 38.387L145.626 38.0182ZM141.565 33.4157L149.05 35.1233L149.956 31.1552L148.765 30.8836L148.202 33.3503L141.907 31.9143L141.565 33.4157ZM143.795 23.5898L148.943 24.764L143.019 26.9894L142.677 28.4909L150.173 30.2009L150.516 28.6995L145.379 27.5276L151.291 25.2998L151.634 23.7983L144.137 22.0883L143.795 23.5898ZM149.874 14.1525C147.632 13.6412 145.659 14.9736 145.172 17.1078C144.69 19.2205 145.883 21.3092 148.125 21.8205C150.377 22.3343 152.358 20.9697 152.84 18.857C153.324 16.7335 152.126 14.6663 149.874 14.1525ZM148.477 20.2762C146.954 19.9288 146.212 18.7781 146.523 17.4161C146.831 16.0648 147.999 15.3495 149.522 15.6968C151.044 16.0442 151.808 17.1999 151.499 18.5512C151.189 19.9132 150 20.6236 148.477 20.2762ZM150.702 13.1437L151.739 8.59651L150.474 8.30784L149.436 12.855L150.702 13.1437ZM148.978 97.1384L150.016 92.5912L148.75 92.3025L147.713 96.8497L148.978 97.1384ZM149.852 89.2029L147.675 88.7063L147.947 87.5158C148.14 86.6686 148.633 86.3862 149.319 86.5428C149.984 86.6945 150.317 87.1652 150.124 88.0125L149.852 89.2029ZM149.672 84.9985C148.374 84.7024 147.15 85.3709 146.739 87.1726L146.11 89.9288L153.596 91.6364L153.938 90.135L151.064 89.4793L151.35 88.2246C151.791 86.2941 150.808 85.2578 149.672 84.9985ZM150.831 79.9668C151.506 80.121 151.86 80.5966 151.67 81.4331L151.383 82.6879L149.185 82.1864L149.471 80.9316C149.662 80.0951 150.166 79.8152 150.831 79.9668ZM147.598 83.404L155.084 85.1116L155.427 83.6102L152.51 82.9448L152.671 82.2369L155.965 81.2508L156.361 79.5134L152.918 80.6121C152.87 79.3375 152.062 78.6231 151.151 78.4152C149.896 78.1289 148.65 78.7925 148.239 80.5942L147.598 83.404ZM150.284 71.6325L149.119 76.7374L150.385 77.0261L151.148 73.68L155.447 78.1808L156.605 78.445L157.769 73.3401L156.504 73.0514L155.736 76.4189L151.442 71.8968L150.284 71.6325ZM151.555 66.0086L150.564 70.352L158.061 72.0621L159.052 67.7186L157.829 67.4397L157.181 70.2817L155.197 69.8292L155.772 67.3089L154.581 67.0374L154.006 69.5576L152.129 69.1295L152.778 66.2875L151.555 66.0086ZM158.39 60.6265C155.752 60.0246 155.713 64.0548 154.211 63.7123C153.6 63.5729 153.411 63.0671 153.567 62.4822C153.724 61.8412 154.201 61.5324 154.702 61.6128L155.078 59.9612C153.705 59.7495 152.682 60.6219 152.333 62.1555C151.98 63.6998 152.546 64.9797 153.897 65.2879C156.608 65.9176 156.513 61.8341 158.132 62.2035C158.668 62.3259 158.948 62.8297 158.787 63.5376C158.628 64.2346 158.141 64.5409 157.53 64.4468L157.163 66.0555C158.584 66.357 159.673 65.3418 160.028 63.7867C160.417 62.0815 159.57 60.8956 158.39 60.6265ZM154.489 58.7846L154.944 56.7899L161.218 58.221L161.561 56.7196L155.287 55.2884L155.742 53.2937L154.53 53.0172L153.277 58.5082L154.489 58.7846ZM158.012 48.4845C158.688 48.6386 159.042 49.1143 158.851 49.9508L158.565 51.2056L156.366 50.7041L156.653 49.4493C156.843 48.6128 157.347 48.3329 158.012 48.4845ZM154.78 51.9217L162.266 53.6293L162.608 52.1279L159.691 51.4625L159.852 50.7546L163.146 49.7685L163.543 48.0311L160.099 49.1298C160.051 47.8552 159.244 47.1408 158.332 46.9329C157.078 46.6466 155.832 47.3102 155.421 49.1119L154.78 51.9217ZM157.465 40.1502L156.301 45.2551L157.566 45.5438L158.329 42.1977L162.628 46.6985L163.786 46.9627L164.951 41.8578L163.685 41.5691L162.917 44.9366L158.623 40.4144L157.465 40.1502ZM158.737 34.5263L157.746 38.8697L165.242 40.5798L166.233 36.2363L165.011 35.9574L164.362 38.7994L162.378 38.3469L162.953 35.8266L161.763 35.555L161.188 38.0753L159.311 37.6472L159.959 34.8052L158.737 34.5263ZM160.166 28.2608L165.314 29.435L159.39 31.6604L159.048 33.1619L166.544 34.8719L166.887 33.3705L161.75 32.1986L167.662 29.9708L168.005 28.4694L160.508 26.7593L160.166 28.2608ZM161.965 20.3745L167.113 21.5487L161.189 23.7741L160.847 25.2756L168.343 26.9856L168.686 25.4842L163.549 24.3123L169.461 22.0845L169.804 20.5831L162.307 18.873L161.965 20.3745ZM171.302 14.0159L171.664 12.4287L163.553 13.4105L163.155 15.1586L170.037 19.5605L170.397 17.984L169.083 17.1653L169.763 14.1839L171.302 14.0159ZM168.469 14.3174L167.975 16.4837L165.09 14.6862L168.469 14.3174Z" fill="black" fill-opacity="0.3"/>
<path d="M57.4099 31.4031L58.3702 32.607L62.2743 29.4928L59.6598 34.2237L60.3869 35.1352L65.5737 33.6291L61.6696 36.7433L62.6299 37.9472L68.6322 33.1593L67.5484 31.8006L61.5626 33.4516L64.5028 27.9825L63.4122 26.6152L57.4099 31.4031ZM66.8308 43.2135L67.846 44.4862L72.1351 37.533L71.0171 36.1313L63.2844 38.7677L64.2928 40.0318L65.752 39.515L67.6589 41.9056L66.8308 43.2135ZM68.3614 40.8106L66.9758 39.0735L70.1796 37.9391L68.3614 40.8106ZM73.2663 40.962L74.5422 42.5615L69.5116 46.5743L70.4719 47.7782L75.5025 43.7654L76.7783 45.3649L77.7501 44.5898L74.238 40.1869L73.2663 40.962ZM81.2374 48.944L78.4594 45.4613L72.4484 50.2561L75.2265 53.7388L76.2068 52.9568L74.3891 50.678L75.98 49.409L77.5919 51.4298L78.5465 50.6684L76.9345 48.6476L78.4394 47.4472L80.2571 49.726L81.2374 48.944ZM76.0992 54.8328L77.0596 56.0367L80.9636 52.9225L78.3491 57.6534L79.0762 58.5649L84.263 57.0588L80.359 60.173L81.3193 61.3769L87.3216 56.589L86.2378 55.2303L80.252 56.8813L83.1922 51.4122L82.1015 50.0449L76.0992 54.8328ZM85.5201 66.6432L86.5353 67.9159L90.8245 60.9627L89.7064 59.561L81.9738 62.1974L82.9821 63.4615L84.4414 62.9447L86.3483 65.3353L85.5201 66.6432ZM87.0507 64.2403L85.6651 62.5033L88.8689 61.3688L87.0507 64.2403ZM91.9557 64.3917L93.2315 65.9912L88.2009 70.004L89.1612 71.2079L94.1918 67.1951L95.4677 68.7946L96.4394 68.0195L92.9274 63.6166L91.9557 64.3917ZM94.4553 73.5582L92.3656 75.225L93.326 76.4289L95.4156 74.7621L100.947 73.6705L99.877 72.329L96.1118 73.2359L97.826 69.7578L96.7422 68.3991L94.4553 73.5582ZM98.2752 76.4595C96.4779 77.8931 96.2633 80.2172 97.6421 81.9456C98.7053 83.2785 100.275 83.7996 101.835 83.216L100.731 81.8315C99.9199 82.0141 99.2246 81.7245 98.7101 81.0796C97.8733 80.0305 98.0504 78.665 99.2629 77.6978C100.484 76.7238 101.846 76.8614 102.683 77.9105C103.197 78.5555 103.325 79.2978 102.975 80.0412L104.08 81.4256C104.987 80.0406 104.837 78.3877 103.773 77.0548C102.395 75.3264 100.072 75.0259 98.2752 76.4595ZM109.901 84.8953L106.636 80.802L105.621 81.6115L107.761 84.2944L101.562 84.8491L100.633 85.5899L103.899 89.6832L104.913 88.8738L102.759 86.1736L108.972 85.6361L109.901 84.8953ZM113.862 89.8431L109.734 93.1357L111.687 87.1171L110.727 85.9132L104.716 90.708L105.676 91.9119L109.795 88.6262L107.851 94.6379L108.811 95.8418L114.822 91.047L113.862 89.8431ZM117.45 100.48C119.247 99.0463 119.436 96.6724 118.071 94.9612C116.72 93.2671 114.343 92.8978 112.545 94.3315C110.739 95.7719 110.571 98.1716 111.922 99.8657C113.281 101.568 115.644 101.92 117.45 100.48ZM113.533 95.5698C114.754 94.5957 116.116 94.7334 116.987 95.8255C117.852 96.909 117.683 98.2676 116.462 99.2417C115.241 100.216 113.862 100.092 112.997 99.0083C112.126 97.9161 112.312 96.5438 113.533 95.5698ZM117.722 101.756L120.631 105.402L121.645 104.593L118.737 100.947L117.722 101.756ZM46.6964 39.9772L49.6048 43.6233L50.6195 42.8139L47.7111 39.1678L46.6964 39.9772ZM54.1215 42.2297L48.1192 47.0176L50.6572 50.1993L51.6117 49.4379L50.034 47.4601L55.0818 43.4336L54.1215 42.2297ZM58.9572 54.4129C60.7545 52.9793 60.9434 50.6054 59.5783 48.8942C58.227 47.2001 55.85 46.8308 54.0527 48.2645C52.2469 49.7049 52.0785 52.1046 53.4298 53.7987C54.788 55.5013 57.1514 55.8534 58.9572 54.4129ZM55.0405 49.5028C56.2616 48.5287 57.6237 48.6664 58.4948 49.7585C59.3591 50.842 59.1906 52.2006 57.9695 53.1747C56.7484 54.1487 55.369 54.0248 54.5048 52.9413C53.6336 51.8491 53.8194 50.4768 55.0405 49.5028ZM64.9418 55.6356C63.5562 53.8986 61.2271 53.5895 59.4299 55.0231C57.6326 56.4567 57.4249 58.7894 58.8173 60.535C60.0932 62.1345 62.0823 62.3349 63.4954 61.6016L64.5445 60.7647L61.9517 57.5142L61.0315 58.2482L62.6778 60.312C61.6824 60.8105 60.676 60.6424 59.9351 59.7137C59.0434 58.5958 59.1965 57.2354 60.4176 56.2614C61.6129 55.3079 62.975 55.4456 63.8325 56.5205C64.3401 57.1568 64.4713 57.8682 64.1835 58.5481L65.2878 59.9326C66.1831 58.5853 66.0118 56.9771 64.9418 55.6356ZM61.9185 64.3169L62.8788 65.5208L68.8811 60.7329L67.9208 59.529L61.9185 64.3169ZM66.6041 64.0171C64.8069 65.4507 64.5923 67.7747 65.9711 69.5032C67.0343 70.8361 68.6037 71.3571 70.1644 70.7735L69.06 69.389C68.2489 69.5717 67.5536 69.2821 67.0391 68.6372C66.2022 67.5881 66.3794 66.2226 67.5919 65.2554C68.813 64.2813 70.1751 64.419 71.012 65.4681C71.5264 66.113 71.6542 66.8554 71.3044 67.5987L72.4088 68.9832C73.3161 67.5981 73.1656 65.9453 72.1023 64.6124C70.7236 62.884 68.4014 62.5835 66.6041 64.0171ZM78.2299 72.4529L74.9648 68.3596L73.95 69.169L76.0902 71.852L69.8912 72.4067L68.9625 73.1475L72.2276 77.2408L73.2423 76.4314L71.0884 73.7312L77.3011 73.1937L78.2299 72.4529ZM82.1907 77.4007L78.063 80.6932L80.0162 74.6747L79.0559 73.4708L73.045 78.2656L74.0053 79.4695L78.1244 76.1838L76.1798 82.1954L77.1401 83.3993L83.151 78.6046L82.1907 77.4007ZM81.3405 88.6651L82.3557 89.9378L86.6449 82.9846L85.5268 81.583L77.7942 84.2193L78.8025 85.4834L80.2618 84.9667L82.1687 87.3573L81.3405 88.6651ZM82.8711 86.2622L81.4855 84.5252L84.6893 83.3907L82.8711 86.2622Z" fill="black" fill-opacity="0.3"/>
<defs>
<radialGradient id="paint0_radial" cx="0" cy="0" r="1" gradientUnits="userSpaceOnUse" gradientTransform="translate(132.36 132.799) rotate(53.6823) scale(130.695 130.725)">
<stop stop-color="#D50700"/>
<stop offset="1" stop-color="#FF0000"/>
</radialGradient>
<radialGradient id="paint1_radial" cx="0" cy="0" r="1" gradientUnits="userSpaceOnUse" gradientTransform="translate(132.36 132.799) rotate(-38.5618) scale(130.622 130.595)">
<stop stop-color="#007CC5"/>
<stop offset="1" stop-color="#27CBFF"/>
</radialGradient>
<radialGradient id="paint2_radial" cx="0" cy="0" r="1" gradientUnits="userSpaceOnUse" gradientTransform="translate(132.36 132.799) rotate(-38.5618) scale(130.622 130.595)">
<stop stop-color="#F7BE02"/>
<stop offset="1" stop-color="#FFD54C"/>
</radialGradient>
<radialGradient id="paint3_radial" cx="0" cy="0" r="1" gradientUnits="userSpaceOnUse" gradientTransform="translate(132.36 132.799) rotate(-105.771) scale(129.406 129.451)">
<stop stop-color="#FF05C7"/>
<stop offset="1" stop-color="#FF97D6"/>
</radialGradient>
<radialGradient id="paint4_radial" cx="0" cy="0" r="1" gradientUnits="userSpaceOnUse" gradientTransform="translate(132.36 132.799) rotate(141.438) scale(130.622 130.595)">
<stop stop-color="#FF7600"/>
<stop offset="1" stop-color="#FF9B44"/>
</radialGradient>
<radialGradient id="paint5_radial" cx="0" cy="0" r="1" gradientUnits="userSpaceOnUse" gradientTransform="translate(132.36 132.799) rotate(141.438) scale(130.622 130.595)">
<stop stop-color="#8834C9"/>
<stop offset="1" stop-color="#BC7BE6"/>
</radialGradient>
<radialGradient id="paint6_radial" cx="0" cy="0" r="1" gradientUnits="userSpaceOnUse" gradientTransform="translate(132.36 132.799) rotate(141.438) scale(130.622 130.595)">
<stop stop-color="#89B43C"/>
<stop offset="1" stop-color="#A4FF00"/>
</radialGradient>
</defs>
</svg>
