<svg width="26" height="28" viewBox="0 0 26 28" fill="none" xmlns="http://www.w3.org/2000/svg">
<path d="M17.9304 17.0118L12.5749 22.0736L7.21931 17.0118C3.20546 17.1763 0 20.2802 0 24.111V24.6204C0 26.0264 1.20696 27.1672 2.69461 27.1672H22.4551C23.9427 27.1672 25.1497 26.0264 25.1497 24.6204V24.111C25.1497 20.2802 21.9442 17.1763 17.9304 17.0118V17.0118ZM0.763473 4.23538L1.12275 4.31497V7.41357C0.72979 7.63641 0.449102 8.02374 0.449102 8.49065C0.449102 8.93634 0.707335 9.30775 1.07223 9.5359L0.196482 12.8414C0.101048 13.2075 0.314371 13.5842 0.623129 13.5842H2.96969C3.27844 13.5842 3.49177 13.2075 3.39633 12.8414L2.52058 9.5359C2.88548 9.30775 3.14371 8.93634 3.14371 8.49065C3.14371 8.02374 2.86302 7.63641 2.47006 7.41357V4.6227L6.17515 5.46633C5.69237 6.37893 5.38922 7.39765 5.38922 8.49065C5.38922 12.2419 8.60591 15.2821 12.5749 15.2821C16.5438 15.2821 19.7605 12.2419 19.7605 8.49065C19.7605 7.39765 19.463 6.37893 18.9746 5.46633L24.3806 4.23538C25.4023 4.00192 25.4023 2.7975 24.3806 2.56404L13.692 0.123361C12.9622 -0.0411202 12.1931 -0.0411202 11.4633 0.123361L0.763473 2.55874C-0.25262 2.79219 -0.25262 4.00192 0.763473 4.23538V4.23538Z" fill="#FF9214"/>
</svg>
