<svg width="15" height="28" viewBox="0 0 15 28" fill="none" xmlns="http://www.w3.org/2000/svg">
<path d="M7.16818 6.79054C9.14333 6.79054 10.7492 5.26797 10.7492 3.39527C10.7492 1.52257 9.14333 0 7.16818 0C5.19303 0 3.58717 1.52257 3.58717 3.39527C3.58717 5.26797 5.19303 6.79054 7.16818 6.79054ZM14.291 18.8066L11.7396 8.94972C11.5549 8.23353 10.8723 7.72954 10.0722 7.66588C9.23286 8.18048 8.23689 8.48817 7.16259 8.48817C6.08828 8.48817 5.09231 8.18048 4.25301 7.66588C3.45288 7.72954 2.77025 8.23353 2.58561 8.94972L0.0341371 18.8066C-0.161699 19.6077 0.50974 20.3716 1.41618 20.3716H4.48242V25.8889C4.48242 26.5945 5.08112 27.1622 5.8253 27.1622H8.51106C9.25524 27.1622 9.85394 26.5945 9.85394 25.8889V20.3716H12.9202C13.8266 20.3716 14.4981 19.6077 14.291 18.8066Z" fill="#0C9FED"/>
</svg>
