<svg width="15" height="28" viewBox="0 0 15 28" fill="none" xmlns="http://www.w3.org/2000/svg">
<path d="M7.3464 6.79054C9.32155 6.79054 10.9274 5.26797 10.9274 3.39527C10.9274 1.52257 9.32155 0 7.3464 0C5.37125 0 3.76539 1.52257 3.76539 3.39527C3.76539 5.26797 5.37125 6.79054 7.3464 6.79054ZM14.4693 18.8066L11.9178 8.94972C11.7331 8.23353 11.0505 7.72954 10.2504 7.66588C9.41108 8.18048 8.41511 8.48818 7.34081 8.48818C6.26651 8.48818 5.27054 8.18048 4.43124 7.66588C3.63111 7.72954 2.94848 8.23353 2.76383 8.94972L0.21236 18.8066C0.0165233 19.6077 0.687963 20.3716 1.59441 20.3716H4.66065V25.8889C4.66065 26.5945 5.25935 27.1622 6.00352 27.1622H8.68928C9.43346 27.1622 10.0322 26.5945 10.0322 25.8889V20.3716H13.0984C14.0048 20.3716 14.6763 19.6077 14.4693 18.8066Z" fill="#FF9214"/>
</svg>
