<svg width="16" height="30" viewBox="0 0 16 30" fill="none" xmlns="http://www.w3.org/2000/svg">
<path d="M7.6361 7.5C9.74207 7.5 11.4543 5.81836 11.4543 3.75C11.4543 1.68164 9.74207 0 7.6361 0C5.53014 0 3.81792 1.68164 3.81792 3.75C3.81792 5.81836 5.53014 7.5 7.6361 7.5ZM15.2307 20.7715L12.5103 9.88477C12.3134 9.09375 11.5855 8.53711 10.7324 8.4668C9.83753 9.03516 8.77559 9.375 7.63014 9.375C6.48468 9.375 5.42275 9.03516 4.52786 8.4668C3.67474 8.53711 2.94689 9.09375 2.75002 9.88477L0.0295621 20.7715C-0.179245 21.6562 0.536665 22.5 1.50314 22.5H4.77246V28.5938C4.77246 29.373 5.41082 30 6.20428 30H9.06792C9.86139 30 10.4997 29.373 10.4997 28.5938V22.5H13.7691C14.7355 22.5 15.4515 21.6562 15.2307 20.7715Z" fill="#424242"/>
</svg>
